%TF.GenerationSoftware,KiCad,Pcbnew,8.0.3*%
%TF.CreationDate,2026-04-21T12:50:53-07:00*%
%TF.ProjectId,SDSQ1,53445351-312e-46b6-9963-61645f706362,rev?*%
%TF.SameCoordinates,Original*%
%TF.FileFunction,Soldermask,Top*%
%TF.FilePolarity,Negative*%
%FSLAX46Y46*%
G04 Gerber Fmt 4.6, Leading zero omitted, Abs format (unit mm)*
G04 Created by KiCad (PCBNEW 8.0.3) date 2026-04-21 12:50:53*
%MOMM*%
%LPD*%
G01*
G04 APERTURE LIST*
G04 Aperture macros list*
%AMRoundRect*
0 Rectangle with rounded corners*
0 $1 Rounding radius*
0 $2 $3 $4 $5 $6 $7 $8 $9 X,Y pos of 4 corners*
0 Add a 4 corners polygon primitive as box body*
4,1,4,$2,$3,$4,$5,$6,$7,$8,$9,$2,$3,0*
0 Add four circle primitives for the rounded corners*
1,1,$1+$1,$2,$3*
1,1,$1+$1,$4,$5*
1,1,$1+$1,$6,$7*
1,1,$1+$1,$8,$9*
0 Add four rect primitives between the rounded corners*
20,1,$1+$1,$2,$3,$4,$5,0*
20,1,$1+$1,$4,$5,$6,$7,0*
20,1,$1+$1,$6,$7,$8,$9,0*
20,1,$1+$1,$8,$9,$2,$3,0*%
G04 Aperture macros list end*
%ADD10C,4.000000*%
%ADD11C,1.800000*%
%ADD12R,1.800000X1.800000*%
%ADD13O,1.800000X1.800000*%
%ADD14C,2.400000*%
%ADD15C,1.400000*%
%ADD16O,1.400000X1.400000*%
%ADD17C,1.600000*%
%ADD18O,1.600000X1.600000*%
%ADD19R,1.300000X1.300000*%
%ADD20C,1.300000*%
%ADD21RoundRect,0.400000X0.400000X-0.400000X0.400000X0.400000X-0.400000X0.400000X-0.400000X-0.400000X0*%
%ADD22RoundRect,0.375000X-0.375000X0.625000X-0.375000X-0.625000X0.375000X-0.625000X0.375000X0.625000X0*%
%ADD23RoundRect,0.500000X-1.400000X0.500000X-1.400000X-0.500000X1.400000X-0.500000X1.400000X0.500000X0*%
%ADD24O,1.300000X1.050000*%
%ADD25R,1.300000X1.050000*%
%ADD26R,1.050000X1.300000*%
%ADD27O,1.050000X1.300000*%
%ADD28R,1.600000X1.600000*%
%ADD29R,1.400000X2.000000*%
%ADD30O,1.400000X2.000000*%
%ADD31C,1.200000*%
%ADD32RoundRect,0.875000X-0.875000X0.875000X-0.875000X-0.875000X0.875000X-0.875000X0.875000X0.875000X0*%
%ADD33RoundRect,0.750000X-1.000000X0.750000X-1.000000X-0.750000X1.000000X-0.750000X1.000000X0.750000X0*%
%ADD34R,3.500000X3.500000*%
%ADD35C,3.450000*%
%ADD36C,2.390000*%
G04 APERTURE END LIST*
D10*
%TO.C,R28*%
X133308000Y-60564000D03*
X142108000Y-60564000D03*
D11*
X140208000Y-67564000D03*
X137708000Y-67564000D03*
X135208000Y-67564000D03*
%TD*%
D12*
%TO.C,D11*%
X153416000Y-67564000D03*
D13*
X145796000Y-67564000D03*
%TD*%
D12*
%TO.C,D10*%
X116840000Y-68072000D03*
D13*
X116840000Y-60452000D03*
%TD*%
D14*
%TO.C,SW8*%
X88883000Y-114519000D03*
X83583000Y-114519000D03*
%TD*%
D15*
%TO.C,R9*%
X92125000Y-134620000D03*
D16*
X97205000Y-134620000D03*
%TD*%
D14*
%TO.C,SW5*%
X76259000Y-85633000D03*
X70959000Y-85633000D03*
%TD*%
%TO.C,SW38*%
X163813000Y-114519000D03*
X158513000Y-114519000D03*
%TD*%
D12*
%TO.C,D2*%
X112357533Y-125034511D03*
D13*
X112357533Y-117414511D03*
%TD*%
D14*
%TO.C,SW26*%
X126475000Y-71085000D03*
X121175000Y-71085000D03*
%TD*%
%TO.C,SW21*%
X114156000Y-71085000D03*
X108856000Y-71085000D03*
%TD*%
D11*
%TO.C,D13*%
X103505000Y-53213000D03*
D12*
X103505000Y-50673000D03*
%TD*%
D17*
%TO.C,C18*%
X141418000Y-64516000D03*
D18*
X133918000Y-64516000D03*
%TD*%
%TO.C,C2*%
X80473658Y-131129888D03*
D17*
X80473658Y-138629888D03*
%TD*%
D15*
%TO.C,R24*%
X151892000Y-138684000D03*
D16*
X146812000Y-138684000D03*
%TD*%
D17*
%TO.C,C10*%
X123190000Y-136525000D03*
D18*
X123190000Y-129025000D03*
%TD*%
D19*
%TO.C,Q4*%
X94959715Y-34798000D03*
D20*
X96229715Y-33528000D03*
X97499715Y-34798000D03*
%TD*%
D17*
%TO.C,SW1*%
X160020000Y-132588000D03*
X157480000Y-132588000D03*
D21*
X154940000Y-132588000D03*
D17*
X160020000Y-137668000D03*
X154940000Y-137668000D03*
%TD*%
D14*
%TO.C,SW24*%
X126221000Y-99914000D03*
X120921000Y-99914000D03*
%TD*%
D19*
%TO.C,Q6*%
X108893429Y-34798000D03*
D20*
X110163429Y-33528000D03*
X111433429Y-34798000D03*
%TD*%
D14*
%TO.C,SW13*%
X101456000Y-114519000D03*
X96156000Y-114519000D03*
%TD*%
%TO.C,SW11*%
X89027000Y-71120000D03*
X83727000Y-71120000D03*
%TD*%
D15*
%TO.C,R32*%
X125249000Y-45924000D03*
D16*
X125249000Y-40844000D03*
%TD*%
D14*
%TO.C,SW9*%
X88883000Y-100041000D03*
X83583000Y-100041000D03*
%TD*%
D20*
%TO.C,Q10*%
X139300857Y-34798000D03*
X138030857Y-33528000D03*
D19*
X136760857Y-34798000D03*
%TD*%
D17*
%TO.C,C13*%
X88265000Y-126365000D03*
D18*
X88265000Y-118865000D03*
%TD*%
D22*
%TO.C,U5*%
X79389000Y-59588000D03*
X77089000Y-59588000D03*
D23*
X77089000Y-65888000D03*
D22*
X74789000Y-59588000D03*
%TD*%
D15*
%TO.C,R27*%
X119888000Y-63092000D03*
D16*
X119888000Y-68172000D03*
%TD*%
D17*
%TO.C,C3*%
X71120000Y-138370000D03*
D18*
X71120000Y-130870000D03*
%TD*%
D24*
%TO.C,Q1*%
X72155000Y-135910000D03*
X72155000Y-134640000D03*
D25*
X72155000Y-133370000D03*
%TD*%
D17*
%TO.C,C15*%
X113665000Y-136465000D03*
D18*
X113665000Y-128965000D03*
%TD*%
D14*
%TO.C,SW41*%
X164084000Y-71120000D03*
X158784000Y-71120000D03*
%TD*%
D20*
%TO.C,Q9*%
X132334000Y-34798000D03*
X131064000Y-33528000D03*
D19*
X129794000Y-34798000D03*
%TD*%
D14*
%TO.C,SW36*%
X151367000Y-71085000D03*
X146067000Y-71085000D03*
%TD*%
%TO.C,SW15*%
X101583000Y-85436000D03*
X96283000Y-85436000D03*
%TD*%
D11*
%TO.C,D14*%
X110617000Y-53213000D03*
D12*
X110617000Y-50673000D03*
%TD*%
D11*
%TO.C,D16*%
X124841000Y-53213000D03*
D12*
X124841000Y-50673000D03*
%TD*%
D15*
%TO.C,R31*%
X122099000Y-45924000D03*
D16*
X122099000Y-40844000D03*
%TD*%
D14*
%TO.C,SW2*%
X154830000Y-55845000D03*
X160130000Y-55845000D03*
%TD*%
D15*
%TO.C,R8*%
X119888000Y-124918000D03*
D16*
X119888000Y-119838000D03*
%TD*%
D14*
%TO.C,SW40*%
X164050000Y-85471000D03*
X158750000Y-85471000D03*
%TD*%
%TO.C,SW18*%
X113775000Y-114519000D03*
X108475000Y-114519000D03*
%TD*%
D26*
%TO.C,Q3*%
X129520000Y-129140000D03*
D27*
X128250000Y-129140000D03*
X126980000Y-129140000D03*
%TD*%
D14*
%TO.C,SW33*%
X151240000Y-114519000D03*
X145940000Y-114519000D03*
%TD*%
D17*
%TO.C,C11*%
X131853231Y-135692223D03*
D18*
X131853231Y-128192223D03*
%TD*%
D15*
%TO.C,R17*%
X83235000Y-128905000D03*
D16*
X88315000Y-128905000D03*
%TD*%
D17*
%TO.C,C16*%
X108585000Y-137795000D03*
D18*
X108585000Y-130295000D03*
%TD*%
%TO.C,C1*%
X77249488Y-138519480D03*
D17*
X77249488Y-131019480D03*
%TD*%
D16*
%TO.C,R3*%
X68580000Y-137795000D03*
D15*
X68580000Y-132715000D03*
%TD*%
D28*
%TO.C,U7*%
X129540000Y-59944000D03*
D18*
X129540000Y-62484000D03*
X129540000Y-65024000D03*
X129540000Y-67564000D03*
X121920000Y-67564000D03*
X121920000Y-65024000D03*
X121920000Y-62484000D03*
X121920000Y-59944000D03*
%TD*%
D15*
%TO.C,R35*%
X134699000Y-45924000D03*
D16*
X134699000Y-40844000D03*
%TD*%
D17*
%TO.C,C4*%
X102870000Y-131505000D03*
D18*
X102870000Y-139005000D03*
%TD*%
D14*
%TO.C,SW39*%
X163940000Y-100041000D03*
X158640000Y-100041000D03*
%TD*%
%TO.C,SW16*%
X101583000Y-71085000D03*
X96283000Y-71085000D03*
%TD*%
%TO.C,SW28*%
X138667000Y-114519000D03*
X133367000Y-114519000D03*
%TD*%
D11*
%TO.C,D18*%
X139065000Y-53213000D03*
D12*
X139065000Y-50673000D03*
%TD*%
D14*
%TO.C,SW30*%
X138794000Y-85563000D03*
X133494000Y-85563000D03*
%TD*%
D12*
%TO.C,D9*%
X84836000Y-67183000D03*
D13*
X84836000Y-59563000D03*
%TD*%
D15*
%TO.C,R7*%
X109645805Y-117437835D03*
D16*
X109645805Y-122517835D03*
%TD*%
D18*
%TO.C,U6*%
X112776000Y-60960000D03*
X110236000Y-60960000D03*
X107696000Y-60960000D03*
X105156000Y-60960000D03*
X102616000Y-60960000D03*
X100076000Y-60960000D03*
X97536000Y-60960000D03*
X94996000Y-60960000D03*
X94996000Y-68580000D03*
X97536000Y-68580000D03*
X100076000Y-68580000D03*
X102616000Y-68580000D03*
X105156000Y-68580000D03*
X107696000Y-68580000D03*
X110236000Y-68580000D03*
D28*
X112776000Y-68580000D03*
%TD*%
D12*
%TO.C,D3*%
X106968029Y-124887773D03*
D13*
X106968029Y-117267773D03*
%TD*%
D15*
%TO.C,R20*%
X137668000Y-137618000D03*
D16*
X137668000Y-132538000D03*
%TD*%
D26*
%TO.C,Q2*%
X105390000Y-128505000D03*
D27*
X104120000Y-128505000D03*
X102850000Y-128505000D03*
%TD*%
D15*
%TO.C,R15*%
X125095000Y-121970000D03*
D16*
X125095000Y-127050000D03*
%TD*%
D15*
%TO.C,R13*%
X106095000Y-134645000D03*
D16*
X111175000Y-134645000D03*
%TD*%
D15*
%TO.C,R30*%
X118949000Y-45924000D03*
D16*
X118949000Y-40844000D03*
%TD*%
D15*
%TO.C,R19*%
X151815239Y-132109663D03*
D16*
X146735239Y-132109663D03*
%TD*%
%TO.C,R1*%
X75515000Y-135255000D03*
D15*
X80595000Y-135255000D03*
%TD*%
%TO.C,R16*%
X158750000Y-78690000D03*
D16*
X158750000Y-73610000D03*
%TD*%
D14*
%TO.C,SW10*%
X88883000Y-85563000D03*
X83583000Y-85563000D03*
%TD*%
D15*
%TO.C,R22*%
X151842000Y-130048000D03*
D16*
X146762000Y-130048000D03*
%TD*%
D17*
%TO.C,C8*%
X92770000Y-131445000D03*
D18*
X100270000Y-131445000D03*
%TD*%
D12*
%TO.C,D4*%
X90805000Y-137795000D03*
D13*
X83185000Y-137795000D03*
%TD*%
D11*
%TO.C,D15*%
X117729000Y-53208000D03*
D12*
X117729000Y-50668000D03*
%TD*%
D29*
%TO.C,J1*%
X165454689Y-127983733D03*
D30*
X160954689Y-126483733D03*
X165454689Y-134983733D03*
X165454689Y-131983733D03*
X159954689Y-134983733D03*
D31*
X163154689Y-126683733D03*
X163154689Y-133683733D03*
%TD*%
D19*
%TO.C,Q5*%
X101926572Y-34798000D03*
D20*
X103196572Y-33528000D03*
X104466572Y-34798000D03*
%TD*%
D17*
%TO.C,C5*%
X116840000Y-136465000D03*
D18*
X116840000Y-128965000D03*
%TD*%
D17*
%TO.C,C19*%
X160020000Y-64008000D03*
D18*
X152520000Y-64008000D03*
%TD*%
D12*
%TO.C,D7*%
X88265000Y-138430000D03*
D13*
X88265000Y-130810000D03*
%TD*%
D15*
%TO.C,R34*%
X131549000Y-45924000D03*
D16*
X131549000Y-40844000D03*
%TD*%
D15*
%TO.C,R33*%
X128399000Y-45924000D03*
D16*
X128399000Y-40844000D03*
%TD*%
D19*
%TO.C,Q7*%
X115860286Y-34798000D03*
D20*
X117130286Y-33528000D03*
X118400286Y-34798000D03*
%TD*%
D15*
%TO.C,R5*%
X68580000Y-128905000D03*
D16*
X73660000Y-128905000D03*
%TD*%
D14*
%TO.C,SW35*%
X151384000Y-85471000D03*
X146084000Y-85471000D03*
%TD*%
D11*
%TO.C,D19*%
X146177000Y-53208000D03*
D12*
X146177000Y-50668000D03*
%TD*%
D15*
%TO.C,R12*%
X144145000Y-120065000D03*
D16*
X144145000Y-125145000D03*
%TD*%
D14*
%TO.C,SW14*%
X101329000Y-100041000D03*
X96029000Y-100041000D03*
%TD*%
D17*
%TO.C,C7*%
X134814000Y-136144000D03*
D18*
X127314000Y-136144000D03*
%TD*%
D15*
%TO.C,R4*%
X83185000Y-121335000D03*
D16*
X83185000Y-126415000D03*
%TD*%
D11*
%TO.C,D12*%
X96393000Y-53213000D03*
D12*
X96393000Y-50673000D03*
%TD*%
D14*
%TO.C,SW19*%
X113902000Y-99914000D03*
X108602000Y-99914000D03*
%TD*%
%TO.C,SW23*%
X126331000Y-114519000D03*
X121031000Y-114519000D03*
%TD*%
D12*
%TO.C,D6*%
X149860000Y-125095000D03*
D13*
X149860000Y-117475000D03*
%TD*%
D17*
%TO.C,C17*%
X83158647Y-131461975D03*
D18*
X90658647Y-131461975D03*
%TD*%
D14*
%TO.C,SW29*%
X138667000Y-100041000D03*
X133367000Y-100041000D03*
%TD*%
%TO.C,SW25*%
X126348000Y-85344000D03*
X121048000Y-85344000D03*
%TD*%
D15*
%TO.C,R10*%
X96788080Y-128672784D03*
D16*
X91708080Y-128672784D03*
%TD*%
D17*
%TO.C,C6*%
X115465402Y-117314101D03*
D18*
X115465402Y-124814101D03*
%TD*%
D14*
%TO.C,SW34*%
X151223000Y-99949000D03*
X145923000Y-99949000D03*
%TD*%
%TO.C,SW20*%
X114139000Y-85471000D03*
X108839000Y-85471000D03*
%TD*%
D15*
%TO.C,R21*%
X151783890Y-134317829D03*
D16*
X146703890Y-134317829D03*
%TD*%
D12*
%TO.C,D1*%
X74295000Y-139065000D03*
D13*
X74295000Y-131445000D03*
%TD*%
D14*
%TO.C,SW6*%
X76293000Y-71120000D03*
X70993000Y-71120000D03*
%TD*%
D15*
%TO.C,R25*%
X151859432Y-136477671D03*
D16*
X146779432Y-136477671D03*
%TD*%
D12*
%TO.C,D5*%
X120015000Y-138430000D03*
D13*
X120015000Y-130810000D03*
%TD*%
D18*
%TO.C,U3*%
X132438674Y-117750938D03*
X132438674Y-120290938D03*
X132438674Y-122830938D03*
X132438674Y-125370938D03*
X140058674Y-125370938D03*
X140058674Y-122830938D03*
X140058674Y-120290938D03*
D28*
X140058674Y-117750938D03*
%TD*%
D20*
%TO.C,Q8*%
X125367143Y-34798000D03*
X124097143Y-33528000D03*
D19*
X122827143Y-34798000D03*
%TD*%
D15*
%TO.C,R18*%
X85725000Y-121285000D03*
D16*
X85725000Y-126365000D03*
%TD*%
D14*
%TO.C,SW4*%
X76276000Y-100076000D03*
X70976000Y-100076000D03*
%TD*%
D15*
%TO.C,R29*%
X115799000Y-45924000D03*
D16*
X115799000Y-40844000D03*
%TD*%
D17*
%TO.C,C9*%
X99695000Y-134560000D03*
D18*
X99695000Y-127060000D03*
%TD*%
D28*
%TO.C,U2*%
X102860000Y-117485000D03*
D18*
X102860000Y-120025000D03*
X102860000Y-122565000D03*
X102860000Y-125105000D03*
X95240000Y-125105000D03*
X95240000Y-122565000D03*
X95240000Y-120025000D03*
X95240000Y-117485000D03*
%TD*%
D15*
%TO.C,R14*%
X106095000Y-137795000D03*
D16*
X111175000Y-137795000D03*
%TD*%
D14*
%TO.C,SW31*%
X138921000Y-71085000D03*
X133621000Y-71085000D03*
%TD*%
%TO.C,SW3*%
X76259000Y-114462000D03*
X70959000Y-114462000D03*
%TD*%
D20*
%TO.C,Q11*%
X146267715Y-34798000D03*
X144997715Y-33528000D03*
D19*
X143727715Y-34798000D03*
%TD*%
D15*
%TO.C,R11*%
X144330519Y-128452271D03*
D16*
X139250519Y-128452271D03*
%TD*%
D11*
%TO.C,D17*%
X131953000Y-53213000D03*
D12*
X131953000Y-50673000D03*
%TD*%
D15*
%TO.C,R23*%
X156972000Y-129540000D03*
D16*
X156972000Y-124460000D03*
%TD*%
D17*
%TO.C,C12*%
X146685000Y-127000000D03*
D18*
X146685000Y-119500000D03*
%TD*%
D17*
%TO.C,C14*%
X113111005Y-131873406D03*
D18*
X105611005Y-131873406D03*
%TD*%
D16*
%TO.C,R2*%
X75515000Y-128905000D03*
D15*
X80595000Y-128905000D03*
%TD*%
D12*
%TO.C,D8*%
X69723000Y-67056000D03*
D13*
X69723000Y-59436000D03*
%TD*%
D32*
%TO.C,J3*%
X76073000Y-51181000D03*
D33*
X71373000Y-48181000D03*
D34*
X71373000Y-54181000D03*
%TD*%
D15*
%TO.C,R26*%
X81915000Y-58293000D03*
D16*
X81915000Y-63373000D03*
%TD*%
D35*
%TO.C,BT1*%
X95676000Y-39753000D03*
X150876000Y-55753000D03*
D36*
X159206000Y-39753000D03*
%TD*%
D15*
%TO.C,R36*%
X137849000Y-45924000D03*
D16*
X137849000Y-40844000D03*
%TD*%
D18*
%TO.C,U1*%
X69850000Y-118110000D03*
X69850000Y-120650000D03*
X69850000Y-123190000D03*
X69850000Y-125730000D03*
X77470000Y-125730000D03*
X77470000Y-123190000D03*
X77470000Y-120650000D03*
D28*
X77470000Y-118110000D03*
%TD*%
D15*
%TO.C,R6*%
X81280000Y-126315000D03*
D16*
X81280000Y-121235000D03*
%TD*%
M02*
