%TF.GenerationSoftware,KiCad,Pcbnew,8.0.3*%
%TF.CreationDate,2026-04-21T12:50:53-07:00*%
%TF.ProjectId,SDSQ1,53445351-312e-46b6-9963-61645f706362,rev?*%
%TF.SameCoordinates,Original*%
%TF.FileFunction,Legend,Top*%
%TF.FilePolarity,Positive*%
%FSLAX46Y46*%
G04 Gerber Fmt 4.6, Leading zero omitted, Abs format (unit mm)*
G04 Created by KiCad (PCBNEW 8.0.3) date 2026-04-21 12:50:53*
%MOMM*%
%LPD*%
G01*
G04 APERTURE LIST*
%ADD10C,0.150000*%
%ADD11C,0.120000*%
G04 APERTURE END LIST*
D10*
X130512819Y-62156857D02*
X130036628Y-62490190D01*
X130512819Y-62728285D02*
X129512819Y-62728285D01*
X129512819Y-62728285D02*
X129512819Y-62347333D01*
X129512819Y-62347333D02*
X129560438Y-62252095D01*
X129560438Y-62252095D02*
X129608057Y-62204476D01*
X129608057Y-62204476D02*
X129703295Y-62156857D01*
X129703295Y-62156857D02*
X129846152Y-62156857D01*
X129846152Y-62156857D02*
X129941390Y-62204476D01*
X129941390Y-62204476D02*
X129989009Y-62252095D01*
X129989009Y-62252095D02*
X130036628Y-62347333D01*
X130036628Y-62347333D02*
X130036628Y-62728285D01*
X129608057Y-61775904D02*
X129560438Y-61728285D01*
X129560438Y-61728285D02*
X129512819Y-61633047D01*
X129512819Y-61633047D02*
X129512819Y-61394952D01*
X129512819Y-61394952D02*
X129560438Y-61299714D01*
X129560438Y-61299714D02*
X129608057Y-61252095D01*
X129608057Y-61252095D02*
X129703295Y-61204476D01*
X129703295Y-61204476D02*
X129798533Y-61204476D01*
X129798533Y-61204476D02*
X129941390Y-61252095D01*
X129941390Y-61252095D02*
X130512819Y-61823523D01*
X130512819Y-61823523D02*
X130512819Y-61204476D01*
X129941390Y-60633047D02*
X129893771Y-60728285D01*
X129893771Y-60728285D02*
X129846152Y-60775904D01*
X129846152Y-60775904D02*
X129750914Y-60823523D01*
X129750914Y-60823523D02*
X129703295Y-60823523D01*
X129703295Y-60823523D02*
X129608057Y-60775904D01*
X129608057Y-60775904D02*
X129560438Y-60728285D01*
X129560438Y-60728285D02*
X129512819Y-60633047D01*
X129512819Y-60633047D02*
X129512819Y-60442571D01*
X129512819Y-60442571D02*
X129560438Y-60347333D01*
X129560438Y-60347333D02*
X129608057Y-60299714D01*
X129608057Y-60299714D02*
X129703295Y-60252095D01*
X129703295Y-60252095D02*
X129750914Y-60252095D01*
X129750914Y-60252095D02*
X129846152Y-60299714D01*
X129846152Y-60299714D02*
X129893771Y-60347333D01*
X129893771Y-60347333D02*
X129941390Y-60442571D01*
X129941390Y-60442571D02*
X129941390Y-60633047D01*
X129941390Y-60633047D02*
X129989009Y-60728285D01*
X129989009Y-60728285D02*
X130036628Y-60775904D01*
X130036628Y-60775904D02*
X130131866Y-60823523D01*
X130131866Y-60823523D02*
X130322342Y-60823523D01*
X130322342Y-60823523D02*
X130417580Y-60775904D01*
X130417580Y-60775904D02*
X130465200Y-60728285D01*
X130465200Y-60728285D02*
X130512819Y-60633047D01*
X130512819Y-60633047D02*
X130512819Y-60442571D01*
X130512819Y-60442571D02*
X130465200Y-60347333D01*
X130465200Y-60347333D02*
X130417580Y-60299714D01*
X130417580Y-60299714D02*
X130322342Y-60252095D01*
X130322342Y-60252095D02*
X130131866Y-60252095D01*
X130131866Y-60252095D02*
X130036628Y-60299714D01*
X130036628Y-60299714D02*
X129989009Y-60347333D01*
X129989009Y-60347333D02*
X129941390Y-60442571D01*
X114824819Y-65476285D02*
X113824819Y-65476285D01*
X113824819Y-65476285D02*
X113824819Y-65238190D01*
X113824819Y-65238190D02*
X113872438Y-65095333D01*
X113872438Y-65095333D02*
X113967676Y-65000095D01*
X113967676Y-65000095D02*
X114062914Y-64952476D01*
X114062914Y-64952476D02*
X114253390Y-64904857D01*
X114253390Y-64904857D02*
X114396247Y-64904857D01*
X114396247Y-64904857D02*
X114586723Y-64952476D01*
X114586723Y-64952476D02*
X114681961Y-65000095D01*
X114681961Y-65000095D02*
X114777200Y-65095333D01*
X114777200Y-65095333D02*
X114824819Y-65238190D01*
X114824819Y-65238190D02*
X114824819Y-65476285D01*
X114824819Y-63952476D02*
X114824819Y-64523904D01*
X114824819Y-64238190D02*
X113824819Y-64238190D01*
X113824819Y-64238190D02*
X113967676Y-64333428D01*
X113967676Y-64333428D02*
X114062914Y-64428666D01*
X114062914Y-64428666D02*
X114110533Y-64523904D01*
X113824819Y-63333428D02*
X113824819Y-63238190D01*
X113824819Y-63238190D02*
X113872438Y-63142952D01*
X113872438Y-63142952D02*
X113920057Y-63095333D01*
X113920057Y-63095333D02*
X114015295Y-63047714D01*
X114015295Y-63047714D02*
X114205771Y-63000095D01*
X114205771Y-63000095D02*
X114443866Y-63000095D01*
X114443866Y-63000095D02*
X114634342Y-63047714D01*
X114634342Y-63047714D02*
X114729580Y-63095333D01*
X114729580Y-63095333D02*
X114777200Y-63142952D01*
X114777200Y-63142952D02*
X114824819Y-63238190D01*
X114824819Y-63238190D02*
X114824819Y-63333428D01*
X114824819Y-63333428D02*
X114777200Y-63428666D01*
X114777200Y-63428666D02*
X114729580Y-63476285D01*
X114729580Y-63476285D02*
X114634342Y-63523904D01*
X114634342Y-63523904D02*
X114443866Y-63571523D01*
X114443866Y-63571523D02*
X114205771Y-63571523D01*
X114205771Y-63571523D02*
X114015295Y-63523904D01*
X114015295Y-63523904D02*
X113920057Y-63476285D01*
X113920057Y-63476285D02*
X113872438Y-63428666D01*
X113872438Y-63428666D02*
X113824819Y-63333428D01*
X115394819Y-68333904D02*
X114394819Y-68333904D01*
X115394819Y-67762476D02*
X114823390Y-68191047D01*
X114394819Y-67762476D02*
X114966247Y-68333904D01*
X93640200Y-122552332D02*
X93687819Y-122409475D01*
X93687819Y-122409475D02*
X93687819Y-122171380D01*
X93687819Y-122171380D02*
X93640200Y-122076142D01*
X93640200Y-122076142D02*
X93592580Y-122028523D01*
X93592580Y-122028523D02*
X93497342Y-121980904D01*
X93497342Y-121980904D02*
X93402104Y-121980904D01*
X93402104Y-121980904D02*
X93306866Y-122028523D01*
X93306866Y-122028523D02*
X93259247Y-122076142D01*
X93259247Y-122076142D02*
X93211628Y-122171380D01*
X93211628Y-122171380D02*
X93164009Y-122361856D01*
X93164009Y-122361856D02*
X93116390Y-122457094D01*
X93116390Y-122457094D02*
X93068771Y-122504713D01*
X93068771Y-122504713D02*
X92973533Y-122552332D01*
X92973533Y-122552332D02*
X92878295Y-122552332D01*
X92878295Y-122552332D02*
X92783057Y-122504713D01*
X92783057Y-122504713D02*
X92735438Y-122457094D01*
X92735438Y-122457094D02*
X92687819Y-122361856D01*
X92687819Y-122361856D02*
X92687819Y-122123761D01*
X92687819Y-122123761D02*
X92735438Y-121980904D01*
X92687819Y-121647570D02*
X93687819Y-121409475D01*
X93687819Y-121409475D02*
X92973533Y-121218999D01*
X92973533Y-121218999D02*
X93687819Y-121028523D01*
X93687819Y-121028523D02*
X92687819Y-120790428D01*
X93116390Y-120266618D02*
X93068771Y-120361856D01*
X93068771Y-120361856D02*
X93021152Y-120409475D01*
X93021152Y-120409475D02*
X92925914Y-120457094D01*
X92925914Y-120457094D02*
X92878295Y-120457094D01*
X92878295Y-120457094D02*
X92783057Y-120409475D01*
X92783057Y-120409475D02*
X92735438Y-120361856D01*
X92735438Y-120361856D02*
X92687819Y-120266618D01*
X92687819Y-120266618D02*
X92687819Y-120076142D01*
X92687819Y-120076142D02*
X92735438Y-119980904D01*
X92735438Y-119980904D02*
X92783057Y-119933285D01*
X92783057Y-119933285D02*
X92878295Y-119885666D01*
X92878295Y-119885666D02*
X92925914Y-119885666D01*
X92925914Y-119885666D02*
X93021152Y-119933285D01*
X93021152Y-119933285D02*
X93068771Y-119980904D01*
X93068771Y-119980904D02*
X93116390Y-120076142D01*
X93116390Y-120076142D02*
X93116390Y-120266618D01*
X93116390Y-120266618D02*
X93164009Y-120361856D01*
X93164009Y-120361856D02*
X93211628Y-120409475D01*
X93211628Y-120409475D02*
X93306866Y-120457094D01*
X93306866Y-120457094D02*
X93497342Y-120457094D01*
X93497342Y-120457094D02*
X93592580Y-120409475D01*
X93592580Y-120409475D02*
X93640200Y-120361856D01*
X93640200Y-120361856D02*
X93687819Y-120266618D01*
X93687819Y-120266618D02*
X93687819Y-120076142D01*
X93687819Y-120076142D02*
X93640200Y-119980904D01*
X93640200Y-119980904D02*
X93592580Y-119933285D01*
X93592580Y-119933285D02*
X93497342Y-119885666D01*
X93497342Y-119885666D02*
X93306866Y-119885666D01*
X93306866Y-119885666D02*
X93211628Y-119933285D01*
X93211628Y-119933285D02*
X93164009Y-119980904D01*
X93164009Y-119980904D02*
X93116390Y-120076142D01*
X94498333Y-133154819D02*
X94165000Y-132678628D01*
X93926905Y-133154819D02*
X93926905Y-132154819D01*
X93926905Y-132154819D02*
X94307857Y-132154819D01*
X94307857Y-132154819D02*
X94403095Y-132202438D01*
X94403095Y-132202438D02*
X94450714Y-132250057D01*
X94450714Y-132250057D02*
X94498333Y-132345295D01*
X94498333Y-132345295D02*
X94498333Y-132488152D01*
X94498333Y-132488152D02*
X94450714Y-132583390D01*
X94450714Y-132583390D02*
X94403095Y-132631009D01*
X94403095Y-132631009D02*
X94307857Y-132678628D01*
X94307857Y-132678628D02*
X93926905Y-132678628D01*
X94974524Y-133154819D02*
X95165000Y-133154819D01*
X95165000Y-133154819D02*
X95260238Y-133107200D01*
X95260238Y-133107200D02*
X95307857Y-133059580D01*
X95307857Y-133059580D02*
X95403095Y-132916723D01*
X95403095Y-132916723D02*
X95450714Y-132726247D01*
X95450714Y-132726247D02*
X95450714Y-132345295D01*
X95450714Y-132345295D02*
X95403095Y-132250057D01*
X95403095Y-132250057D02*
X95355476Y-132202438D01*
X95355476Y-132202438D02*
X95260238Y-132154819D01*
X95260238Y-132154819D02*
X95069762Y-132154819D01*
X95069762Y-132154819D02*
X94974524Y-132202438D01*
X94974524Y-132202438D02*
X94926905Y-132250057D01*
X94926905Y-132250057D02*
X94879286Y-132345295D01*
X94879286Y-132345295D02*
X94879286Y-132583390D01*
X94879286Y-132583390D02*
X94926905Y-132678628D01*
X94926905Y-132678628D02*
X94974524Y-132726247D01*
X94974524Y-132726247D02*
X95069762Y-132773866D01*
X95069762Y-132773866D02*
X95260238Y-132773866D01*
X95260238Y-132773866D02*
X95355476Y-132726247D01*
X95355476Y-132726247D02*
X95403095Y-132678628D01*
X95403095Y-132678628D02*
X95450714Y-132583390D01*
X81016200Y-93666332D02*
X81063819Y-93523475D01*
X81063819Y-93523475D02*
X81063819Y-93285380D01*
X81063819Y-93285380D02*
X81016200Y-93190142D01*
X81016200Y-93190142D02*
X80968580Y-93142523D01*
X80968580Y-93142523D02*
X80873342Y-93094904D01*
X80873342Y-93094904D02*
X80778104Y-93094904D01*
X80778104Y-93094904D02*
X80682866Y-93142523D01*
X80682866Y-93142523D02*
X80635247Y-93190142D01*
X80635247Y-93190142D02*
X80587628Y-93285380D01*
X80587628Y-93285380D02*
X80540009Y-93475856D01*
X80540009Y-93475856D02*
X80492390Y-93571094D01*
X80492390Y-93571094D02*
X80444771Y-93618713D01*
X80444771Y-93618713D02*
X80349533Y-93666332D01*
X80349533Y-93666332D02*
X80254295Y-93666332D01*
X80254295Y-93666332D02*
X80159057Y-93618713D01*
X80159057Y-93618713D02*
X80111438Y-93571094D01*
X80111438Y-93571094D02*
X80063819Y-93475856D01*
X80063819Y-93475856D02*
X80063819Y-93237761D01*
X80063819Y-93237761D02*
X80111438Y-93094904D01*
X80063819Y-92761570D02*
X81063819Y-92523475D01*
X81063819Y-92523475D02*
X80349533Y-92332999D01*
X80349533Y-92332999D02*
X81063819Y-92142523D01*
X81063819Y-92142523D02*
X80063819Y-91904428D01*
X80063819Y-91047285D02*
X80063819Y-91523475D01*
X80063819Y-91523475D02*
X80540009Y-91571094D01*
X80540009Y-91571094D02*
X80492390Y-91523475D01*
X80492390Y-91523475D02*
X80444771Y-91428237D01*
X80444771Y-91428237D02*
X80444771Y-91190142D01*
X80444771Y-91190142D02*
X80492390Y-91094904D01*
X80492390Y-91094904D02*
X80540009Y-91047285D01*
X80540009Y-91047285D02*
X80635247Y-90999666D01*
X80635247Y-90999666D02*
X80873342Y-90999666D01*
X80873342Y-90999666D02*
X80968580Y-91047285D01*
X80968580Y-91047285D02*
X81016200Y-91094904D01*
X81016200Y-91094904D02*
X81063819Y-91190142D01*
X81063819Y-91190142D02*
X81063819Y-91428237D01*
X81063819Y-91428237D02*
X81016200Y-91523475D01*
X81016200Y-91523475D02*
X80968580Y-91571094D01*
X168570200Y-123028523D02*
X168617819Y-122885666D01*
X168617819Y-122885666D02*
X168617819Y-122647571D01*
X168617819Y-122647571D02*
X168570200Y-122552333D01*
X168570200Y-122552333D02*
X168522580Y-122504714D01*
X168522580Y-122504714D02*
X168427342Y-122457095D01*
X168427342Y-122457095D02*
X168332104Y-122457095D01*
X168332104Y-122457095D02*
X168236866Y-122504714D01*
X168236866Y-122504714D02*
X168189247Y-122552333D01*
X168189247Y-122552333D02*
X168141628Y-122647571D01*
X168141628Y-122647571D02*
X168094009Y-122838047D01*
X168094009Y-122838047D02*
X168046390Y-122933285D01*
X168046390Y-122933285D02*
X167998771Y-122980904D01*
X167998771Y-122980904D02*
X167903533Y-123028523D01*
X167903533Y-123028523D02*
X167808295Y-123028523D01*
X167808295Y-123028523D02*
X167713057Y-122980904D01*
X167713057Y-122980904D02*
X167665438Y-122933285D01*
X167665438Y-122933285D02*
X167617819Y-122838047D01*
X167617819Y-122838047D02*
X167617819Y-122599952D01*
X167617819Y-122599952D02*
X167665438Y-122457095D01*
X167617819Y-122123761D02*
X168617819Y-121885666D01*
X168617819Y-121885666D02*
X167903533Y-121695190D01*
X167903533Y-121695190D02*
X168617819Y-121504714D01*
X168617819Y-121504714D02*
X167617819Y-121266619D01*
X167617819Y-120980904D02*
X167617819Y-120361857D01*
X167617819Y-120361857D02*
X167998771Y-120695190D01*
X167998771Y-120695190D02*
X167998771Y-120552333D01*
X167998771Y-120552333D02*
X168046390Y-120457095D01*
X168046390Y-120457095D02*
X168094009Y-120409476D01*
X168094009Y-120409476D02*
X168189247Y-120361857D01*
X168189247Y-120361857D02*
X168427342Y-120361857D01*
X168427342Y-120361857D02*
X168522580Y-120409476D01*
X168522580Y-120409476D02*
X168570200Y-120457095D01*
X168570200Y-120457095D02*
X168617819Y-120552333D01*
X168617819Y-120552333D02*
X168617819Y-120838047D01*
X168617819Y-120838047D02*
X168570200Y-120933285D01*
X168570200Y-120933285D02*
X168522580Y-120980904D01*
X168046390Y-119790428D02*
X167998771Y-119885666D01*
X167998771Y-119885666D02*
X167951152Y-119933285D01*
X167951152Y-119933285D02*
X167855914Y-119980904D01*
X167855914Y-119980904D02*
X167808295Y-119980904D01*
X167808295Y-119980904D02*
X167713057Y-119933285D01*
X167713057Y-119933285D02*
X167665438Y-119885666D01*
X167665438Y-119885666D02*
X167617819Y-119790428D01*
X167617819Y-119790428D02*
X167617819Y-119599952D01*
X167617819Y-119599952D02*
X167665438Y-119504714D01*
X167665438Y-119504714D02*
X167713057Y-119457095D01*
X167713057Y-119457095D02*
X167808295Y-119409476D01*
X167808295Y-119409476D02*
X167855914Y-119409476D01*
X167855914Y-119409476D02*
X167951152Y-119457095D01*
X167951152Y-119457095D02*
X167998771Y-119504714D01*
X167998771Y-119504714D02*
X168046390Y-119599952D01*
X168046390Y-119599952D02*
X168046390Y-119790428D01*
X168046390Y-119790428D02*
X168094009Y-119885666D01*
X168094009Y-119885666D02*
X168141628Y-119933285D01*
X168141628Y-119933285D02*
X168236866Y-119980904D01*
X168236866Y-119980904D02*
X168427342Y-119980904D01*
X168427342Y-119980904D02*
X168522580Y-119933285D01*
X168522580Y-119933285D02*
X168570200Y-119885666D01*
X168570200Y-119885666D02*
X168617819Y-119790428D01*
X168617819Y-119790428D02*
X168617819Y-119599952D01*
X168617819Y-119599952D02*
X168570200Y-119504714D01*
X168570200Y-119504714D02*
X168522580Y-119457095D01*
X168522580Y-119457095D02*
X168427342Y-119409476D01*
X168427342Y-119409476D02*
X168236866Y-119409476D01*
X168236866Y-119409476D02*
X168141628Y-119457095D01*
X168141628Y-119457095D02*
X168094009Y-119504714D01*
X168094009Y-119504714D02*
X168046390Y-119599952D01*
X131232200Y-79594523D02*
X131279819Y-79451666D01*
X131279819Y-79451666D02*
X131279819Y-79213571D01*
X131279819Y-79213571D02*
X131232200Y-79118333D01*
X131232200Y-79118333D02*
X131184580Y-79070714D01*
X131184580Y-79070714D02*
X131089342Y-79023095D01*
X131089342Y-79023095D02*
X130994104Y-79023095D01*
X130994104Y-79023095D02*
X130898866Y-79070714D01*
X130898866Y-79070714D02*
X130851247Y-79118333D01*
X130851247Y-79118333D02*
X130803628Y-79213571D01*
X130803628Y-79213571D02*
X130756009Y-79404047D01*
X130756009Y-79404047D02*
X130708390Y-79499285D01*
X130708390Y-79499285D02*
X130660771Y-79546904D01*
X130660771Y-79546904D02*
X130565533Y-79594523D01*
X130565533Y-79594523D02*
X130470295Y-79594523D01*
X130470295Y-79594523D02*
X130375057Y-79546904D01*
X130375057Y-79546904D02*
X130327438Y-79499285D01*
X130327438Y-79499285D02*
X130279819Y-79404047D01*
X130279819Y-79404047D02*
X130279819Y-79165952D01*
X130279819Y-79165952D02*
X130327438Y-79023095D01*
X130279819Y-78689761D02*
X131279819Y-78451666D01*
X131279819Y-78451666D02*
X130565533Y-78261190D01*
X130565533Y-78261190D02*
X131279819Y-78070714D01*
X131279819Y-78070714D02*
X130279819Y-77832619D01*
X130375057Y-77499285D02*
X130327438Y-77451666D01*
X130327438Y-77451666D02*
X130279819Y-77356428D01*
X130279819Y-77356428D02*
X130279819Y-77118333D01*
X130279819Y-77118333D02*
X130327438Y-77023095D01*
X130327438Y-77023095D02*
X130375057Y-76975476D01*
X130375057Y-76975476D02*
X130470295Y-76927857D01*
X130470295Y-76927857D02*
X130565533Y-76927857D01*
X130565533Y-76927857D02*
X130708390Y-76975476D01*
X130708390Y-76975476D02*
X131279819Y-77546904D01*
X131279819Y-77546904D02*
X131279819Y-76927857D01*
X130279819Y-76070714D02*
X130279819Y-76261190D01*
X130279819Y-76261190D02*
X130327438Y-76356428D01*
X130327438Y-76356428D02*
X130375057Y-76404047D01*
X130375057Y-76404047D02*
X130517914Y-76499285D01*
X130517914Y-76499285D02*
X130708390Y-76546904D01*
X130708390Y-76546904D02*
X131089342Y-76546904D01*
X131089342Y-76546904D02*
X131184580Y-76499285D01*
X131184580Y-76499285D02*
X131232200Y-76451666D01*
X131232200Y-76451666D02*
X131279819Y-76356428D01*
X131279819Y-76356428D02*
X131279819Y-76165952D01*
X131279819Y-76165952D02*
X131232200Y-76070714D01*
X131232200Y-76070714D02*
X131184580Y-76023095D01*
X131184580Y-76023095D02*
X131089342Y-75975476D01*
X131089342Y-75975476D02*
X130851247Y-75975476D01*
X130851247Y-75975476D02*
X130756009Y-76023095D01*
X130756009Y-76023095D02*
X130708390Y-76070714D01*
X130708390Y-76070714D02*
X130660771Y-76165952D01*
X130660771Y-76165952D02*
X130660771Y-76356428D01*
X130660771Y-76356428D02*
X130708390Y-76451666D01*
X130708390Y-76451666D02*
X130756009Y-76499285D01*
X130756009Y-76499285D02*
X130851247Y-76546904D01*
X118913200Y-79594523D02*
X118960819Y-79451666D01*
X118960819Y-79451666D02*
X118960819Y-79213571D01*
X118960819Y-79213571D02*
X118913200Y-79118333D01*
X118913200Y-79118333D02*
X118865580Y-79070714D01*
X118865580Y-79070714D02*
X118770342Y-79023095D01*
X118770342Y-79023095D02*
X118675104Y-79023095D01*
X118675104Y-79023095D02*
X118579866Y-79070714D01*
X118579866Y-79070714D02*
X118532247Y-79118333D01*
X118532247Y-79118333D02*
X118484628Y-79213571D01*
X118484628Y-79213571D02*
X118437009Y-79404047D01*
X118437009Y-79404047D02*
X118389390Y-79499285D01*
X118389390Y-79499285D02*
X118341771Y-79546904D01*
X118341771Y-79546904D02*
X118246533Y-79594523D01*
X118246533Y-79594523D02*
X118151295Y-79594523D01*
X118151295Y-79594523D02*
X118056057Y-79546904D01*
X118056057Y-79546904D02*
X118008438Y-79499285D01*
X118008438Y-79499285D02*
X117960819Y-79404047D01*
X117960819Y-79404047D02*
X117960819Y-79165952D01*
X117960819Y-79165952D02*
X118008438Y-79023095D01*
X117960819Y-78689761D02*
X118960819Y-78451666D01*
X118960819Y-78451666D02*
X118246533Y-78261190D01*
X118246533Y-78261190D02*
X118960819Y-78070714D01*
X118960819Y-78070714D02*
X117960819Y-77832619D01*
X118056057Y-77499285D02*
X118008438Y-77451666D01*
X118008438Y-77451666D02*
X117960819Y-77356428D01*
X117960819Y-77356428D02*
X117960819Y-77118333D01*
X117960819Y-77118333D02*
X118008438Y-77023095D01*
X118008438Y-77023095D02*
X118056057Y-76975476D01*
X118056057Y-76975476D02*
X118151295Y-76927857D01*
X118151295Y-76927857D02*
X118246533Y-76927857D01*
X118246533Y-76927857D02*
X118389390Y-76975476D01*
X118389390Y-76975476D02*
X118960819Y-77546904D01*
X118960819Y-77546904D02*
X118960819Y-76927857D01*
X118960819Y-75975476D02*
X118960819Y-76546904D01*
X118960819Y-76261190D02*
X117960819Y-76261190D01*
X117960819Y-76261190D02*
X118103676Y-76356428D01*
X118103676Y-76356428D02*
X118198914Y-76451666D01*
X118198914Y-76451666D02*
X118246533Y-76546904D01*
X106919819Y-53157285D02*
X105919819Y-53157285D01*
X105919819Y-53157285D02*
X105919819Y-52919190D01*
X105919819Y-52919190D02*
X105967438Y-52776333D01*
X105967438Y-52776333D02*
X106062676Y-52681095D01*
X106062676Y-52681095D02*
X106157914Y-52633476D01*
X106157914Y-52633476D02*
X106348390Y-52585857D01*
X106348390Y-52585857D02*
X106491247Y-52585857D01*
X106491247Y-52585857D02*
X106681723Y-52633476D01*
X106681723Y-52633476D02*
X106776961Y-52681095D01*
X106776961Y-52681095D02*
X106872200Y-52776333D01*
X106872200Y-52776333D02*
X106919819Y-52919190D01*
X106919819Y-52919190D02*
X106919819Y-53157285D01*
X106919819Y-51633476D02*
X106919819Y-52204904D01*
X106919819Y-51919190D02*
X105919819Y-51919190D01*
X105919819Y-51919190D02*
X106062676Y-52014428D01*
X106062676Y-52014428D02*
X106157914Y-52109666D01*
X106157914Y-52109666D02*
X106205533Y-52204904D01*
X105919819Y-51300142D02*
X105919819Y-50681095D01*
X105919819Y-50681095D02*
X106300771Y-51014428D01*
X106300771Y-51014428D02*
X106300771Y-50871571D01*
X106300771Y-50871571D02*
X106348390Y-50776333D01*
X106348390Y-50776333D02*
X106396009Y-50728714D01*
X106396009Y-50728714D02*
X106491247Y-50681095D01*
X106491247Y-50681095D02*
X106729342Y-50681095D01*
X106729342Y-50681095D02*
X106824580Y-50728714D01*
X106824580Y-50728714D02*
X106872200Y-50776333D01*
X106872200Y-50776333D02*
X106919819Y-50871571D01*
X106919819Y-50871571D02*
X106919819Y-51157285D01*
X106919819Y-51157285D02*
X106872200Y-51252523D01*
X106872200Y-51252523D02*
X106824580Y-51300142D01*
X78413238Y-135046554D02*
X78460858Y-135094173D01*
X78460858Y-135094173D02*
X78508477Y-135237030D01*
X78508477Y-135237030D02*
X78508477Y-135332268D01*
X78508477Y-135332268D02*
X78460858Y-135475125D01*
X78460858Y-135475125D02*
X78365619Y-135570363D01*
X78365619Y-135570363D02*
X78270381Y-135617982D01*
X78270381Y-135617982D02*
X78079905Y-135665601D01*
X78079905Y-135665601D02*
X77937048Y-135665601D01*
X77937048Y-135665601D02*
X77746572Y-135617982D01*
X77746572Y-135617982D02*
X77651334Y-135570363D01*
X77651334Y-135570363D02*
X77556096Y-135475125D01*
X77556096Y-135475125D02*
X77508477Y-135332268D01*
X77508477Y-135332268D02*
X77508477Y-135237030D01*
X77508477Y-135237030D02*
X77556096Y-135094173D01*
X77556096Y-135094173D02*
X77603715Y-135046554D01*
X77603715Y-134665601D02*
X77556096Y-134617982D01*
X77556096Y-134617982D02*
X77508477Y-134522744D01*
X77508477Y-134522744D02*
X77508477Y-134284649D01*
X77508477Y-134284649D02*
X77556096Y-134189411D01*
X77556096Y-134189411D02*
X77603715Y-134141792D01*
X77603715Y-134141792D02*
X77698953Y-134094173D01*
X77698953Y-134094173D02*
X77794191Y-134094173D01*
X77794191Y-134094173D02*
X77937048Y-134141792D01*
X77937048Y-134141792D02*
X78508477Y-134713220D01*
X78508477Y-134713220D02*
X78508477Y-134094173D01*
X148709142Y-141058819D02*
X148375809Y-140582628D01*
X148137714Y-141058819D02*
X148137714Y-140058819D01*
X148137714Y-140058819D02*
X148518666Y-140058819D01*
X148518666Y-140058819D02*
X148613904Y-140106438D01*
X148613904Y-140106438D02*
X148661523Y-140154057D01*
X148661523Y-140154057D02*
X148709142Y-140249295D01*
X148709142Y-140249295D02*
X148709142Y-140392152D01*
X148709142Y-140392152D02*
X148661523Y-140487390D01*
X148661523Y-140487390D02*
X148613904Y-140535009D01*
X148613904Y-140535009D02*
X148518666Y-140582628D01*
X148518666Y-140582628D02*
X148137714Y-140582628D01*
X149090095Y-140154057D02*
X149137714Y-140106438D01*
X149137714Y-140106438D02*
X149232952Y-140058819D01*
X149232952Y-140058819D02*
X149471047Y-140058819D01*
X149471047Y-140058819D02*
X149566285Y-140106438D01*
X149566285Y-140106438D02*
X149613904Y-140154057D01*
X149613904Y-140154057D02*
X149661523Y-140249295D01*
X149661523Y-140249295D02*
X149661523Y-140344533D01*
X149661523Y-140344533D02*
X149613904Y-140487390D01*
X149613904Y-140487390D02*
X149042476Y-141058819D01*
X149042476Y-141058819D02*
X149661523Y-141058819D01*
X150518666Y-140392152D02*
X150518666Y-141058819D01*
X150280571Y-140011200D02*
X150042476Y-140725485D01*
X150042476Y-140725485D02*
X150661523Y-140725485D01*
X121129580Y-133417857D02*
X121177200Y-133465476D01*
X121177200Y-133465476D02*
X121224819Y-133608333D01*
X121224819Y-133608333D02*
X121224819Y-133703571D01*
X121224819Y-133703571D02*
X121177200Y-133846428D01*
X121177200Y-133846428D02*
X121081961Y-133941666D01*
X121081961Y-133941666D02*
X120986723Y-133989285D01*
X120986723Y-133989285D02*
X120796247Y-134036904D01*
X120796247Y-134036904D02*
X120653390Y-134036904D01*
X120653390Y-134036904D02*
X120462914Y-133989285D01*
X120462914Y-133989285D02*
X120367676Y-133941666D01*
X120367676Y-133941666D02*
X120272438Y-133846428D01*
X120272438Y-133846428D02*
X120224819Y-133703571D01*
X120224819Y-133703571D02*
X120224819Y-133608333D01*
X120224819Y-133608333D02*
X120272438Y-133465476D01*
X120272438Y-133465476D02*
X120320057Y-133417857D01*
X121224819Y-132465476D02*
X121224819Y-133036904D01*
X121224819Y-132751190D02*
X120224819Y-132751190D01*
X120224819Y-132751190D02*
X120367676Y-132846428D01*
X120367676Y-132846428D02*
X120462914Y-132941666D01*
X120462914Y-132941666D02*
X120510533Y-133036904D01*
X120224819Y-131846428D02*
X120224819Y-131751190D01*
X120224819Y-131751190D02*
X120272438Y-131655952D01*
X120272438Y-131655952D02*
X120320057Y-131608333D01*
X120320057Y-131608333D02*
X120415295Y-131560714D01*
X120415295Y-131560714D02*
X120605771Y-131513095D01*
X120605771Y-131513095D02*
X120843866Y-131513095D01*
X120843866Y-131513095D02*
X121034342Y-131560714D01*
X121034342Y-131560714D02*
X121129580Y-131608333D01*
X121129580Y-131608333D02*
X121177200Y-131655952D01*
X121177200Y-131655952D02*
X121224819Y-131751190D01*
X121224819Y-131751190D02*
X121224819Y-131846428D01*
X121224819Y-131846428D02*
X121177200Y-131941666D01*
X121177200Y-131941666D02*
X121129580Y-131989285D01*
X121129580Y-131989285D02*
X121034342Y-132036904D01*
X121034342Y-132036904D02*
X120843866Y-132084523D01*
X120843866Y-132084523D02*
X120605771Y-132084523D01*
X120605771Y-132084523D02*
X120415295Y-132036904D01*
X120415295Y-132036904D02*
X120320057Y-131989285D01*
X120320057Y-131989285D02*
X120272438Y-131941666D01*
X120272438Y-131941666D02*
X120224819Y-131846428D01*
X126402772Y66456761D02*
X126355153Y66361523D01*
X126355153Y66361523D02*
X126259915Y66266285D01*
X126259915Y66266285D02*
X126117057Y66123428D01*
X126117057Y66123428D02*
X126069438Y66028190D01*
X126069438Y66028190D02*
X126069438Y65932952D01*
X126307534Y65980571D02*
X126259915Y65885333D01*
X126259915Y65885333D02*
X126164676Y65790095D01*
X126164676Y65790095D02*
X125974200Y65742476D01*
X125974200Y65742476D02*
X125640867Y65742476D01*
X125640867Y65742476D02*
X125450391Y65790095D01*
X125450391Y65790095D02*
X125355153Y65885333D01*
X125355153Y65885333D02*
X125307534Y65980571D01*
X125307534Y65980571D02*
X125307534Y66171047D01*
X125307534Y66171047D02*
X125355153Y66266285D01*
X125355153Y66266285D02*
X125450391Y66361523D01*
X125450391Y66361523D02*
X125640867Y66409142D01*
X125640867Y66409142D02*
X125974200Y66409142D01*
X125974200Y66409142D02*
X126164676Y66361523D01*
X126164676Y66361523D02*
X126259915Y66266285D01*
X126259915Y66266285D02*
X126307534Y66171047D01*
X126307534Y66171047D02*
X126307534Y65980571D01*
X125640867Y67266285D02*
X126307534Y67266285D01*
X125259915Y67028190D02*
X125974200Y66790095D01*
X125974200Y66790095D02*
X125974200Y67409142D01*
X130978200Y-108423523D02*
X131025819Y-108280666D01*
X131025819Y-108280666D02*
X131025819Y-108042571D01*
X131025819Y-108042571D02*
X130978200Y-107947333D01*
X130978200Y-107947333D02*
X130930580Y-107899714D01*
X130930580Y-107899714D02*
X130835342Y-107852095D01*
X130835342Y-107852095D02*
X130740104Y-107852095D01*
X130740104Y-107852095D02*
X130644866Y-107899714D01*
X130644866Y-107899714D02*
X130597247Y-107947333D01*
X130597247Y-107947333D02*
X130549628Y-108042571D01*
X130549628Y-108042571D02*
X130502009Y-108233047D01*
X130502009Y-108233047D02*
X130454390Y-108328285D01*
X130454390Y-108328285D02*
X130406771Y-108375904D01*
X130406771Y-108375904D02*
X130311533Y-108423523D01*
X130311533Y-108423523D02*
X130216295Y-108423523D01*
X130216295Y-108423523D02*
X130121057Y-108375904D01*
X130121057Y-108375904D02*
X130073438Y-108328285D01*
X130073438Y-108328285D02*
X130025819Y-108233047D01*
X130025819Y-108233047D02*
X130025819Y-107994952D01*
X130025819Y-107994952D02*
X130073438Y-107852095D01*
X130025819Y-107518761D02*
X131025819Y-107280666D01*
X131025819Y-107280666D02*
X130311533Y-107090190D01*
X130311533Y-107090190D02*
X131025819Y-106899714D01*
X131025819Y-106899714D02*
X130025819Y-106661619D01*
X130121057Y-106328285D02*
X130073438Y-106280666D01*
X130073438Y-106280666D02*
X130025819Y-106185428D01*
X130025819Y-106185428D02*
X130025819Y-105947333D01*
X130025819Y-105947333D02*
X130073438Y-105852095D01*
X130073438Y-105852095D02*
X130121057Y-105804476D01*
X130121057Y-105804476D02*
X130216295Y-105756857D01*
X130216295Y-105756857D02*
X130311533Y-105756857D01*
X130311533Y-105756857D02*
X130454390Y-105804476D01*
X130454390Y-105804476D02*
X131025819Y-106375904D01*
X131025819Y-106375904D02*
X131025819Y-105756857D01*
X130359152Y-104899714D02*
X131025819Y-104899714D01*
X129978200Y-105137809D02*
X130692485Y-105375904D01*
X130692485Y-105375904D02*
X130692485Y-104756857D01*
X110068190Y-31788057D02*
X109972952Y-31740438D01*
X109972952Y-31740438D02*
X109877714Y-31645200D01*
X109877714Y-31645200D02*
X109734857Y-31502342D01*
X109734857Y-31502342D02*
X109639619Y-31454723D01*
X109639619Y-31454723D02*
X109544381Y-31454723D01*
X109592000Y-31692819D02*
X109496762Y-31645200D01*
X109496762Y-31645200D02*
X109401524Y-31549961D01*
X109401524Y-31549961D02*
X109353905Y-31359485D01*
X109353905Y-31359485D02*
X109353905Y-31026152D01*
X109353905Y-31026152D02*
X109401524Y-30835676D01*
X109401524Y-30835676D02*
X109496762Y-30740438D01*
X109496762Y-30740438D02*
X109592000Y-30692819D01*
X109592000Y-30692819D02*
X109782476Y-30692819D01*
X109782476Y-30692819D02*
X109877714Y-30740438D01*
X109877714Y-30740438D02*
X109972952Y-30835676D01*
X109972952Y-30835676D02*
X110020571Y-31026152D01*
X110020571Y-31026152D02*
X110020571Y-31359485D01*
X110020571Y-31359485D02*
X109972952Y-31549961D01*
X109972952Y-31549961D02*
X109877714Y-31645200D01*
X109877714Y-31645200D02*
X109782476Y-31692819D01*
X109782476Y-31692819D02*
X109592000Y-31692819D01*
X110877714Y-30692819D02*
X110687238Y-30692819D01*
X110687238Y-30692819D02*
X110592000Y-30740438D01*
X110592000Y-30740438D02*
X110544381Y-30788057D01*
X110544381Y-30788057D02*
X110449143Y-30930914D01*
X110449143Y-30930914D02*
X110401524Y-31121390D01*
X110401524Y-31121390D02*
X110401524Y-31502342D01*
X110401524Y-31502342D02*
X110449143Y-31597580D01*
X110449143Y-31597580D02*
X110496762Y-31645200D01*
X110496762Y-31645200D02*
X110592000Y-31692819D01*
X110592000Y-31692819D02*
X110782476Y-31692819D01*
X110782476Y-31692819D02*
X110877714Y-31645200D01*
X110877714Y-31645200D02*
X110925333Y-31597580D01*
X110925333Y-31597580D02*
X110972952Y-31502342D01*
X110972952Y-31502342D02*
X110972952Y-31264247D01*
X110972952Y-31264247D02*
X110925333Y-31169009D01*
X110925333Y-31169009D02*
X110877714Y-31121390D01*
X110877714Y-31121390D02*
X110782476Y-31073771D01*
X110782476Y-31073771D02*
X110592000Y-31073771D01*
X110592000Y-31073771D02*
X110496762Y-31121390D01*
X110496762Y-31121390D02*
X110449143Y-31169009D01*
X110449143Y-31169009D02*
X110401524Y-31264247D01*
X106213200Y-123028523D02*
X106260819Y-122885666D01*
X106260819Y-122885666D02*
X106260819Y-122647571D01*
X106260819Y-122647571D02*
X106213200Y-122552333D01*
X106213200Y-122552333D02*
X106165580Y-122504714D01*
X106165580Y-122504714D02*
X106070342Y-122457095D01*
X106070342Y-122457095D02*
X105975104Y-122457095D01*
X105975104Y-122457095D02*
X105879866Y-122504714D01*
X105879866Y-122504714D02*
X105832247Y-122552333D01*
X105832247Y-122552333D02*
X105784628Y-122647571D01*
X105784628Y-122647571D02*
X105737009Y-122838047D01*
X105737009Y-122838047D02*
X105689390Y-122933285D01*
X105689390Y-122933285D02*
X105641771Y-122980904D01*
X105641771Y-122980904D02*
X105546533Y-123028523D01*
X105546533Y-123028523D02*
X105451295Y-123028523D01*
X105451295Y-123028523D02*
X105356057Y-122980904D01*
X105356057Y-122980904D02*
X105308438Y-122933285D01*
X105308438Y-122933285D02*
X105260819Y-122838047D01*
X105260819Y-122838047D02*
X105260819Y-122599952D01*
X105260819Y-122599952D02*
X105308438Y-122457095D01*
X105260819Y-122123761D02*
X106260819Y-121885666D01*
X106260819Y-121885666D02*
X105546533Y-121695190D01*
X105546533Y-121695190D02*
X106260819Y-121504714D01*
X106260819Y-121504714D02*
X105260819Y-121266619D01*
X106260819Y-120361857D02*
X106260819Y-120933285D01*
X106260819Y-120647571D02*
X105260819Y-120647571D01*
X105260819Y-120647571D02*
X105403676Y-120742809D01*
X105403676Y-120742809D02*
X105498914Y-120838047D01*
X105498914Y-120838047D02*
X105546533Y-120933285D01*
X105260819Y-120028523D02*
X105260819Y-119409476D01*
X105260819Y-119409476D02*
X105641771Y-119742809D01*
X105641771Y-119742809D02*
X105641771Y-119599952D01*
X105641771Y-119599952D02*
X105689390Y-119504714D01*
X105689390Y-119504714D02*
X105737009Y-119457095D01*
X105737009Y-119457095D02*
X105832247Y-119409476D01*
X105832247Y-119409476D02*
X106070342Y-119409476D01*
X106070342Y-119409476D02*
X106165580Y-119457095D01*
X106165580Y-119457095D02*
X106213200Y-119504714D01*
X106213200Y-119504714D02*
X106260819Y-119599952D01*
X106260819Y-119599952D02*
X106260819Y-119885666D01*
X106260819Y-119885666D02*
X106213200Y-119980904D01*
X106213200Y-119980904D02*
X106165580Y-120028523D01*
X93784200Y-79629523D02*
X93831819Y-79486666D01*
X93831819Y-79486666D02*
X93831819Y-79248571D01*
X93831819Y-79248571D02*
X93784200Y-79153333D01*
X93784200Y-79153333D02*
X93736580Y-79105714D01*
X93736580Y-79105714D02*
X93641342Y-79058095D01*
X93641342Y-79058095D02*
X93546104Y-79058095D01*
X93546104Y-79058095D02*
X93450866Y-79105714D01*
X93450866Y-79105714D02*
X93403247Y-79153333D01*
X93403247Y-79153333D02*
X93355628Y-79248571D01*
X93355628Y-79248571D02*
X93308009Y-79439047D01*
X93308009Y-79439047D02*
X93260390Y-79534285D01*
X93260390Y-79534285D02*
X93212771Y-79581904D01*
X93212771Y-79581904D02*
X93117533Y-79629523D01*
X93117533Y-79629523D02*
X93022295Y-79629523D01*
X93022295Y-79629523D02*
X92927057Y-79581904D01*
X92927057Y-79581904D02*
X92879438Y-79534285D01*
X92879438Y-79534285D02*
X92831819Y-79439047D01*
X92831819Y-79439047D02*
X92831819Y-79200952D01*
X92831819Y-79200952D02*
X92879438Y-79058095D01*
X92831819Y-78724761D02*
X93831819Y-78486666D01*
X93831819Y-78486666D02*
X93117533Y-78296190D01*
X93117533Y-78296190D02*
X93831819Y-78105714D01*
X93831819Y-78105714D02*
X92831819Y-77867619D01*
X93831819Y-76962857D02*
X93831819Y-77534285D01*
X93831819Y-77248571D02*
X92831819Y-77248571D01*
X92831819Y-77248571D02*
X92974676Y-77343809D01*
X92974676Y-77343809D02*
X93069914Y-77439047D01*
X93069914Y-77439047D02*
X93117533Y-77534285D01*
X93831819Y-76010476D02*
X93831819Y-76581904D01*
X93831819Y-76296190D02*
X92831819Y-76296190D01*
X92831819Y-76296190D02*
X92974676Y-76391428D01*
X92974676Y-76391428D02*
X93069914Y-76486666D01*
X93069914Y-76486666D02*
X93117533Y-76581904D01*
X123783819Y-44026857D02*
X123307628Y-44360190D01*
X123783819Y-44598285D02*
X122783819Y-44598285D01*
X122783819Y-44598285D02*
X122783819Y-44217333D01*
X122783819Y-44217333D02*
X122831438Y-44122095D01*
X122831438Y-44122095D02*
X122879057Y-44074476D01*
X122879057Y-44074476D02*
X122974295Y-44026857D01*
X122974295Y-44026857D02*
X123117152Y-44026857D01*
X123117152Y-44026857D02*
X123212390Y-44074476D01*
X123212390Y-44074476D02*
X123260009Y-44122095D01*
X123260009Y-44122095D02*
X123307628Y-44217333D01*
X123307628Y-44217333D02*
X123307628Y-44598285D01*
X122783819Y-43693523D02*
X122783819Y-43074476D01*
X122783819Y-43074476D02*
X123164771Y-43407809D01*
X123164771Y-43407809D02*
X123164771Y-43264952D01*
X123164771Y-43264952D02*
X123212390Y-43169714D01*
X123212390Y-43169714D02*
X123260009Y-43122095D01*
X123260009Y-43122095D02*
X123355247Y-43074476D01*
X123355247Y-43074476D02*
X123593342Y-43074476D01*
X123593342Y-43074476D02*
X123688580Y-43122095D01*
X123688580Y-43122095D02*
X123736200Y-43169714D01*
X123736200Y-43169714D02*
X123783819Y-43264952D01*
X123783819Y-43264952D02*
X123783819Y-43550666D01*
X123783819Y-43550666D02*
X123736200Y-43645904D01*
X123736200Y-43645904D02*
X123688580Y-43693523D01*
X122879057Y-42693523D02*
X122831438Y-42645904D01*
X122831438Y-42645904D02*
X122783819Y-42550666D01*
X122783819Y-42550666D02*
X122783819Y-42312571D01*
X122783819Y-42312571D02*
X122831438Y-42217333D01*
X122831438Y-42217333D02*
X122879057Y-42169714D01*
X122879057Y-42169714D02*
X122974295Y-42122095D01*
X122974295Y-42122095D02*
X123069533Y-42122095D01*
X123069533Y-42122095D02*
X123212390Y-42169714D01*
X123212390Y-42169714D02*
X123783819Y-42741142D01*
X123783819Y-42741142D02*
X123783819Y-42122095D01*
X93640200Y-108074332D02*
X93687819Y-107931475D01*
X93687819Y-107931475D02*
X93687819Y-107693380D01*
X93687819Y-107693380D02*
X93640200Y-107598142D01*
X93640200Y-107598142D02*
X93592580Y-107550523D01*
X93592580Y-107550523D02*
X93497342Y-107502904D01*
X93497342Y-107502904D02*
X93402104Y-107502904D01*
X93402104Y-107502904D02*
X93306866Y-107550523D01*
X93306866Y-107550523D02*
X93259247Y-107598142D01*
X93259247Y-107598142D02*
X93211628Y-107693380D01*
X93211628Y-107693380D02*
X93164009Y-107883856D01*
X93164009Y-107883856D02*
X93116390Y-107979094D01*
X93116390Y-107979094D02*
X93068771Y-108026713D01*
X93068771Y-108026713D02*
X92973533Y-108074332D01*
X92973533Y-108074332D02*
X92878295Y-108074332D01*
X92878295Y-108074332D02*
X92783057Y-108026713D01*
X92783057Y-108026713D02*
X92735438Y-107979094D01*
X92735438Y-107979094D02*
X92687819Y-107883856D01*
X92687819Y-107883856D02*
X92687819Y-107645761D01*
X92687819Y-107645761D02*
X92735438Y-107502904D01*
X92687819Y-107169570D02*
X93687819Y-106931475D01*
X93687819Y-106931475D02*
X92973533Y-106740999D01*
X92973533Y-106740999D02*
X93687819Y-106550523D01*
X93687819Y-106550523D02*
X92687819Y-106312428D01*
X93687819Y-105883856D02*
X93687819Y-105693380D01*
X93687819Y-105693380D02*
X93640200Y-105598142D01*
X93640200Y-105598142D02*
X93592580Y-105550523D01*
X93592580Y-105550523D02*
X93449723Y-105455285D01*
X93449723Y-105455285D02*
X93259247Y-105407666D01*
X93259247Y-105407666D02*
X92878295Y-105407666D01*
X92878295Y-105407666D02*
X92783057Y-105455285D01*
X92783057Y-105455285D02*
X92735438Y-105502904D01*
X92735438Y-105502904D02*
X92687819Y-105598142D01*
X92687819Y-105598142D02*
X92687819Y-105788618D01*
X92687819Y-105788618D02*
X92735438Y-105883856D01*
X92735438Y-105883856D02*
X92783057Y-105931475D01*
X92783057Y-105931475D02*
X92878295Y-105979094D01*
X92878295Y-105979094D02*
X93116390Y-105979094D01*
X93116390Y-105979094D02*
X93211628Y-105931475D01*
X93211628Y-105931475D02*
X93259247Y-105883856D01*
X93259247Y-105883856D02*
X93306866Y-105788618D01*
X93306866Y-105788618D02*
X93306866Y-105598142D01*
X93306866Y-105598142D02*
X93259247Y-105502904D01*
X93259247Y-105502904D02*
X93211628Y-105455285D01*
X93211628Y-105455285D02*
X93116390Y-105407666D01*
X137459428Y-31788057D02*
X137364190Y-31740438D01*
X137364190Y-31740438D02*
X137268952Y-31645200D01*
X137268952Y-31645200D02*
X137126095Y-31502342D01*
X137126095Y-31502342D02*
X137030857Y-31454723D01*
X137030857Y-31454723D02*
X136935619Y-31454723D01*
X136983238Y-31692819D02*
X136888000Y-31645200D01*
X136888000Y-31645200D02*
X136792762Y-31549961D01*
X136792762Y-31549961D02*
X136745143Y-31359485D01*
X136745143Y-31359485D02*
X136745143Y-31026152D01*
X136745143Y-31026152D02*
X136792762Y-30835676D01*
X136792762Y-30835676D02*
X136888000Y-30740438D01*
X136888000Y-30740438D02*
X136983238Y-30692819D01*
X136983238Y-30692819D02*
X137173714Y-30692819D01*
X137173714Y-30692819D02*
X137268952Y-30740438D01*
X137268952Y-30740438D02*
X137364190Y-30835676D01*
X137364190Y-30835676D02*
X137411809Y-31026152D01*
X137411809Y-31026152D02*
X137411809Y-31359485D01*
X137411809Y-31359485D02*
X137364190Y-31549961D01*
X137364190Y-31549961D02*
X137268952Y-31645200D01*
X137268952Y-31645200D02*
X137173714Y-31692819D01*
X137173714Y-31692819D02*
X136983238Y-31692819D01*
X138364190Y-31692819D02*
X137792762Y-31692819D01*
X138078476Y-31692819D02*
X138078476Y-30692819D01*
X138078476Y-30692819D02*
X137983238Y-30835676D01*
X137983238Y-30835676D02*
X137888000Y-30930914D01*
X137888000Y-30930914D02*
X137792762Y-30978533D01*
X138983238Y-30692819D02*
X139078476Y-30692819D01*
X139078476Y-30692819D02*
X139173714Y-30740438D01*
X139173714Y-30740438D02*
X139221333Y-30788057D01*
X139221333Y-30788057D02*
X139268952Y-30883295D01*
X139268952Y-30883295D02*
X139316571Y-31073771D01*
X139316571Y-31073771D02*
X139316571Y-31311866D01*
X139316571Y-31311866D02*
X139268952Y-31502342D01*
X139268952Y-31502342D02*
X139221333Y-31597580D01*
X139221333Y-31597580D02*
X139173714Y-31645200D01*
X139173714Y-31645200D02*
X139078476Y-31692819D01*
X139078476Y-31692819D02*
X138983238Y-31692819D01*
X138983238Y-31692819D02*
X138888000Y-31645200D01*
X138888000Y-31645200D02*
X138840381Y-31597580D01*
X138840381Y-31597580D02*
X138792762Y-31502342D01*
X138792762Y-31502342D02*
X138745143Y-31311866D01*
X138745143Y-31311866D02*
X138745143Y-31073771D01*
X138745143Y-31073771D02*
X138792762Y-30883295D01*
X138792762Y-30883295D02*
X138840381Y-30788057D01*
X138840381Y-30788057D02*
X138888000Y-30740438D01*
X138888000Y-30740438D02*
X138983238Y-30692819D01*
X81043819Y-63499904D02*
X81853342Y-63499904D01*
X81853342Y-63499904D02*
X81948580Y-63452285D01*
X81948580Y-63452285D02*
X81996200Y-63404666D01*
X81996200Y-63404666D02*
X82043819Y-63309428D01*
X82043819Y-63309428D02*
X82043819Y-63118952D01*
X82043819Y-63118952D02*
X81996200Y-63023714D01*
X81996200Y-63023714D02*
X81948580Y-62976095D01*
X81948580Y-62976095D02*
X81853342Y-62928476D01*
X81853342Y-62928476D02*
X81043819Y-62928476D01*
X81043819Y-61976095D02*
X81043819Y-62452285D01*
X81043819Y-62452285D02*
X81520009Y-62499904D01*
X81520009Y-62499904D02*
X81472390Y-62452285D01*
X81472390Y-62452285D02*
X81424771Y-62357047D01*
X81424771Y-62357047D02*
X81424771Y-62118952D01*
X81424771Y-62118952D02*
X81472390Y-62023714D01*
X81472390Y-62023714D02*
X81520009Y-61976095D01*
X81520009Y-61976095D02*
X81615247Y-61928476D01*
X81615247Y-61928476D02*
X81853342Y-61928476D01*
X81853342Y-61928476D02*
X81948580Y-61976095D01*
X81948580Y-61976095D02*
X81996200Y-62023714D01*
X81996200Y-62023714D02*
X82043819Y-62118952D01*
X82043819Y-62118952D02*
X82043819Y-62357047D01*
X82043819Y-62357047D02*
X81996200Y-62452285D01*
X81996200Y-62452285D02*
X81948580Y-62499904D01*
X168841200Y-79629523D02*
X168888819Y-79486666D01*
X168888819Y-79486666D02*
X168888819Y-79248571D01*
X168888819Y-79248571D02*
X168841200Y-79153333D01*
X168841200Y-79153333D02*
X168793580Y-79105714D01*
X168793580Y-79105714D02*
X168698342Y-79058095D01*
X168698342Y-79058095D02*
X168603104Y-79058095D01*
X168603104Y-79058095D02*
X168507866Y-79105714D01*
X168507866Y-79105714D02*
X168460247Y-79153333D01*
X168460247Y-79153333D02*
X168412628Y-79248571D01*
X168412628Y-79248571D02*
X168365009Y-79439047D01*
X168365009Y-79439047D02*
X168317390Y-79534285D01*
X168317390Y-79534285D02*
X168269771Y-79581904D01*
X168269771Y-79581904D02*
X168174533Y-79629523D01*
X168174533Y-79629523D02*
X168079295Y-79629523D01*
X168079295Y-79629523D02*
X167984057Y-79581904D01*
X167984057Y-79581904D02*
X167936438Y-79534285D01*
X167936438Y-79534285D02*
X167888819Y-79439047D01*
X167888819Y-79439047D02*
X167888819Y-79200952D01*
X167888819Y-79200952D02*
X167936438Y-79058095D01*
X167888819Y-78724761D02*
X168888819Y-78486666D01*
X168888819Y-78486666D02*
X168174533Y-78296190D01*
X168174533Y-78296190D02*
X168888819Y-78105714D01*
X168888819Y-78105714D02*
X167888819Y-77867619D01*
X168222152Y-77058095D02*
X168888819Y-77058095D01*
X167841200Y-77296190D02*
X168555485Y-77534285D01*
X168555485Y-77534285D02*
X168555485Y-76915238D01*
X168888819Y-76010476D02*
X168888819Y-76581904D01*
X168888819Y-76296190D02*
X167888819Y-76296190D01*
X167888819Y-76296190D02*
X168031676Y-76391428D01*
X168031676Y-76391428D02*
X168126914Y-76486666D01*
X168126914Y-76486666D02*
X168174533Y-76581904D01*
X130968761Y-31788057D02*
X130873523Y-31740438D01*
X130873523Y-31740438D02*
X130778285Y-31645200D01*
X130778285Y-31645200D02*
X130635428Y-31502342D01*
X130635428Y-31502342D02*
X130540190Y-31454723D01*
X130540190Y-31454723D02*
X130444952Y-31454723D01*
X130492571Y-31692819D02*
X130397333Y-31645200D01*
X130397333Y-31645200D02*
X130302095Y-31549961D01*
X130302095Y-31549961D02*
X130254476Y-31359485D01*
X130254476Y-31359485D02*
X130254476Y-31026152D01*
X130254476Y-31026152D02*
X130302095Y-30835676D01*
X130302095Y-30835676D02*
X130397333Y-30740438D01*
X130397333Y-30740438D02*
X130492571Y-30692819D01*
X130492571Y-30692819D02*
X130683047Y-30692819D01*
X130683047Y-30692819D02*
X130778285Y-30740438D01*
X130778285Y-30740438D02*
X130873523Y-30835676D01*
X130873523Y-30835676D02*
X130921142Y-31026152D01*
X130921142Y-31026152D02*
X130921142Y-31359485D01*
X130921142Y-31359485D02*
X130873523Y-31549961D01*
X130873523Y-31549961D02*
X130778285Y-31645200D01*
X130778285Y-31645200D02*
X130683047Y-31692819D01*
X130683047Y-31692819D02*
X130492571Y-31692819D01*
X131397333Y-31692819D02*
X131587809Y-31692819D01*
X131587809Y-31692819D02*
X131683047Y-31645200D01*
X131683047Y-31645200D02*
X131730666Y-31597580D01*
X131730666Y-31597580D02*
X131825904Y-31454723D01*
X131825904Y-31454723D02*
X131873523Y-31264247D01*
X131873523Y-31264247D02*
X131873523Y-30883295D01*
X131873523Y-30883295D02*
X131825904Y-30788057D01*
X131825904Y-30788057D02*
X131778285Y-30740438D01*
X131778285Y-30740438D02*
X131683047Y-30692819D01*
X131683047Y-30692819D02*
X131492571Y-30692819D01*
X131492571Y-30692819D02*
X131397333Y-30740438D01*
X131397333Y-30740438D02*
X131349714Y-30788057D01*
X131349714Y-30788057D02*
X131302095Y-30883295D01*
X131302095Y-30883295D02*
X131302095Y-31121390D01*
X131302095Y-31121390D02*
X131349714Y-31216628D01*
X131349714Y-31216628D02*
X131397333Y-31264247D01*
X131397333Y-31264247D02*
X131492571Y-31311866D01*
X131492571Y-31311866D02*
X131683047Y-31311866D01*
X131683047Y-31311866D02*
X131778285Y-31264247D01*
X131778285Y-31264247D02*
X131825904Y-31216628D01*
X131825904Y-31216628D02*
X131873523Y-31121390D01*
X156124200Y-79594523D02*
X156171819Y-79451666D01*
X156171819Y-79451666D02*
X156171819Y-79213571D01*
X156171819Y-79213571D02*
X156124200Y-79118333D01*
X156124200Y-79118333D02*
X156076580Y-79070714D01*
X156076580Y-79070714D02*
X155981342Y-79023095D01*
X155981342Y-79023095D02*
X155886104Y-79023095D01*
X155886104Y-79023095D02*
X155790866Y-79070714D01*
X155790866Y-79070714D02*
X155743247Y-79118333D01*
X155743247Y-79118333D02*
X155695628Y-79213571D01*
X155695628Y-79213571D02*
X155648009Y-79404047D01*
X155648009Y-79404047D02*
X155600390Y-79499285D01*
X155600390Y-79499285D02*
X155552771Y-79546904D01*
X155552771Y-79546904D02*
X155457533Y-79594523D01*
X155457533Y-79594523D02*
X155362295Y-79594523D01*
X155362295Y-79594523D02*
X155267057Y-79546904D01*
X155267057Y-79546904D02*
X155219438Y-79499285D01*
X155219438Y-79499285D02*
X155171819Y-79404047D01*
X155171819Y-79404047D02*
X155171819Y-79165952D01*
X155171819Y-79165952D02*
X155219438Y-79023095D01*
X155171819Y-78689761D02*
X156171819Y-78451666D01*
X156171819Y-78451666D02*
X155457533Y-78261190D01*
X155457533Y-78261190D02*
X156171819Y-78070714D01*
X156171819Y-78070714D02*
X155171819Y-77832619D01*
X155171819Y-77546904D02*
X155171819Y-76927857D01*
X155171819Y-76927857D02*
X155552771Y-77261190D01*
X155552771Y-77261190D02*
X155552771Y-77118333D01*
X155552771Y-77118333D02*
X155600390Y-77023095D01*
X155600390Y-77023095D02*
X155648009Y-76975476D01*
X155648009Y-76975476D02*
X155743247Y-76927857D01*
X155743247Y-76927857D02*
X155981342Y-76927857D01*
X155981342Y-76927857D02*
X156076580Y-76975476D01*
X156076580Y-76975476D02*
X156124200Y-77023095D01*
X156124200Y-77023095D02*
X156171819Y-77118333D01*
X156171819Y-77118333D02*
X156171819Y-77404047D01*
X156171819Y-77404047D02*
X156124200Y-77499285D01*
X156124200Y-77499285D02*
X156076580Y-77546904D01*
X155171819Y-76070714D02*
X155171819Y-76261190D01*
X155171819Y-76261190D02*
X155219438Y-76356428D01*
X155219438Y-76356428D02*
X155267057Y-76404047D01*
X155267057Y-76404047D02*
X155409914Y-76499285D01*
X155409914Y-76499285D02*
X155600390Y-76546904D01*
X155600390Y-76546904D02*
X155981342Y-76546904D01*
X155981342Y-76546904D02*
X156076580Y-76499285D01*
X156076580Y-76499285D02*
X156124200Y-76451666D01*
X156124200Y-76451666D02*
X156171819Y-76356428D01*
X156171819Y-76356428D02*
X156171819Y-76165952D01*
X156171819Y-76165952D02*
X156124200Y-76070714D01*
X156124200Y-76070714D02*
X156076580Y-76023095D01*
X156076580Y-76023095D02*
X155981342Y-75975476D01*
X155981342Y-75975476D02*
X155743247Y-75975476D01*
X155743247Y-75975476D02*
X155648009Y-76023095D01*
X155648009Y-76023095D02*
X155600390Y-76070714D01*
X155600390Y-76070714D02*
X155552771Y-76165952D01*
X155552771Y-76165952D02*
X155552771Y-76356428D01*
X155552771Y-76356428D02*
X155600390Y-76451666D01*
X155600390Y-76451666D02*
X155648009Y-76499285D01*
X155648009Y-76499285D02*
X155743247Y-76546904D01*
X106340200Y-93945523D02*
X106387819Y-93802666D01*
X106387819Y-93802666D02*
X106387819Y-93564571D01*
X106387819Y-93564571D02*
X106340200Y-93469333D01*
X106340200Y-93469333D02*
X106292580Y-93421714D01*
X106292580Y-93421714D02*
X106197342Y-93374095D01*
X106197342Y-93374095D02*
X106102104Y-93374095D01*
X106102104Y-93374095D02*
X106006866Y-93421714D01*
X106006866Y-93421714D02*
X105959247Y-93469333D01*
X105959247Y-93469333D02*
X105911628Y-93564571D01*
X105911628Y-93564571D02*
X105864009Y-93755047D01*
X105864009Y-93755047D02*
X105816390Y-93850285D01*
X105816390Y-93850285D02*
X105768771Y-93897904D01*
X105768771Y-93897904D02*
X105673533Y-93945523D01*
X105673533Y-93945523D02*
X105578295Y-93945523D01*
X105578295Y-93945523D02*
X105483057Y-93897904D01*
X105483057Y-93897904D02*
X105435438Y-93850285D01*
X105435438Y-93850285D02*
X105387819Y-93755047D01*
X105387819Y-93755047D02*
X105387819Y-93516952D01*
X105387819Y-93516952D02*
X105435438Y-93374095D01*
X105387819Y-93040761D02*
X106387819Y-92802666D01*
X106387819Y-92802666D02*
X105673533Y-92612190D01*
X105673533Y-92612190D02*
X106387819Y-92421714D01*
X106387819Y-92421714D02*
X105387819Y-92183619D01*
X106387819Y-91278857D02*
X106387819Y-91850285D01*
X106387819Y-91564571D02*
X105387819Y-91564571D01*
X105387819Y-91564571D02*
X105530676Y-91659809D01*
X105530676Y-91659809D02*
X105625914Y-91755047D01*
X105625914Y-91755047D02*
X105673533Y-91850285D01*
X105387819Y-90374095D02*
X105387819Y-90850285D01*
X105387819Y-90850285D02*
X105864009Y-90897904D01*
X105864009Y-90897904D02*
X105816390Y-90850285D01*
X105816390Y-90850285D02*
X105768771Y-90755047D01*
X105768771Y-90755047D02*
X105768771Y-90516952D01*
X105768771Y-90516952D02*
X105816390Y-90421714D01*
X105816390Y-90421714D02*
X105864009Y-90374095D01*
X105864009Y-90374095D02*
X105959247Y-90326476D01*
X105959247Y-90326476D02*
X106197342Y-90326476D01*
X106197342Y-90326476D02*
X106292580Y-90374095D01*
X106292580Y-90374095D02*
X106340200Y-90421714D01*
X106340200Y-90421714D02*
X106387819Y-90516952D01*
X106387819Y-90516952D02*
X106387819Y-90755047D01*
X106387819Y-90755047D02*
X106340200Y-90850285D01*
X106340200Y-90850285D02*
X106292580Y-90897904D01*
X114031819Y-53157285D02*
X113031819Y-53157285D01*
X113031819Y-53157285D02*
X113031819Y-52919190D01*
X113031819Y-52919190D02*
X113079438Y-52776333D01*
X113079438Y-52776333D02*
X113174676Y-52681095D01*
X113174676Y-52681095D02*
X113269914Y-52633476D01*
X113269914Y-52633476D02*
X113460390Y-52585857D01*
X113460390Y-52585857D02*
X113603247Y-52585857D01*
X113603247Y-52585857D02*
X113793723Y-52633476D01*
X113793723Y-52633476D02*
X113888961Y-52681095D01*
X113888961Y-52681095D02*
X113984200Y-52776333D01*
X113984200Y-52776333D02*
X114031819Y-52919190D01*
X114031819Y-52919190D02*
X114031819Y-53157285D01*
X114031819Y-51633476D02*
X114031819Y-52204904D01*
X114031819Y-51919190D02*
X113031819Y-51919190D01*
X113031819Y-51919190D02*
X113174676Y-52014428D01*
X113174676Y-52014428D02*
X113269914Y-52109666D01*
X113269914Y-52109666D02*
X113317533Y-52204904D01*
X113365152Y-50776333D02*
X114031819Y-50776333D01*
X112984200Y-51014428D02*
X113698485Y-51252523D01*
X113698485Y-51252523D02*
X113698485Y-50633476D01*
X128255819Y-53157285D02*
X127255819Y-53157285D01*
X127255819Y-53157285D02*
X127255819Y-52919190D01*
X127255819Y-52919190D02*
X127303438Y-52776333D01*
X127303438Y-52776333D02*
X127398676Y-52681095D01*
X127398676Y-52681095D02*
X127493914Y-52633476D01*
X127493914Y-52633476D02*
X127684390Y-52585857D01*
X127684390Y-52585857D02*
X127827247Y-52585857D01*
X127827247Y-52585857D02*
X128017723Y-52633476D01*
X128017723Y-52633476D02*
X128112961Y-52681095D01*
X128112961Y-52681095D02*
X128208200Y-52776333D01*
X128208200Y-52776333D02*
X128255819Y-52919190D01*
X128255819Y-52919190D02*
X128255819Y-53157285D01*
X128255819Y-51633476D02*
X128255819Y-52204904D01*
X128255819Y-51919190D02*
X127255819Y-51919190D01*
X127255819Y-51919190D02*
X127398676Y-52014428D01*
X127398676Y-52014428D02*
X127493914Y-52109666D01*
X127493914Y-52109666D02*
X127541533Y-52204904D01*
X127255819Y-50776333D02*
X127255819Y-50966809D01*
X127255819Y-50966809D02*
X127303438Y-51062047D01*
X127303438Y-51062047D02*
X127351057Y-51109666D01*
X127351057Y-51109666D02*
X127493914Y-51204904D01*
X127493914Y-51204904D02*
X127684390Y-51252523D01*
X127684390Y-51252523D02*
X128065342Y-51252523D01*
X128065342Y-51252523D02*
X128160580Y-51204904D01*
X128160580Y-51204904D02*
X128208200Y-51157285D01*
X128208200Y-51157285D02*
X128255819Y-51062047D01*
X128255819Y-51062047D02*
X128255819Y-50871571D01*
X128255819Y-50871571D02*
X128208200Y-50776333D01*
X128208200Y-50776333D02*
X128160580Y-50728714D01*
X128160580Y-50728714D02*
X128065342Y-50681095D01*
X128065342Y-50681095D02*
X127827247Y-50681095D01*
X127827247Y-50681095D02*
X127732009Y-50728714D01*
X127732009Y-50728714D02*
X127684390Y-50776333D01*
X127684390Y-50776333D02*
X127636771Y-50871571D01*
X127636771Y-50871571D02*
X127636771Y-51062047D01*
X127636771Y-51062047D02*
X127684390Y-51157285D01*
X127684390Y-51157285D02*
X127732009Y-51204904D01*
X127732009Y-51204904D02*
X127827247Y-51252523D01*
X120633819Y-44026857D02*
X120157628Y-44360190D01*
X120633819Y-44598285D02*
X119633819Y-44598285D01*
X119633819Y-44598285D02*
X119633819Y-44217333D01*
X119633819Y-44217333D02*
X119681438Y-44122095D01*
X119681438Y-44122095D02*
X119729057Y-44074476D01*
X119729057Y-44074476D02*
X119824295Y-44026857D01*
X119824295Y-44026857D02*
X119967152Y-44026857D01*
X119967152Y-44026857D02*
X120062390Y-44074476D01*
X120062390Y-44074476D02*
X120110009Y-44122095D01*
X120110009Y-44122095D02*
X120157628Y-44217333D01*
X120157628Y-44217333D02*
X120157628Y-44598285D01*
X119633819Y-43693523D02*
X119633819Y-43074476D01*
X119633819Y-43074476D02*
X120014771Y-43407809D01*
X120014771Y-43407809D02*
X120014771Y-43264952D01*
X120014771Y-43264952D02*
X120062390Y-43169714D01*
X120062390Y-43169714D02*
X120110009Y-43122095D01*
X120110009Y-43122095D02*
X120205247Y-43074476D01*
X120205247Y-43074476D02*
X120443342Y-43074476D01*
X120443342Y-43074476D02*
X120538580Y-43122095D01*
X120538580Y-43122095D02*
X120586200Y-43169714D01*
X120586200Y-43169714D02*
X120633819Y-43264952D01*
X120633819Y-43264952D02*
X120633819Y-43550666D01*
X120633819Y-43550666D02*
X120586200Y-43645904D01*
X120586200Y-43645904D02*
X120538580Y-43693523D01*
X120633819Y-42122095D02*
X120633819Y-42693523D01*
X120633819Y-42407809D02*
X119633819Y-42407809D01*
X119633819Y-42407809D02*
X119776676Y-42503047D01*
X119776676Y-42503047D02*
X119871914Y-42598285D01*
X119871914Y-42598285D02*
X119919533Y-42693523D01*
X164887200Y-63878332D02*
X164934819Y-63735475D01*
X164934819Y-63735475D02*
X164934819Y-63497380D01*
X164934819Y-63497380D02*
X164887200Y-63402142D01*
X164887200Y-63402142D02*
X164839580Y-63354523D01*
X164839580Y-63354523D02*
X164744342Y-63306904D01*
X164744342Y-63306904D02*
X164649104Y-63306904D01*
X164649104Y-63306904D02*
X164553866Y-63354523D01*
X164553866Y-63354523D02*
X164506247Y-63402142D01*
X164506247Y-63402142D02*
X164458628Y-63497380D01*
X164458628Y-63497380D02*
X164411009Y-63687856D01*
X164411009Y-63687856D02*
X164363390Y-63783094D01*
X164363390Y-63783094D02*
X164315771Y-63830713D01*
X164315771Y-63830713D02*
X164220533Y-63878332D01*
X164220533Y-63878332D02*
X164125295Y-63878332D01*
X164125295Y-63878332D02*
X164030057Y-63830713D01*
X164030057Y-63830713D02*
X163982438Y-63783094D01*
X163982438Y-63783094D02*
X163934819Y-63687856D01*
X163934819Y-63687856D02*
X163934819Y-63449761D01*
X163934819Y-63449761D02*
X163982438Y-63306904D01*
X163934819Y-62973570D02*
X164934819Y-62735475D01*
X164934819Y-62735475D02*
X164220533Y-62544999D01*
X164220533Y-62544999D02*
X164934819Y-62354523D01*
X164934819Y-62354523D02*
X163934819Y-62116428D01*
X164030057Y-61783094D02*
X163982438Y-61735475D01*
X163982438Y-61735475D02*
X163934819Y-61640237D01*
X163934819Y-61640237D02*
X163934819Y-61402142D01*
X163934819Y-61402142D02*
X163982438Y-61306904D01*
X163982438Y-61306904D02*
X164030057Y-61259285D01*
X164030057Y-61259285D02*
X164125295Y-61211666D01*
X164125295Y-61211666D02*
X164220533Y-61211666D01*
X164220533Y-61211666D02*
X164363390Y-61259285D01*
X164363390Y-61259285D02*
X164934819Y-61830713D01*
X164934819Y-61830713D02*
X164934819Y-61211666D01*
X168807200Y-93980523D02*
X168854819Y-93837666D01*
X168854819Y-93837666D02*
X168854819Y-93599571D01*
X168854819Y-93599571D02*
X168807200Y-93504333D01*
X168807200Y-93504333D02*
X168759580Y-93456714D01*
X168759580Y-93456714D02*
X168664342Y-93409095D01*
X168664342Y-93409095D02*
X168569104Y-93409095D01*
X168569104Y-93409095D02*
X168473866Y-93456714D01*
X168473866Y-93456714D02*
X168426247Y-93504333D01*
X168426247Y-93504333D02*
X168378628Y-93599571D01*
X168378628Y-93599571D02*
X168331009Y-93790047D01*
X168331009Y-93790047D02*
X168283390Y-93885285D01*
X168283390Y-93885285D02*
X168235771Y-93932904D01*
X168235771Y-93932904D02*
X168140533Y-93980523D01*
X168140533Y-93980523D02*
X168045295Y-93980523D01*
X168045295Y-93980523D02*
X167950057Y-93932904D01*
X167950057Y-93932904D02*
X167902438Y-93885285D01*
X167902438Y-93885285D02*
X167854819Y-93790047D01*
X167854819Y-93790047D02*
X167854819Y-93551952D01*
X167854819Y-93551952D02*
X167902438Y-93409095D01*
X167854819Y-93075761D02*
X168854819Y-92837666D01*
X168854819Y-92837666D02*
X168140533Y-92647190D01*
X168140533Y-92647190D02*
X168854819Y-92456714D01*
X168854819Y-92456714D02*
X167854819Y-92218619D01*
X168188152Y-91409095D02*
X168854819Y-91409095D01*
X167807200Y-91647190D02*
X168521485Y-91885285D01*
X168521485Y-91885285D02*
X168521485Y-91266238D01*
X167854819Y-90694809D02*
X167854819Y-90599571D01*
X167854819Y-90599571D02*
X167902438Y-90504333D01*
X167902438Y-90504333D02*
X167950057Y-90456714D01*
X167950057Y-90456714D02*
X168045295Y-90409095D01*
X168045295Y-90409095D02*
X168235771Y-90361476D01*
X168235771Y-90361476D02*
X168473866Y-90361476D01*
X168473866Y-90361476D02*
X168664342Y-90409095D01*
X168664342Y-90409095D02*
X168759580Y-90456714D01*
X168759580Y-90456714D02*
X168807200Y-90504333D01*
X168807200Y-90504333D02*
X168854819Y-90599571D01*
X168854819Y-90599571D02*
X168854819Y-90694809D01*
X168854819Y-90694809D02*
X168807200Y-90790047D01*
X168807200Y-90790047D02*
X168759580Y-90837666D01*
X168759580Y-90837666D02*
X168664342Y-90885285D01*
X168664342Y-90885285D02*
X168473866Y-90932904D01*
X168473866Y-90932904D02*
X168235771Y-90932904D01*
X168235771Y-90932904D02*
X168045295Y-90885285D01*
X168045295Y-90885285D02*
X167950057Y-90837666D01*
X167950057Y-90837666D02*
X167902438Y-90790047D01*
X167902438Y-90790047D02*
X167854819Y-90694809D01*
X118532200Y-123028523D02*
X118579819Y-122885666D01*
X118579819Y-122885666D02*
X118579819Y-122647571D01*
X118579819Y-122647571D02*
X118532200Y-122552333D01*
X118532200Y-122552333D02*
X118484580Y-122504714D01*
X118484580Y-122504714D02*
X118389342Y-122457095D01*
X118389342Y-122457095D02*
X118294104Y-122457095D01*
X118294104Y-122457095D02*
X118198866Y-122504714D01*
X118198866Y-122504714D02*
X118151247Y-122552333D01*
X118151247Y-122552333D02*
X118103628Y-122647571D01*
X118103628Y-122647571D02*
X118056009Y-122838047D01*
X118056009Y-122838047D02*
X118008390Y-122933285D01*
X118008390Y-122933285D02*
X117960771Y-122980904D01*
X117960771Y-122980904D02*
X117865533Y-123028523D01*
X117865533Y-123028523D02*
X117770295Y-123028523D01*
X117770295Y-123028523D02*
X117675057Y-122980904D01*
X117675057Y-122980904D02*
X117627438Y-122933285D01*
X117627438Y-122933285D02*
X117579819Y-122838047D01*
X117579819Y-122838047D02*
X117579819Y-122599952D01*
X117579819Y-122599952D02*
X117627438Y-122457095D01*
X117579819Y-122123761D02*
X118579819Y-121885666D01*
X118579819Y-121885666D02*
X117865533Y-121695190D01*
X117865533Y-121695190D02*
X118579819Y-121504714D01*
X118579819Y-121504714D02*
X117579819Y-121266619D01*
X118579819Y-120361857D02*
X118579819Y-120933285D01*
X118579819Y-120647571D02*
X117579819Y-120647571D01*
X117579819Y-120647571D02*
X117722676Y-120742809D01*
X117722676Y-120742809D02*
X117817914Y-120838047D01*
X117817914Y-120838047D02*
X117865533Y-120933285D01*
X118008390Y-119790428D02*
X117960771Y-119885666D01*
X117960771Y-119885666D02*
X117913152Y-119933285D01*
X117913152Y-119933285D02*
X117817914Y-119980904D01*
X117817914Y-119980904D02*
X117770295Y-119980904D01*
X117770295Y-119980904D02*
X117675057Y-119933285D01*
X117675057Y-119933285D02*
X117627438Y-119885666D01*
X117627438Y-119885666D02*
X117579819Y-119790428D01*
X117579819Y-119790428D02*
X117579819Y-119599952D01*
X117579819Y-119599952D02*
X117627438Y-119504714D01*
X117627438Y-119504714D02*
X117675057Y-119457095D01*
X117675057Y-119457095D02*
X117770295Y-119409476D01*
X117770295Y-119409476D02*
X117817914Y-119409476D01*
X117817914Y-119409476D02*
X117913152Y-119457095D01*
X117913152Y-119457095D02*
X117960771Y-119504714D01*
X117960771Y-119504714D02*
X118008390Y-119599952D01*
X118008390Y-119599952D02*
X118008390Y-119790428D01*
X118008390Y-119790428D02*
X118056009Y-119885666D01*
X118056009Y-119885666D02*
X118103628Y-119933285D01*
X118103628Y-119933285D02*
X118198866Y-119980904D01*
X118198866Y-119980904D02*
X118389342Y-119980904D01*
X118389342Y-119980904D02*
X118484580Y-119933285D01*
X118484580Y-119933285D02*
X118532200Y-119885666D01*
X118532200Y-119885666D02*
X118579819Y-119790428D01*
X118579819Y-119790428D02*
X118579819Y-119599952D01*
X118579819Y-119599952D02*
X118532200Y-119504714D01*
X118532200Y-119504714D02*
X118484580Y-119457095D01*
X118484580Y-119457095D02*
X118389342Y-119409476D01*
X118389342Y-119409476D02*
X118198866Y-119409476D01*
X118198866Y-119409476D02*
X118103628Y-119457095D01*
X118103628Y-119457095D02*
X118056009Y-119504714D01*
X118056009Y-119504714D02*
X118008390Y-119599952D01*
X128154761Y-132040057D02*
X128059523Y-131992438D01*
X128059523Y-131992438D02*
X127964285Y-131897200D01*
X127964285Y-131897200D02*
X127821428Y-131754342D01*
X127821428Y-131754342D02*
X127726190Y-131706723D01*
X127726190Y-131706723D02*
X127630952Y-131706723D01*
X127678571Y-131944819D02*
X127583333Y-131897200D01*
X127583333Y-131897200D02*
X127488095Y-131801961D01*
X127488095Y-131801961D02*
X127440476Y-131611485D01*
X127440476Y-131611485D02*
X127440476Y-131278152D01*
X127440476Y-131278152D02*
X127488095Y-131087676D01*
X127488095Y-131087676D02*
X127583333Y-130992438D01*
X127583333Y-130992438D02*
X127678571Y-130944819D01*
X127678571Y-130944819D02*
X127869047Y-130944819D01*
X127869047Y-130944819D02*
X127964285Y-130992438D01*
X127964285Y-130992438D02*
X128059523Y-131087676D01*
X128059523Y-131087676D02*
X128107142Y-131278152D01*
X128107142Y-131278152D02*
X128107142Y-131611485D01*
X128107142Y-131611485D02*
X128059523Y-131801961D01*
X128059523Y-131801961D02*
X127964285Y-131897200D01*
X127964285Y-131897200D02*
X127869047Y-131944819D01*
X127869047Y-131944819D02*
X127678571Y-131944819D01*
X128440476Y-130944819D02*
X129059523Y-130944819D01*
X129059523Y-130944819D02*
X128726190Y-131325771D01*
X128726190Y-131325771D02*
X128869047Y-131325771D01*
X128869047Y-131325771D02*
X128964285Y-131373390D01*
X128964285Y-131373390D02*
X129011904Y-131421009D01*
X129011904Y-131421009D02*
X129059523Y-131516247D01*
X129059523Y-131516247D02*
X129059523Y-131754342D01*
X129059523Y-131754342D02*
X129011904Y-131849580D01*
X129011904Y-131849580D02*
X128964285Y-131897200D01*
X128964285Y-131897200D02*
X128869047Y-131944819D01*
X128869047Y-131944819D02*
X128583333Y-131944819D01*
X128583333Y-131944819D02*
X128488095Y-131897200D01*
X128488095Y-131897200D02*
X128440476Y-131849580D01*
X155997200Y-123028523D02*
X156044819Y-122885666D01*
X156044819Y-122885666D02*
X156044819Y-122647571D01*
X156044819Y-122647571D02*
X155997200Y-122552333D01*
X155997200Y-122552333D02*
X155949580Y-122504714D01*
X155949580Y-122504714D02*
X155854342Y-122457095D01*
X155854342Y-122457095D02*
X155759104Y-122457095D01*
X155759104Y-122457095D02*
X155663866Y-122504714D01*
X155663866Y-122504714D02*
X155616247Y-122552333D01*
X155616247Y-122552333D02*
X155568628Y-122647571D01*
X155568628Y-122647571D02*
X155521009Y-122838047D01*
X155521009Y-122838047D02*
X155473390Y-122933285D01*
X155473390Y-122933285D02*
X155425771Y-122980904D01*
X155425771Y-122980904D02*
X155330533Y-123028523D01*
X155330533Y-123028523D02*
X155235295Y-123028523D01*
X155235295Y-123028523D02*
X155140057Y-122980904D01*
X155140057Y-122980904D02*
X155092438Y-122933285D01*
X155092438Y-122933285D02*
X155044819Y-122838047D01*
X155044819Y-122838047D02*
X155044819Y-122599952D01*
X155044819Y-122599952D02*
X155092438Y-122457095D01*
X155044819Y-122123761D02*
X156044819Y-121885666D01*
X156044819Y-121885666D02*
X155330533Y-121695190D01*
X155330533Y-121695190D02*
X156044819Y-121504714D01*
X156044819Y-121504714D02*
X155044819Y-121266619D01*
X155044819Y-120980904D02*
X155044819Y-120361857D01*
X155044819Y-120361857D02*
X155425771Y-120695190D01*
X155425771Y-120695190D02*
X155425771Y-120552333D01*
X155425771Y-120552333D02*
X155473390Y-120457095D01*
X155473390Y-120457095D02*
X155521009Y-120409476D01*
X155521009Y-120409476D02*
X155616247Y-120361857D01*
X155616247Y-120361857D02*
X155854342Y-120361857D01*
X155854342Y-120361857D02*
X155949580Y-120409476D01*
X155949580Y-120409476D02*
X155997200Y-120457095D01*
X155997200Y-120457095D02*
X156044819Y-120552333D01*
X156044819Y-120552333D02*
X156044819Y-120838047D01*
X156044819Y-120838047D02*
X155997200Y-120933285D01*
X155997200Y-120933285D02*
X155949580Y-120980904D01*
X155044819Y-120028523D02*
X155044819Y-119409476D01*
X155044819Y-119409476D02*
X155425771Y-119742809D01*
X155425771Y-119742809D02*
X155425771Y-119599952D01*
X155425771Y-119599952D02*
X155473390Y-119504714D01*
X155473390Y-119504714D02*
X155521009Y-119457095D01*
X155521009Y-119457095D02*
X155616247Y-119409476D01*
X155616247Y-119409476D02*
X155854342Y-119409476D01*
X155854342Y-119409476D02*
X155949580Y-119457095D01*
X155949580Y-119457095D02*
X155997200Y-119504714D01*
X155997200Y-119504714D02*
X156044819Y-119599952D01*
X156044819Y-119599952D02*
X156044819Y-119885666D01*
X156044819Y-119885666D02*
X155997200Y-119980904D01*
X155997200Y-119980904D02*
X155949580Y-120028523D01*
X129792811Y-132585080D02*
X129840431Y-132632699D01*
X129840431Y-132632699D02*
X129888050Y-132775556D01*
X129888050Y-132775556D02*
X129888050Y-132870794D01*
X129888050Y-132870794D02*
X129840431Y-133013651D01*
X129840431Y-133013651D02*
X129745192Y-133108889D01*
X129745192Y-133108889D02*
X129649954Y-133156508D01*
X129649954Y-133156508D02*
X129459478Y-133204127D01*
X129459478Y-133204127D02*
X129316621Y-133204127D01*
X129316621Y-133204127D02*
X129126145Y-133156508D01*
X129126145Y-133156508D02*
X129030907Y-133108889D01*
X129030907Y-133108889D02*
X128935669Y-133013651D01*
X128935669Y-133013651D02*
X128888050Y-132870794D01*
X128888050Y-132870794D02*
X128888050Y-132775556D01*
X128888050Y-132775556D02*
X128935669Y-132632699D01*
X128935669Y-132632699D02*
X128983288Y-132585080D01*
X129888050Y-131632699D02*
X129888050Y-132204127D01*
X129888050Y-131918413D02*
X128888050Y-131918413D01*
X128888050Y-131918413D02*
X129030907Y-132013651D01*
X129030907Y-132013651D02*
X129126145Y-132108889D01*
X129126145Y-132108889D02*
X129173764Y-132204127D01*
X129888050Y-130680318D02*
X129888050Y-131251746D01*
X129888050Y-130966032D02*
X128888050Y-130966032D01*
X128888050Y-130966032D02*
X129030907Y-131061270D01*
X129030907Y-131061270D02*
X129126145Y-131156508D01*
X129126145Y-131156508D02*
X129173764Y-131251746D01*
X85132142Y-127439819D02*
X84798809Y-126963628D01*
X84560714Y-127439819D02*
X84560714Y-126439819D01*
X84560714Y-126439819D02*
X84941666Y-126439819D01*
X84941666Y-126439819D02*
X85036904Y-126487438D01*
X85036904Y-126487438D02*
X85084523Y-126535057D01*
X85084523Y-126535057D02*
X85132142Y-126630295D01*
X85132142Y-126630295D02*
X85132142Y-126773152D01*
X85132142Y-126773152D02*
X85084523Y-126868390D01*
X85084523Y-126868390D02*
X85036904Y-126916009D01*
X85036904Y-126916009D02*
X84941666Y-126963628D01*
X84941666Y-126963628D02*
X84560714Y-126963628D01*
X86084523Y-127439819D02*
X85513095Y-127439819D01*
X85798809Y-127439819D02*
X85798809Y-126439819D01*
X85798809Y-126439819D02*
X85703571Y-126582676D01*
X85703571Y-126582676D02*
X85608333Y-126677914D01*
X85608333Y-126677914D02*
X85513095Y-126725533D01*
X86417857Y-126439819D02*
X87084523Y-126439819D01*
X87084523Y-126439819D02*
X86655952Y-127439819D01*
X70954819Y-135421666D02*
X70478628Y-135754999D01*
X70954819Y-135993094D02*
X69954819Y-135993094D01*
X69954819Y-135993094D02*
X69954819Y-135612142D01*
X69954819Y-135612142D02*
X70002438Y-135516904D01*
X70002438Y-135516904D02*
X70050057Y-135469285D01*
X70050057Y-135469285D02*
X70145295Y-135421666D01*
X70145295Y-135421666D02*
X70288152Y-135421666D01*
X70288152Y-135421666D02*
X70383390Y-135469285D01*
X70383390Y-135469285D02*
X70431009Y-135516904D01*
X70431009Y-135516904D02*
X70478628Y-135612142D01*
X70478628Y-135612142D02*
X70478628Y-135993094D01*
X69954819Y-135088332D02*
X69954819Y-134469285D01*
X69954819Y-134469285D02*
X70335771Y-134802618D01*
X70335771Y-134802618D02*
X70335771Y-134659761D01*
X70335771Y-134659761D02*
X70383390Y-134564523D01*
X70383390Y-134564523D02*
X70431009Y-134516904D01*
X70431009Y-134516904D02*
X70526247Y-134469285D01*
X70526247Y-134469285D02*
X70764342Y-134469285D01*
X70764342Y-134469285D02*
X70859580Y-134516904D01*
X70859580Y-134516904D02*
X70907200Y-134564523D01*
X70907200Y-134564523D02*
X70954819Y-134659761D01*
X70954819Y-134659761D02*
X70954819Y-134945475D01*
X70954819Y-134945475D02*
X70907200Y-135040713D01*
X70907200Y-135040713D02*
X70859580Y-135088332D01*
X133233819Y-44026857D02*
X132757628Y-44360190D01*
X133233819Y-44598285D02*
X132233819Y-44598285D01*
X132233819Y-44598285D02*
X132233819Y-44217333D01*
X132233819Y-44217333D02*
X132281438Y-44122095D01*
X132281438Y-44122095D02*
X132329057Y-44074476D01*
X132329057Y-44074476D02*
X132424295Y-44026857D01*
X132424295Y-44026857D02*
X132567152Y-44026857D01*
X132567152Y-44026857D02*
X132662390Y-44074476D01*
X132662390Y-44074476D02*
X132710009Y-44122095D01*
X132710009Y-44122095D02*
X132757628Y-44217333D01*
X132757628Y-44217333D02*
X132757628Y-44598285D01*
X132233819Y-43693523D02*
X132233819Y-43074476D01*
X132233819Y-43074476D02*
X132614771Y-43407809D01*
X132614771Y-43407809D02*
X132614771Y-43264952D01*
X132614771Y-43264952D02*
X132662390Y-43169714D01*
X132662390Y-43169714D02*
X132710009Y-43122095D01*
X132710009Y-43122095D02*
X132805247Y-43074476D01*
X132805247Y-43074476D02*
X133043342Y-43074476D01*
X133043342Y-43074476D02*
X133138580Y-43122095D01*
X133138580Y-43122095D02*
X133186200Y-43169714D01*
X133186200Y-43169714D02*
X133233819Y-43264952D01*
X133233819Y-43264952D02*
X133233819Y-43550666D01*
X133233819Y-43550666D02*
X133186200Y-43645904D01*
X133186200Y-43645904D02*
X133138580Y-43693523D01*
X132233819Y-42169714D02*
X132233819Y-42645904D01*
X132233819Y-42645904D02*
X132710009Y-42693523D01*
X132710009Y-42693523D02*
X132662390Y-42645904D01*
X132662390Y-42645904D02*
X132614771Y-42550666D01*
X132614771Y-42550666D02*
X132614771Y-42312571D01*
X132614771Y-42312571D02*
X132662390Y-42217333D01*
X132662390Y-42217333D02*
X132710009Y-42169714D01*
X132710009Y-42169714D02*
X132805247Y-42122095D01*
X132805247Y-42122095D02*
X133043342Y-42122095D01*
X133043342Y-42122095D02*
X133138580Y-42169714D01*
X133138580Y-42169714D02*
X133186200Y-42217333D01*
X133186200Y-42217333D02*
X133233819Y-42312571D01*
X133233819Y-42312571D02*
X133233819Y-42550666D01*
X133233819Y-42550666D02*
X133186200Y-42645904D01*
X133186200Y-42645904D02*
X133138580Y-42693523D01*
X105649580Y-135421666D02*
X105697200Y-135469285D01*
X105697200Y-135469285D02*
X105744819Y-135612142D01*
X105744819Y-135612142D02*
X105744819Y-135707380D01*
X105744819Y-135707380D02*
X105697200Y-135850237D01*
X105697200Y-135850237D02*
X105601961Y-135945475D01*
X105601961Y-135945475D02*
X105506723Y-135993094D01*
X105506723Y-135993094D02*
X105316247Y-136040713D01*
X105316247Y-136040713D02*
X105173390Y-136040713D01*
X105173390Y-136040713D02*
X104982914Y-135993094D01*
X104982914Y-135993094D02*
X104887676Y-135945475D01*
X104887676Y-135945475D02*
X104792438Y-135850237D01*
X104792438Y-135850237D02*
X104744819Y-135707380D01*
X104744819Y-135707380D02*
X104744819Y-135612142D01*
X104744819Y-135612142D02*
X104792438Y-135469285D01*
X104792438Y-135469285D02*
X104840057Y-135421666D01*
X105078152Y-134564523D02*
X105744819Y-134564523D01*
X104697200Y-134802618D02*
X105411485Y-135040713D01*
X105411485Y-135040713D02*
X105411485Y-134421666D01*
X168697200Y-108550523D02*
X168744819Y-108407666D01*
X168744819Y-108407666D02*
X168744819Y-108169571D01*
X168744819Y-108169571D02*
X168697200Y-108074333D01*
X168697200Y-108074333D02*
X168649580Y-108026714D01*
X168649580Y-108026714D02*
X168554342Y-107979095D01*
X168554342Y-107979095D02*
X168459104Y-107979095D01*
X168459104Y-107979095D02*
X168363866Y-108026714D01*
X168363866Y-108026714D02*
X168316247Y-108074333D01*
X168316247Y-108074333D02*
X168268628Y-108169571D01*
X168268628Y-108169571D02*
X168221009Y-108360047D01*
X168221009Y-108360047D02*
X168173390Y-108455285D01*
X168173390Y-108455285D02*
X168125771Y-108502904D01*
X168125771Y-108502904D02*
X168030533Y-108550523D01*
X168030533Y-108550523D02*
X167935295Y-108550523D01*
X167935295Y-108550523D02*
X167840057Y-108502904D01*
X167840057Y-108502904D02*
X167792438Y-108455285D01*
X167792438Y-108455285D02*
X167744819Y-108360047D01*
X167744819Y-108360047D02*
X167744819Y-108121952D01*
X167744819Y-108121952D02*
X167792438Y-107979095D01*
X167744819Y-107645761D02*
X168744819Y-107407666D01*
X168744819Y-107407666D02*
X168030533Y-107217190D01*
X168030533Y-107217190D02*
X168744819Y-107026714D01*
X168744819Y-107026714D02*
X167744819Y-106788619D01*
X167744819Y-106502904D02*
X167744819Y-105883857D01*
X167744819Y-105883857D02*
X168125771Y-106217190D01*
X168125771Y-106217190D02*
X168125771Y-106074333D01*
X168125771Y-106074333D02*
X168173390Y-105979095D01*
X168173390Y-105979095D02*
X168221009Y-105931476D01*
X168221009Y-105931476D02*
X168316247Y-105883857D01*
X168316247Y-105883857D02*
X168554342Y-105883857D01*
X168554342Y-105883857D02*
X168649580Y-105931476D01*
X168649580Y-105931476D02*
X168697200Y-105979095D01*
X168697200Y-105979095D02*
X168744819Y-106074333D01*
X168744819Y-106074333D02*
X168744819Y-106360047D01*
X168744819Y-106360047D02*
X168697200Y-106455285D01*
X168697200Y-106455285D02*
X168649580Y-106502904D01*
X168744819Y-105407666D02*
X168744819Y-105217190D01*
X168744819Y-105217190D02*
X168697200Y-105121952D01*
X168697200Y-105121952D02*
X168649580Y-105074333D01*
X168649580Y-105074333D02*
X168506723Y-104979095D01*
X168506723Y-104979095D02*
X168316247Y-104931476D01*
X168316247Y-104931476D02*
X167935295Y-104931476D01*
X167935295Y-104931476D02*
X167840057Y-104979095D01*
X167840057Y-104979095D02*
X167792438Y-105026714D01*
X167792438Y-105026714D02*
X167744819Y-105121952D01*
X167744819Y-105121952D02*
X167744819Y-105312428D01*
X167744819Y-105312428D02*
X167792438Y-105407666D01*
X167792438Y-105407666D02*
X167840057Y-105455285D01*
X167840057Y-105455285D02*
X167935295Y-105502904D01*
X167935295Y-105502904D02*
X168173390Y-105502904D01*
X168173390Y-105502904D02*
X168268628Y-105455285D01*
X168268628Y-105455285D02*
X168316247Y-105407666D01*
X168316247Y-105407666D02*
X168363866Y-105312428D01*
X168363866Y-105312428D02*
X168363866Y-105121952D01*
X168363866Y-105121952D02*
X168316247Y-105026714D01*
X168316247Y-105026714D02*
X168268628Y-104979095D01*
X168268628Y-104979095D02*
X168173390Y-104931476D01*
X106340200Y-79594523D02*
X106387819Y-79451666D01*
X106387819Y-79451666D02*
X106387819Y-79213571D01*
X106387819Y-79213571D02*
X106340200Y-79118333D01*
X106340200Y-79118333D02*
X106292580Y-79070714D01*
X106292580Y-79070714D02*
X106197342Y-79023095D01*
X106197342Y-79023095D02*
X106102104Y-79023095D01*
X106102104Y-79023095D02*
X106006866Y-79070714D01*
X106006866Y-79070714D02*
X105959247Y-79118333D01*
X105959247Y-79118333D02*
X105911628Y-79213571D01*
X105911628Y-79213571D02*
X105864009Y-79404047D01*
X105864009Y-79404047D02*
X105816390Y-79499285D01*
X105816390Y-79499285D02*
X105768771Y-79546904D01*
X105768771Y-79546904D02*
X105673533Y-79594523D01*
X105673533Y-79594523D02*
X105578295Y-79594523D01*
X105578295Y-79594523D02*
X105483057Y-79546904D01*
X105483057Y-79546904D02*
X105435438Y-79499285D01*
X105435438Y-79499285D02*
X105387819Y-79404047D01*
X105387819Y-79404047D02*
X105387819Y-79165952D01*
X105387819Y-79165952D02*
X105435438Y-79023095D01*
X105387819Y-78689761D02*
X106387819Y-78451666D01*
X106387819Y-78451666D02*
X105673533Y-78261190D01*
X105673533Y-78261190D02*
X106387819Y-78070714D01*
X106387819Y-78070714D02*
X105387819Y-77832619D01*
X106387819Y-76927857D02*
X106387819Y-77499285D01*
X106387819Y-77213571D02*
X105387819Y-77213571D01*
X105387819Y-77213571D02*
X105530676Y-77308809D01*
X105530676Y-77308809D02*
X105625914Y-77404047D01*
X105625914Y-77404047D02*
X105673533Y-77499285D01*
X105387819Y-76070714D02*
X105387819Y-76261190D01*
X105387819Y-76261190D02*
X105435438Y-76356428D01*
X105435438Y-76356428D02*
X105483057Y-76404047D01*
X105483057Y-76404047D02*
X105625914Y-76499285D01*
X105625914Y-76499285D02*
X105816390Y-76546904D01*
X105816390Y-76546904D02*
X106197342Y-76546904D01*
X106197342Y-76546904D02*
X106292580Y-76499285D01*
X106292580Y-76499285D02*
X106340200Y-76451666D01*
X106340200Y-76451666D02*
X106387819Y-76356428D01*
X106387819Y-76356428D02*
X106387819Y-76165952D01*
X106387819Y-76165952D02*
X106340200Y-76070714D01*
X106340200Y-76070714D02*
X106292580Y-76023095D01*
X106292580Y-76023095D02*
X106197342Y-75975476D01*
X106197342Y-75975476D02*
X105959247Y-75975476D01*
X105959247Y-75975476D02*
X105864009Y-76023095D01*
X105864009Y-76023095D02*
X105816390Y-76070714D01*
X105816390Y-76070714D02*
X105768771Y-76165952D01*
X105768771Y-76165952D02*
X105768771Y-76356428D01*
X105768771Y-76356428D02*
X105816390Y-76451666D01*
X105816390Y-76451666D02*
X105864009Y-76499285D01*
X105864009Y-76499285D02*
X105959247Y-76546904D01*
X143424200Y-123028523D02*
X143471819Y-122885666D01*
X143471819Y-122885666D02*
X143471819Y-122647571D01*
X143471819Y-122647571D02*
X143424200Y-122552333D01*
X143424200Y-122552333D02*
X143376580Y-122504714D01*
X143376580Y-122504714D02*
X143281342Y-122457095D01*
X143281342Y-122457095D02*
X143186104Y-122457095D01*
X143186104Y-122457095D02*
X143090866Y-122504714D01*
X143090866Y-122504714D02*
X143043247Y-122552333D01*
X143043247Y-122552333D02*
X142995628Y-122647571D01*
X142995628Y-122647571D02*
X142948009Y-122838047D01*
X142948009Y-122838047D02*
X142900390Y-122933285D01*
X142900390Y-122933285D02*
X142852771Y-122980904D01*
X142852771Y-122980904D02*
X142757533Y-123028523D01*
X142757533Y-123028523D02*
X142662295Y-123028523D01*
X142662295Y-123028523D02*
X142567057Y-122980904D01*
X142567057Y-122980904D02*
X142519438Y-122933285D01*
X142519438Y-122933285D02*
X142471819Y-122838047D01*
X142471819Y-122838047D02*
X142471819Y-122599952D01*
X142471819Y-122599952D02*
X142519438Y-122457095D01*
X142471819Y-122123761D02*
X143471819Y-121885666D01*
X143471819Y-121885666D02*
X142757533Y-121695190D01*
X142757533Y-121695190D02*
X143471819Y-121504714D01*
X143471819Y-121504714D02*
X142471819Y-121266619D01*
X142567057Y-120933285D02*
X142519438Y-120885666D01*
X142519438Y-120885666D02*
X142471819Y-120790428D01*
X142471819Y-120790428D02*
X142471819Y-120552333D01*
X142471819Y-120552333D02*
X142519438Y-120457095D01*
X142519438Y-120457095D02*
X142567057Y-120409476D01*
X142567057Y-120409476D02*
X142662295Y-120361857D01*
X142662295Y-120361857D02*
X142757533Y-120361857D01*
X142757533Y-120361857D02*
X142900390Y-120409476D01*
X142900390Y-120409476D02*
X143471819Y-120980904D01*
X143471819Y-120980904D02*
X143471819Y-120361857D01*
X142900390Y-119790428D02*
X142852771Y-119885666D01*
X142852771Y-119885666D02*
X142805152Y-119933285D01*
X142805152Y-119933285D02*
X142709914Y-119980904D01*
X142709914Y-119980904D02*
X142662295Y-119980904D01*
X142662295Y-119980904D02*
X142567057Y-119933285D01*
X142567057Y-119933285D02*
X142519438Y-119885666D01*
X142519438Y-119885666D02*
X142471819Y-119790428D01*
X142471819Y-119790428D02*
X142471819Y-119599952D01*
X142471819Y-119599952D02*
X142519438Y-119504714D01*
X142519438Y-119504714D02*
X142567057Y-119457095D01*
X142567057Y-119457095D02*
X142662295Y-119409476D01*
X142662295Y-119409476D02*
X142709914Y-119409476D01*
X142709914Y-119409476D02*
X142805152Y-119457095D01*
X142805152Y-119457095D02*
X142852771Y-119504714D01*
X142852771Y-119504714D02*
X142900390Y-119599952D01*
X142900390Y-119599952D02*
X142900390Y-119790428D01*
X142900390Y-119790428D02*
X142948009Y-119885666D01*
X142948009Y-119885666D02*
X142995628Y-119933285D01*
X142995628Y-119933285D02*
X143090866Y-119980904D01*
X143090866Y-119980904D02*
X143281342Y-119980904D01*
X143281342Y-119980904D02*
X143376580Y-119933285D01*
X143376580Y-119933285D02*
X143424200Y-119885666D01*
X143424200Y-119885666D02*
X143471819Y-119790428D01*
X143471819Y-119790428D02*
X143471819Y-119599952D01*
X143471819Y-119599952D02*
X143424200Y-119504714D01*
X143424200Y-119504714D02*
X143376580Y-119457095D01*
X143376580Y-119457095D02*
X143281342Y-119409476D01*
X143281342Y-119409476D02*
X143090866Y-119409476D01*
X143090866Y-119409476D02*
X142995628Y-119457095D01*
X142995628Y-119457095D02*
X142948009Y-119504714D01*
X142948009Y-119504714D02*
X142900390Y-119599952D01*
X142479819Y-53157285D02*
X141479819Y-53157285D01*
X141479819Y-53157285D02*
X141479819Y-52919190D01*
X141479819Y-52919190D02*
X141527438Y-52776333D01*
X141527438Y-52776333D02*
X141622676Y-52681095D01*
X141622676Y-52681095D02*
X141717914Y-52633476D01*
X141717914Y-52633476D02*
X141908390Y-52585857D01*
X141908390Y-52585857D02*
X142051247Y-52585857D01*
X142051247Y-52585857D02*
X142241723Y-52633476D01*
X142241723Y-52633476D02*
X142336961Y-52681095D01*
X142336961Y-52681095D02*
X142432200Y-52776333D01*
X142432200Y-52776333D02*
X142479819Y-52919190D01*
X142479819Y-52919190D02*
X142479819Y-53157285D01*
X142479819Y-51633476D02*
X142479819Y-52204904D01*
X142479819Y-51919190D02*
X141479819Y-51919190D01*
X141479819Y-51919190D02*
X141622676Y-52014428D01*
X141622676Y-52014428D02*
X141717914Y-52109666D01*
X141717914Y-52109666D02*
X141765533Y-52204904D01*
X141908390Y-51062047D02*
X141860771Y-51157285D01*
X141860771Y-51157285D02*
X141813152Y-51204904D01*
X141813152Y-51204904D02*
X141717914Y-51252523D01*
X141717914Y-51252523D02*
X141670295Y-51252523D01*
X141670295Y-51252523D02*
X141575057Y-51204904D01*
X141575057Y-51204904D02*
X141527438Y-51157285D01*
X141527438Y-51157285D02*
X141479819Y-51062047D01*
X141479819Y-51062047D02*
X141479819Y-50871571D01*
X141479819Y-50871571D02*
X141527438Y-50776333D01*
X141527438Y-50776333D02*
X141575057Y-50728714D01*
X141575057Y-50728714D02*
X141670295Y-50681095D01*
X141670295Y-50681095D02*
X141717914Y-50681095D01*
X141717914Y-50681095D02*
X141813152Y-50728714D01*
X141813152Y-50728714D02*
X141860771Y-50776333D01*
X141860771Y-50776333D02*
X141908390Y-50871571D01*
X141908390Y-50871571D02*
X141908390Y-51062047D01*
X141908390Y-51062047D02*
X141956009Y-51157285D01*
X141956009Y-51157285D02*
X142003628Y-51204904D01*
X142003628Y-51204904D02*
X142098866Y-51252523D01*
X142098866Y-51252523D02*
X142289342Y-51252523D01*
X142289342Y-51252523D02*
X142384580Y-51204904D01*
X142384580Y-51204904D02*
X142432200Y-51157285D01*
X142432200Y-51157285D02*
X142479819Y-51062047D01*
X142479819Y-51062047D02*
X142479819Y-50871571D01*
X142479819Y-50871571D02*
X142432200Y-50776333D01*
X142432200Y-50776333D02*
X142384580Y-50728714D01*
X142384580Y-50728714D02*
X142289342Y-50681095D01*
X142289342Y-50681095D02*
X142098866Y-50681095D01*
X142098866Y-50681095D02*
X142003628Y-50728714D01*
X142003628Y-50728714D02*
X141956009Y-50776333D01*
X141956009Y-50776333D02*
X141908390Y-50871571D01*
X143551200Y-94072523D02*
X143598819Y-93929666D01*
X143598819Y-93929666D02*
X143598819Y-93691571D01*
X143598819Y-93691571D02*
X143551200Y-93596333D01*
X143551200Y-93596333D02*
X143503580Y-93548714D01*
X143503580Y-93548714D02*
X143408342Y-93501095D01*
X143408342Y-93501095D02*
X143313104Y-93501095D01*
X143313104Y-93501095D02*
X143217866Y-93548714D01*
X143217866Y-93548714D02*
X143170247Y-93596333D01*
X143170247Y-93596333D02*
X143122628Y-93691571D01*
X143122628Y-93691571D02*
X143075009Y-93882047D01*
X143075009Y-93882047D02*
X143027390Y-93977285D01*
X143027390Y-93977285D02*
X142979771Y-94024904D01*
X142979771Y-94024904D02*
X142884533Y-94072523D01*
X142884533Y-94072523D02*
X142789295Y-94072523D01*
X142789295Y-94072523D02*
X142694057Y-94024904D01*
X142694057Y-94024904D02*
X142646438Y-93977285D01*
X142646438Y-93977285D02*
X142598819Y-93882047D01*
X142598819Y-93882047D02*
X142598819Y-93643952D01*
X142598819Y-93643952D02*
X142646438Y-93501095D01*
X142598819Y-93167761D02*
X143598819Y-92929666D01*
X143598819Y-92929666D02*
X142884533Y-92739190D01*
X142884533Y-92739190D02*
X143598819Y-92548714D01*
X143598819Y-92548714D02*
X142598819Y-92310619D01*
X142598819Y-92024904D02*
X142598819Y-91405857D01*
X142598819Y-91405857D02*
X142979771Y-91739190D01*
X142979771Y-91739190D02*
X142979771Y-91596333D01*
X142979771Y-91596333D02*
X143027390Y-91501095D01*
X143027390Y-91501095D02*
X143075009Y-91453476D01*
X143075009Y-91453476D02*
X143170247Y-91405857D01*
X143170247Y-91405857D02*
X143408342Y-91405857D01*
X143408342Y-91405857D02*
X143503580Y-91453476D01*
X143503580Y-91453476D02*
X143551200Y-91501095D01*
X143551200Y-91501095D02*
X143598819Y-91596333D01*
X143598819Y-91596333D02*
X143598819Y-91882047D01*
X143598819Y-91882047D02*
X143551200Y-91977285D01*
X143551200Y-91977285D02*
X143503580Y-92024904D01*
X142598819Y-90786809D02*
X142598819Y-90691571D01*
X142598819Y-90691571D02*
X142646438Y-90596333D01*
X142646438Y-90596333D02*
X142694057Y-90548714D01*
X142694057Y-90548714D02*
X142789295Y-90501095D01*
X142789295Y-90501095D02*
X142979771Y-90453476D01*
X142979771Y-90453476D02*
X143217866Y-90453476D01*
X143217866Y-90453476D02*
X143408342Y-90501095D01*
X143408342Y-90501095D02*
X143503580Y-90548714D01*
X143503580Y-90548714D02*
X143551200Y-90596333D01*
X143551200Y-90596333D02*
X143598819Y-90691571D01*
X143598819Y-90691571D02*
X143598819Y-90786809D01*
X143598819Y-90786809D02*
X143551200Y-90882047D01*
X143551200Y-90882047D02*
X143503580Y-90929666D01*
X143503580Y-90929666D02*
X143408342Y-90977285D01*
X143408342Y-90977285D02*
X143217866Y-91024904D01*
X143217866Y-91024904D02*
X142979771Y-91024904D01*
X142979771Y-91024904D02*
X142789295Y-90977285D01*
X142789295Y-90977285D02*
X142694057Y-90929666D01*
X142694057Y-90929666D02*
X142646438Y-90882047D01*
X142646438Y-90882047D02*
X142598819Y-90786809D01*
X82820819Y-64111094D02*
X81820819Y-64111094D01*
X81820819Y-64111094D02*
X81820819Y-63872999D01*
X81820819Y-63872999D02*
X81868438Y-63730142D01*
X81868438Y-63730142D02*
X81963676Y-63634904D01*
X81963676Y-63634904D02*
X82058914Y-63587285D01*
X82058914Y-63587285D02*
X82249390Y-63539666D01*
X82249390Y-63539666D02*
X82392247Y-63539666D01*
X82392247Y-63539666D02*
X82582723Y-63587285D01*
X82582723Y-63587285D02*
X82677961Y-63634904D01*
X82677961Y-63634904D02*
X82773200Y-63730142D01*
X82773200Y-63730142D02*
X82820819Y-63872999D01*
X82820819Y-63872999D02*
X82820819Y-64111094D01*
X82820819Y-63063475D02*
X82820819Y-62872999D01*
X82820819Y-62872999D02*
X82773200Y-62777761D01*
X82773200Y-62777761D02*
X82725580Y-62730142D01*
X82725580Y-62730142D02*
X82582723Y-62634904D01*
X82582723Y-62634904D02*
X82392247Y-62587285D01*
X82392247Y-62587285D02*
X82011295Y-62587285D01*
X82011295Y-62587285D02*
X81916057Y-62634904D01*
X81916057Y-62634904D02*
X81868438Y-62682523D01*
X81868438Y-62682523D02*
X81820819Y-62777761D01*
X81820819Y-62777761D02*
X81820819Y-62968237D01*
X81820819Y-62968237D02*
X81868438Y-63063475D01*
X81868438Y-63063475D02*
X81916057Y-63111094D01*
X81916057Y-63111094D02*
X82011295Y-63158713D01*
X82011295Y-63158713D02*
X82249390Y-63158713D01*
X82249390Y-63158713D02*
X82344628Y-63111094D01*
X82344628Y-63111094D02*
X82392247Y-63063475D01*
X82392247Y-63063475D02*
X82439866Y-62968237D01*
X82439866Y-62968237D02*
X82439866Y-62777761D01*
X82439866Y-62777761D02*
X82392247Y-62682523D01*
X82392247Y-62682523D02*
X82344628Y-62634904D01*
X82344628Y-62634904D02*
X82249390Y-62587285D01*
X83390819Y-67444904D02*
X82390819Y-67444904D01*
X83390819Y-66873476D02*
X82819390Y-67302047D01*
X82390819Y-66873476D02*
X82962247Y-67444904D01*
X136202819Y-135720857D02*
X135726628Y-136054190D01*
X136202819Y-136292285D02*
X135202819Y-136292285D01*
X135202819Y-136292285D02*
X135202819Y-135911333D01*
X135202819Y-135911333D02*
X135250438Y-135816095D01*
X135250438Y-135816095D02*
X135298057Y-135768476D01*
X135298057Y-135768476D02*
X135393295Y-135720857D01*
X135393295Y-135720857D02*
X135536152Y-135720857D01*
X135536152Y-135720857D02*
X135631390Y-135768476D01*
X135631390Y-135768476D02*
X135679009Y-135816095D01*
X135679009Y-135816095D02*
X135726628Y-135911333D01*
X135726628Y-135911333D02*
X135726628Y-136292285D01*
X135298057Y-135339904D02*
X135250438Y-135292285D01*
X135250438Y-135292285D02*
X135202819Y-135197047D01*
X135202819Y-135197047D02*
X135202819Y-134958952D01*
X135202819Y-134958952D02*
X135250438Y-134863714D01*
X135250438Y-134863714D02*
X135298057Y-134816095D01*
X135298057Y-134816095D02*
X135393295Y-134768476D01*
X135393295Y-134768476D02*
X135488533Y-134768476D01*
X135488533Y-134768476D02*
X135631390Y-134816095D01*
X135631390Y-134816095D02*
X136202819Y-135387523D01*
X136202819Y-135387523D02*
X136202819Y-134768476D01*
X135202819Y-134149428D02*
X135202819Y-134054190D01*
X135202819Y-134054190D02*
X135250438Y-133958952D01*
X135250438Y-133958952D02*
X135298057Y-133911333D01*
X135298057Y-133911333D02*
X135393295Y-133863714D01*
X135393295Y-133863714D02*
X135583771Y-133816095D01*
X135583771Y-133816095D02*
X135821866Y-133816095D01*
X135821866Y-133816095D02*
X136012342Y-133863714D01*
X136012342Y-133863714D02*
X136107580Y-133911333D01*
X136107580Y-133911333D02*
X136155200Y-133958952D01*
X136155200Y-133958952D02*
X136202819Y-134054190D01*
X136202819Y-134054190D02*
X136202819Y-134149428D01*
X136202819Y-134149428D02*
X136155200Y-134244666D01*
X136155200Y-134244666D02*
X136107580Y-134292285D01*
X136107580Y-134292285D02*
X136012342Y-134339904D01*
X136012342Y-134339904D02*
X135821866Y-134387523D01*
X135821866Y-134387523D02*
X135583771Y-134387523D01*
X135583771Y-134387523D02*
X135393295Y-134339904D01*
X135393295Y-134339904D02*
X135298057Y-134292285D01*
X135298057Y-134292285D02*
X135250438Y-134244666D01*
X135250438Y-134244666D02*
X135202819Y-134149428D01*
X104024761Y-131405057D02*
X103929523Y-131357438D01*
X103929523Y-131357438D02*
X103834285Y-131262200D01*
X103834285Y-131262200D02*
X103691428Y-131119342D01*
X103691428Y-131119342D02*
X103596190Y-131071723D01*
X103596190Y-131071723D02*
X103500952Y-131071723D01*
X103548571Y-131309819D02*
X103453333Y-131262200D01*
X103453333Y-131262200D02*
X103358095Y-131166961D01*
X103358095Y-131166961D02*
X103310476Y-130976485D01*
X103310476Y-130976485D02*
X103310476Y-130643152D01*
X103310476Y-130643152D02*
X103358095Y-130452676D01*
X103358095Y-130452676D02*
X103453333Y-130357438D01*
X103453333Y-130357438D02*
X103548571Y-130309819D01*
X103548571Y-130309819D02*
X103739047Y-130309819D01*
X103739047Y-130309819D02*
X103834285Y-130357438D01*
X103834285Y-130357438D02*
X103929523Y-130452676D01*
X103929523Y-130452676D02*
X103977142Y-130643152D01*
X103977142Y-130643152D02*
X103977142Y-130976485D01*
X103977142Y-130976485D02*
X103929523Y-131166961D01*
X103929523Y-131166961D02*
X103834285Y-131262200D01*
X103834285Y-131262200D02*
X103739047Y-131309819D01*
X103739047Y-131309819D02*
X103548571Y-131309819D01*
X104358095Y-130405057D02*
X104405714Y-130357438D01*
X104405714Y-130357438D02*
X104500952Y-130309819D01*
X104500952Y-130309819D02*
X104739047Y-130309819D01*
X104739047Y-130309819D02*
X104834285Y-130357438D01*
X104834285Y-130357438D02*
X104881904Y-130405057D01*
X104881904Y-130405057D02*
X104929523Y-130500295D01*
X104929523Y-130500295D02*
X104929523Y-130595533D01*
X104929523Y-130595533D02*
X104881904Y-130738390D01*
X104881904Y-130738390D02*
X104310476Y-131309819D01*
X104310476Y-131309819D02*
X104929523Y-131309819D01*
X107942142Y-133169819D02*
X107608809Y-132693628D01*
X107370714Y-133169819D02*
X107370714Y-132169819D01*
X107370714Y-132169819D02*
X107751666Y-132169819D01*
X107751666Y-132169819D02*
X107846904Y-132217438D01*
X107846904Y-132217438D02*
X107894523Y-132265057D01*
X107894523Y-132265057D02*
X107942142Y-132360295D01*
X107942142Y-132360295D02*
X107942142Y-132503152D01*
X107942142Y-132503152D02*
X107894523Y-132598390D01*
X107894523Y-132598390D02*
X107846904Y-132646009D01*
X107846904Y-132646009D02*
X107751666Y-132693628D01*
X107751666Y-132693628D02*
X107370714Y-132693628D01*
X108894523Y-133169819D02*
X108323095Y-133169819D01*
X108608809Y-133169819D02*
X108608809Y-132169819D01*
X108608809Y-132169819D02*
X108513571Y-132312676D01*
X108513571Y-132312676D02*
X108418333Y-132407914D01*
X108418333Y-132407914D02*
X108323095Y-132455533D01*
X109227857Y-132169819D02*
X109846904Y-132169819D01*
X109846904Y-132169819D02*
X109513571Y-132550771D01*
X109513571Y-132550771D02*
X109656428Y-132550771D01*
X109656428Y-132550771D02*
X109751666Y-132598390D01*
X109751666Y-132598390D02*
X109799285Y-132646009D01*
X109799285Y-132646009D02*
X109846904Y-132741247D01*
X109846904Y-132741247D02*
X109846904Y-132979342D01*
X109846904Y-132979342D02*
X109799285Y-133074580D01*
X109799285Y-133074580D02*
X109751666Y-133122200D01*
X109751666Y-133122200D02*
X109656428Y-133169819D01*
X109656428Y-133169819D02*
X109370714Y-133169819D01*
X109370714Y-133169819D02*
X109275476Y-133122200D01*
X109275476Y-133122200D02*
X109227857Y-133074580D01*
X117483819Y-44026857D02*
X117007628Y-44360190D01*
X117483819Y-44598285D02*
X116483819Y-44598285D01*
X116483819Y-44598285D02*
X116483819Y-44217333D01*
X116483819Y-44217333D02*
X116531438Y-44122095D01*
X116531438Y-44122095D02*
X116579057Y-44074476D01*
X116579057Y-44074476D02*
X116674295Y-44026857D01*
X116674295Y-44026857D02*
X116817152Y-44026857D01*
X116817152Y-44026857D02*
X116912390Y-44074476D01*
X116912390Y-44074476D02*
X116960009Y-44122095D01*
X116960009Y-44122095D02*
X117007628Y-44217333D01*
X117007628Y-44217333D02*
X117007628Y-44598285D01*
X116483819Y-43693523D02*
X116483819Y-43074476D01*
X116483819Y-43074476D02*
X116864771Y-43407809D01*
X116864771Y-43407809D02*
X116864771Y-43264952D01*
X116864771Y-43264952D02*
X116912390Y-43169714D01*
X116912390Y-43169714D02*
X116960009Y-43122095D01*
X116960009Y-43122095D02*
X117055247Y-43074476D01*
X117055247Y-43074476D02*
X117293342Y-43074476D01*
X117293342Y-43074476D02*
X117388580Y-43122095D01*
X117388580Y-43122095D02*
X117436200Y-43169714D01*
X117436200Y-43169714D02*
X117483819Y-43264952D01*
X117483819Y-43264952D02*
X117483819Y-43550666D01*
X117483819Y-43550666D02*
X117436200Y-43645904D01*
X117436200Y-43645904D02*
X117388580Y-43693523D01*
X116483819Y-42455428D02*
X116483819Y-42360190D01*
X116483819Y-42360190D02*
X116531438Y-42264952D01*
X116531438Y-42264952D02*
X116579057Y-42217333D01*
X116579057Y-42217333D02*
X116674295Y-42169714D01*
X116674295Y-42169714D02*
X116864771Y-42122095D01*
X116864771Y-42122095D02*
X117102866Y-42122095D01*
X117102866Y-42122095D02*
X117293342Y-42169714D01*
X117293342Y-42169714D02*
X117388580Y-42217333D01*
X117388580Y-42217333D02*
X117436200Y-42264952D01*
X117436200Y-42264952D02*
X117483819Y-42360190D01*
X117483819Y-42360190D02*
X117483819Y-42455428D01*
X117483819Y-42455428D02*
X117436200Y-42550666D01*
X117436200Y-42550666D02*
X117388580Y-42598285D01*
X117388580Y-42598285D02*
X117293342Y-42645904D01*
X117293342Y-42645904D02*
X117102866Y-42693523D01*
X117102866Y-42693523D02*
X116864771Y-42693523D01*
X116864771Y-42693523D02*
X116674295Y-42645904D01*
X116674295Y-42645904D02*
X116579057Y-42598285D01*
X116579057Y-42598285D02*
X116531438Y-42550666D01*
X116531438Y-42550666D02*
X116483819Y-42455428D01*
X148632381Y-134484482D02*
X148299048Y-134008291D01*
X148060953Y-134484482D02*
X148060953Y-133484482D01*
X148060953Y-133484482D02*
X148441905Y-133484482D01*
X148441905Y-133484482D02*
X148537143Y-133532101D01*
X148537143Y-133532101D02*
X148584762Y-133579720D01*
X148584762Y-133579720D02*
X148632381Y-133674958D01*
X148632381Y-133674958D02*
X148632381Y-133817815D01*
X148632381Y-133817815D02*
X148584762Y-133913053D01*
X148584762Y-133913053D02*
X148537143Y-133960672D01*
X148537143Y-133960672D02*
X148441905Y-134008291D01*
X148441905Y-134008291D02*
X148060953Y-134008291D01*
X149584762Y-134484482D02*
X149013334Y-134484482D01*
X149299048Y-134484482D02*
X149299048Y-133484482D01*
X149299048Y-133484482D02*
X149203810Y-133627339D01*
X149203810Y-133627339D02*
X149108572Y-133722577D01*
X149108572Y-133722577D02*
X149013334Y-133770196D01*
X150060953Y-134484482D02*
X150251429Y-134484482D01*
X150251429Y-134484482D02*
X150346667Y-134436863D01*
X150346667Y-134436863D02*
X150394286Y-134389243D01*
X150394286Y-134389243D02*
X150489524Y-134246386D01*
X150489524Y-134246386D02*
X150537143Y-134055910D01*
X150537143Y-134055910D02*
X150537143Y-133674958D01*
X150537143Y-133674958D02*
X150489524Y-133579720D01*
X150489524Y-133579720D02*
X150441905Y-133532101D01*
X150441905Y-133532101D02*
X150346667Y-133484482D01*
X150346667Y-133484482D02*
X150156191Y-133484482D01*
X150156191Y-133484482D02*
X150060953Y-133532101D01*
X150060953Y-133532101D02*
X150013334Y-133579720D01*
X150013334Y-133579720D02*
X149965715Y-133674958D01*
X149965715Y-133674958D02*
X149965715Y-133913053D01*
X149965715Y-133913053D02*
X150013334Y-134008291D01*
X150013334Y-134008291D02*
X150060953Y-134055910D01*
X150060953Y-134055910D02*
X150156191Y-134103529D01*
X150156191Y-134103529D02*
X150346667Y-134103529D01*
X150346667Y-134103529D02*
X150441905Y-134055910D01*
X150441905Y-134055910D02*
X150489524Y-134008291D01*
X150489524Y-134008291D02*
X150537143Y-133913053D01*
X80408333Y-134424819D02*
X80075000Y-133948628D01*
X79836905Y-134424819D02*
X79836905Y-133424819D01*
X79836905Y-133424819D02*
X80217857Y-133424819D01*
X80217857Y-133424819D02*
X80313095Y-133472438D01*
X80313095Y-133472438D02*
X80360714Y-133520057D01*
X80360714Y-133520057D02*
X80408333Y-133615295D01*
X80408333Y-133615295D02*
X80408333Y-133758152D01*
X80408333Y-133758152D02*
X80360714Y-133853390D01*
X80360714Y-133853390D02*
X80313095Y-133901009D01*
X80313095Y-133901009D02*
X80217857Y-133948628D01*
X80217857Y-133948628D02*
X79836905Y-133948628D01*
X81360714Y-134424819D02*
X80789286Y-134424819D01*
X81075000Y-134424819D02*
X81075000Y-133424819D01*
X81075000Y-133424819D02*
X80979762Y-133567676D01*
X80979762Y-133567676D02*
X80884524Y-133662914D01*
X80884524Y-133662914D02*
X80789286Y-133710533D01*
X93640200Y-94072523D02*
X93687819Y-93929666D01*
X93687819Y-93929666D02*
X93687819Y-93691571D01*
X93687819Y-93691571D02*
X93640200Y-93596333D01*
X93640200Y-93596333D02*
X93592580Y-93548714D01*
X93592580Y-93548714D02*
X93497342Y-93501095D01*
X93497342Y-93501095D02*
X93402104Y-93501095D01*
X93402104Y-93501095D02*
X93306866Y-93548714D01*
X93306866Y-93548714D02*
X93259247Y-93596333D01*
X93259247Y-93596333D02*
X93211628Y-93691571D01*
X93211628Y-93691571D02*
X93164009Y-93882047D01*
X93164009Y-93882047D02*
X93116390Y-93977285D01*
X93116390Y-93977285D02*
X93068771Y-94024904D01*
X93068771Y-94024904D02*
X92973533Y-94072523D01*
X92973533Y-94072523D02*
X92878295Y-94072523D01*
X92878295Y-94072523D02*
X92783057Y-94024904D01*
X92783057Y-94024904D02*
X92735438Y-93977285D01*
X92735438Y-93977285D02*
X92687819Y-93882047D01*
X92687819Y-93882047D02*
X92687819Y-93643952D01*
X92687819Y-93643952D02*
X92735438Y-93501095D01*
X92687819Y-93167761D02*
X93687819Y-92929666D01*
X93687819Y-92929666D02*
X92973533Y-92739190D01*
X92973533Y-92739190D02*
X93687819Y-92548714D01*
X93687819Y-92548714D02*
X92687819Y-92310619D01*
X93687819Y-91405857D02*
X93687819Y-91977285D01*
X93687819Y-91691571D02*
X92687819Y-91691571D01*
X92687819Y-91691571D02*
X92830676Y-91786809D01*
X92830676Y-91786809D02*
X92925914Y-91882047D01*
X92925914Y-91882047D02*
X92973533Y-91977285D01*
X92687819Y-90786809D02*
X92687819Y-90691571D01*
X92687819Y-90691571D02*
X92735438Y-90596333D01*
X92735438Y-90596333D02*
X92783057Y-90548714D01*
X92783057Y-90548714D02*
X92878295Y-90501095D01*
X92878295Y-90501095D02*
X93068771Y-90453476D01*
X93068771Y-90453476D02*
X93306866Y-90453476D01*
X93306866Y-90453476D02*
X93497342Y-90501095D01*
X93497342Y-90501095D02*
X93592580Y-90548714D01*
X93592580Y-90548714D02*
X93640200Y-90596333D01*
X93640200Y-90596333D02*
X93687819Y-90691571D01*
X93687819Y-90691571D02*
X93687819Y-90786809D01*
X93687819Y-90786809D02*
X93640200Y-90882047D01*
X93640200Y-90882047D02*
X93592580Y-90929666D01*
X93592580Y-90929666D02*
X93497342Y-90977285D01*
X93497342Y-90977285D02*
X93306866Y-91024904D01*
X93306866Y-91024904D02*
X93068771Y-91024904D01*
X93068771Y-91024904D02*
X92878295Y-90977285D01*
X92878295Y-90977285D02*
X92783057Y-90929666D01*
X92783057Y-90929666D02*
X92735438Y-90882047D01*
X92735438Y-90882047D02*
X92687819Y-90786809D01*
X96353333Y-129384580D02*
X96305714Y-129432200D01*
X96305714Y-129432200D02*
X96162857Y-129479819D01*
X96162857Y-129479819D02*
X96067619Y-129479819D01*
X96067619Y-129479819D02*
X95924762Y-129432200D01*
X95924762Y-129432200D02*
X95829524Y-129336961D01*
X95829524Y-129336961D02*
X95781905Y-129241723D01*
X95781905Y-129241723D02*
X95734286Y-129051247D01*
X95734286Y-129051247D02*
X95734286Y-128908390D01*
X95734286Y-128908390D02*
X95781905Y-128717914D01*
X95781905Y-128717914D02*
X95829524Y-128622676D01*
X95829524Y-128622676D02*
X95924762Y-128527438D01*
X95924762Y-128527438D02*
X96067619Y-128479819D01*
X96067619Y-128479819D02*
X96162857Y-128479819D01*
X96162857Y-128479819D02*
X96305714Y-128527438D01*
X96305714Y-128527438D02*
X96353333Y-128575057D01*
X96924762Y-128908390D02*
X96829524Y-128860771D01*
X96829524Y-128860771D02*
X96781905Y-128813152D01*
X96781905Y-128813152D02*
X96734286Y-128717914D01*
X96734286Y-128717914D02*
X96734286Y-128670295D01*
X96734286Y-128670295D02*
X96781905Y-128575057D01*
X96781905Y-128575057D02*
X96829524Y-128527438D01*
X96829524Y-128527438D02*
X96924762Y-128479819D01*
X96924762Y-128479819D02*
X97115238Y-128479819D01*
X97115238Y-128479819D02*
X97210476Y-128527438D01*
X97210476Y-128527438D02*
X97258095Y-128575057D01*
X97258095Y-128575057D02*
X97305714Y-128670295D01*
X97305714Y-128670295D02*
X97305714Y-128717914D01*
X97305714Y-128717914D02*
X97258095Y-128813152D01*
X97258095Y-128813152D02*
X97210476Y-128860771D01*
X97210476Y-128860771D02*
X97115238Y-128908390D01*
X97115238Y-128908390D02*
X96924762Y-128908390D01*
X96924762Y-128908390D02*
X96829524Y-128956009D01*
X96829524Y-128956009D02*
X96781905Y-129003628D01*
X96781905Y-129003628D02*
X96734286Y-129098866D01*
X96734286Y-129098866D02*
X96734286Y-129289342D01*
X96734286Y-129289342D02*
X96781905Y-129384580D01*
X96781905Y-129384580D02*
X96829524Y-129432200D01*
X96829524Y-129432200D02*
X96924762Y-129479819D01*
X96924762Y-129479819D02*
X97115238Y-129479819D01*
X97115238Y-129479819D02*
X97210476Y-129432200D01*
X97210476Y-129432200D02*
X97258095Y-129384580D01*
X97258095Y-129384580D02*
X97305714Y-129289342D01*
X97305714Y-129289342D02*
X97305714Y-129098866D01*
X97305714Y-129098866D02*
X97258095Y-129003628D01*
X97258095Y-129003628D02*
X97210476Y-128956009D01*
X97210476Y-128956009D02*
X97115238Y-128908390D01*
X86256905Y-140719819D02*
X86256905Y-139719819D01*
X86256905Y-139719819D02*
X86495000Y-139719819D01*
X86495000Y-139719819D02*
X86637857Y-139767438D01*
X86637857Y-139767438D02*
X86733095Y-139862676D01*
X86733095Y-139862676D02*
X86780714Y-139957914D01*
X86780714Y-139957914D02*
X86828333Y-140148390D01*
X86828333Y-140148390D02*
X86828333Y-140291247D01*
X86828333Y-140291247D02*
X86780714Y-140481723D01*
X86780714Y-140481723D02*
X86733095Y-140576961D01*
X86733095Y-140576961D02*
X86637857Y-140672200D01*
X86637857Y-140672200D02*
X86495000Y-140719819D01*
X86495000Y-140719819D02*
X86256905Y-140719819D01*
X87685476Y-140053152D02*
X87685476Y-140719819D01*
X87447381Y-139672200D02*
X87209286Y-140386485D01*
X87209286Y-140386485D02*
X87828333Y-140386485D01*
X90543095Y-140149819D02*
X90543095Y-139149819D01*
X91114523Y-140149819D02*
X90685952Y-139578390D01*
X91114523Y-139149819D02*
X90543095Y-139721247D01*
X121143819Y-53152285D02*
X120143819Y-53152285D01*
X120143819Y-53152285D02*
X120143819Y-52914190D01*
X120143819Y-52914190D02*
X120191438Y-52771333D01*
X120191438Y-52771333D02*
X120286676Y-52676095D01*
X120286676Y-52676095D02*
X120381914Y-52628476D01*
X120381914Y-52628476D02*
X120572390Y-52580857D01*
X120572390Y-52580857D02*
X120715247Y-52580857D01*
X120715247Y-52580857D02*
X120905723Y-52628476D01*
X120905723Y-52628476D02*
X121000961Y-52676095D01*
X121000961Y-52676095D02*
X121096200Y-52771333D01*
X121096200Y-52771333D02*
X121143819Y-52914190D01*
X121143819Y-52914190D02*
X121143819Y-53152285D01*
X121143819Y-51628476D02*
X121143819Y-52199904D01*
X121143819Y-51914190D02*
X120143819Y-51914190D01*
X120143819Y-51914190D02*
X120286676Y-52009428D01*
X120286676Y-52009428D02*
X120381914Y-52104666D01*
X120381914Y-52104666D02*
X120429533Y-52199904D01*
X120143819Y-50723714D02*
X120143819Y-51199904D01*
X120143819Y-51199904D02*
X120620009Y-51247523D01*
X120620009Y-51247523D02*
X120572390Y-51199904D01*
X120572390Y-51199904D02*
X120524771Y-51104666D01*
X120524771Y-51104666D02*
X120524771Y-50866571D01*
X120524771Y-50866571D02*
X120572390Y-50771333D01*
X120572390Y-50771333D02*
X120620009Y-50723714D01*
X120620009Y-50723714D02*
X120715247Y-50676095D01*
X120715247Y-50676095D02*
X120953342Y-50676095D01*
X120953342Y-50676095D02*
X121048580Y-50723714D01*
X121048580Y-50723714D02*
X121096200Y-50771333D01*
X121096200Y-50771333D02*
X121143819Y-50866571D01*
X121143819Y-50866571D02*
X121143819Y-51104666D01*
X121143819Y-51104666D02*
X121096200Y-51199904D01*
X121096200Y-51199904D02*
X121048580Y-51247523D01*
X162581355Y-141408552D02*
X162581355Y-142122837D01*
X162581355Y-142122837D02*
X162533736Y-142265694D01*
X162533736Y-142265694D02*
X162438498Y-142360933D01*
X162438498Y-142360933D02*
X162295641Y-142408552D01*
X162295641Y-142408552D02*
X162200403Y-142408552D01*
X163581355Y-142408552D02*
X163009927Y-142408552D01*
X163295641Y-142408552D02*
X163295641Y-141408552D01*
X163295641Y-141408552D02*
X163200403Y-141551409D01*
X163200403Y-141551409D02*
X163105165Y-141646647D01*
X163105165Y-141646647D02*
X163009927Y-141694266D01*
X103101333Y-31788057D02*
X103006095Y-31740438D01*
X103006095Y-31740438D02*
X102910857Y-31645200D01*
X102910857Y-31645200D02*
X102768000Y-31502342D01*
X102768000Y-31502342D02*
X102672762Y-31454723D01*
X102672762Y-31454723D02*
X102577524Y-31454723D01*
X102625143Y-31692819D02*
X102529905Y-31645200D01*
X102529905Y-31645200D02*
X102434667Y-31549961D01*
X102434667Y-31549961D02*
X102387048Y-31359485D01*
X102387048Y-31359485D02*
X102387048Y-31026152D01*
X102387048Y-31026152D02*
X102434667Y-30835676D01*
X102434667Y-30835676D02*
X102529905Y-30740438D01*
X102529905Y-30740438D02*
X102625143Y-30692819D01*
X102625143Y-30692819D02*
X102815619Y-30692819D01*
X102815619Y-30692819D02*
X102910857Y-30740438D01*
X102910857Y-30740438D02*
X103006095Y-30835676D01*
X103006095Y-30835676D02*
X103053714Y-31026152D01*
X103053714Y-31026152D02*
X103053714Y-31359485D01*
X103053714Y-31359485D02*
X103006095Y-31549961D01*
X103006095Y-31549961D02*
X102910857Y-31645200D01*
X102910857Y-31645200D02*
X102815619Y-31692819D01*
X102815619Y-31692819D02*
X102625143Y-31692819D01*
X103958476Y-30692819D02*
X103482286Y-30692819D01*
X103482286Y-30692819D02*
X103434667Y-31169009D01*
X103434667Y-31169009D02*
X103482286Y-31121390D01*
X103482286Y-31121390D02*
X103577524Y-31073771D01*
X103577524Y-31073771D02*
X103815619Y-31073771D01*
X103815619Y-31073771D02*
X103910857Y-31121390D01*
X103910857Y-31121390D02*
X103958476Y-31169009D01*
X103958476Y-31169009D02*
X104006095Y-31264247D01*
X104006095Y-31264247D02*
X104006095Y-31502342D01*
X104006095Y-31502342D02*
X103958476Y-31597580D01*
X103958476Y-31597580D02*
X103910857Y-31645200D01*
X103910857Y-31645200D02*
X103815619Y-31692819D01*
X103815619Y-31692819D02*
X103577524Y-31692819D01*
X103577524Y-31692819D02*
X103482286Y-31645200D01*
X103482286Y-31645200D02*
X103434667Y-31597580D01*
X114779580Y-132881666D02*
X114827200Y-132929285D01*
X114827200Y-132929285D02*
X114874819Y-133072142D01*
X114874819Y-133072142D02*
X114874819Y-133167380D01*
X114874819Y-133167380D02*
X114827200Y-133310237D01*
X114827200Y-133310237D02*
X114731961Y-133405475D01*
X114731961Y-133405475D02*
X114636723Y-133453094D01*
X114636723Y-133453094D02*
X114446247Y-133500713D01*
X114446247Y-133500713D02*
X114303390Y-133500713D01*
X114303390Y-133500713D02*
X114112914Y-133453094D01*
X114112914Y-133453094D02*
X114017676Y-133405475D01*
X114017676Y-133405475D02*
X113922438Y-133310237D01*
X113922438Y-133310237D02*
X113874819Y-133167380D01*
X113874819Y-133167380D02*
X113874819Y-133072142D01*
X113874819Y-133072142D02*
X113922438Y-132929285D01*
X113922438Y-132929285D02*
X113970057Y-132881666D01*
X113874819Y-131976904D02*
X113874819Y-132453094D01*
X113874819Y-132453094D02*
X114351009Y-132500713D01*
X114351009Y-132500713D02*
X114303390Y-132453094D01*
X114303390Y-132453094D02*
X114255771Y-132357856D01*
X114255771Y-132357856D02*
X114255771Y-132119761D01*
X114255771Y-132119761D02*
X114303390Y-132024523D01*
X114303390Y-132024523D02*
X114351009Y-131976904D01*
X114351009Y-131976904D02*
X114446247Y-131929285D01*
X114446247Y-131929285D02*
X114684342Y-131929285D01*
X114684342Y-131929285D02*
X114779580Y-131976904D01*
X114779580Y-131976904D02*
X114827200Y-132024523D01*
X114827200Y-132024523D02*
X114874819Y-132119761D01*
X114874819Y-132119761D02*
X114874819Y-132357856D01*
X114874819Y-132357856D02*
X114827200Y-132453094D01*
X114827200Y-132453094D02*
X114779580Y-132500713D01*
X130083819Y-44026857D02*
X129607628Y-44360190D01*
X130083819Y-44598285D02*
X129083819Y-44598285D01*
X129083819Y-44598285D02*
X129083819Y-44217333D01*
X129083819Y-44217333D02*
X129131438Y-44122095D01*
X129131438Y-44122095D02*
X129179057Y-44074476D01*
X129179057Y-44074476D02*
X129274295Y-44026857D01*
X129274295Y-44026857D02*
X129417152Y-44026857D01*
X129417152Y-44026857D02*
X129512390Y-44074476D01*
X129512390Y-44074476D02*
X129560009Y-44122095D01*
X129560009Y-44122095D02*
X129607628Y-44217333D01*
X129607628Y-44217333D02*
X129607628Y-44598285D01*
X129083819Y-43693523D02*
X129083819Y-43074476D01*
X129083819Y-43074476D02*
X129464771Y-43407809D01*
X129464771Y-43407809D02*
X129464771Y-43264952D01*
X129464771Y-43264952D02*
X129512390Y-43169714D01*
X129512390Y-43169714D02*
X129560009Y-43122095D01*
X129560009Y-43122095D02*
X129655247Y-43074476D01*
X129655247Y-43074476D02*
X129893342Y-43074476D01*
X129893342Y-43074476D02*
X129988580Y-43122095D01*
X129988580Y-43122095D02*
X130036200Y-43169714D01*
X130036200Y-43169714D02*
X130083819Y-43264952D01*
X130083819Y-43264952D02*
X130083819Y-43550666D01*
X130083819Y-43550666D02*
X130036200Y-43645904D01*
X130036200Y-43645904D02*
X129988580Y-43693523D01*
X129417152Y-42217333D02*
X130083819Y-42217333D01*
X129036200Y-42455428D02*
X129750485Y-42693523D01*
X129750485Y-42693523D02*
X129750485Y-42074476D01*
X126933819Y-44026857D02*
X126457628Y-44360190D01*
X126933819Y-44598285D02*
X125933819Y-44598285D01*
X125933819Y-44598285D02*
X125933819Y-44217333D01*
X125933819Y-44217333D02*
X125981438Y-44122095D01*
X125981438Y-44122095D02*
X126029057Y-44074476D01*
X126029057Y-44074476D02*
X126124295Y-44026857D01*
X126124295Y-44026857D02*
X126267152Y-44026857D01*
X126267152Y-44026857D02*
X126362390Y-44074476D01*
X126362390Y-44074476D02*
X126410009Y-44122095D01*
X126410009Y-44122095D02*
X126457628Y-44217333D01*
X126457628Y-44217333D02*
X126457628Y-44598285D01*
X125933819Y-43693523D02*
X125933819Y-43074476D01*
X125933819Y-43074476D02*
X126314771Y-43407809D01*
X126314771Y-43407809D02*
X126314771Y-43264952D01*
X126314771Y-43264952D02*
X126362390Y-43169714D01*
X126362390Y-43169714D02*
X126410009Y-43122095D01*
X126410009Y-43122095D02*
X126505247Y-43074476D01*
X126505247Y-43074476D02*
X126743342Y-43074476D01*
X126743342Y-43074476D02*
X126838580Y-43122095D01*
X126838580Y-43122095D02*
X126886200Y-43169714D01*
X126886200Y-43169714D02*
X126933819Y-43264952D01*
X126933819Y-43264952D02*
X126933819Y-43550666D01*
X126933819Y-43550666D02*
X126886200Y-43645904D01*
X126886200Y-43645904D02*
X126838580Y-43693523D01*
X125933819Y-42741142D02*
X125933819Y-42122095D01*
X125933819Y-42122095D02*
X126314771Y-42455428D01*
X126314771Y-42455428D02*
X126314771Y-42312571D01*
X126314771Y-42312571D02*
X126362390Y-42217333D01*
X126362390Y-42217333D02*
X126410009Y-42169714D01*
X126410009Y-42169714D02*
X126505247Y-42122095D01*
X126505247Y-42122095D02*
X126743342Y-42122095D01*
X126743342Y-42122095D02*
X126838580Y-42169714D01*
X126838580Y-42169714D02*
X126886200Y-42217333D01*
X126886200Y-42217333D02*
X126933819Y-42312571D01*
X126933819Y-42312571D02*
X126933819Y-42598285D01*
X126933819Y-42598285D02*
X126886200Y-42693523D01*
X126886200Y-42693523D02*
X126838580Y-42741142D01*
X117035047Y-31788057D02*
X116939809Y-31740438D01*
X116939809Y-31740438D02*
X116844571Y-31645200D01*
X116844571Y-31645200D02*
X116701714Y-31502342D01*
X116701714Y-31502342D02*
X116606476Y-31454723D01*
X116606476Y-31454723D02*
X116511238Y-31454723D01*
X116558857Y-31692819D02*
X116463619Y-31645200D01*
X116463619Y-31645200D02*
X116368381Y-31549961D01*
X116368381Y-31549961D02*
X116320762Y-31359485D01*
X116320762Y-31359485D02*
X116320762Y-31026152D01*
X116320762Y-31026152D02*
X116368381Y-30835676D01*
X116368381Y-30835676D02*
X116463619Y-30740438D01*
X116463619Y-30740438D02*
X116558857Y-30692819D01*
X116558857Y-30692819D02*
X116749333Y-30692819D01*
X116749333Y-30692819D02*
X116844571Y-30740438D01*
X116844571Y-30740438D02*
X116939809Y-30835676D01*
X116939809Y-30835676D02*
X116987428Y-31026152D01*
X116987428Y-31026152D02*
X116987428Y-31359485D01*
X116987428Y-31359485D02*
X116939809Y-31549961D01*
X116939809Y-31549961D02*
X116844571Y-31645200D01*
X116844571Y-31645200D02*
X116749333Y-31692819D01*
X116749333Y-31692819D02*
X116558857Y-31692819D01*
X117320762Y-30692819D02*
X117987428Y-30692819D01*
X117987428Y-30692819D02*
X117558857Y-31692819D01*
X156141200Y-93980523D02*
X156188819Y-93837666D01*
X156188819Y-93837666D02*
X156188819Y-93599571D01*
X156188819Y-93599571D02*
X156141200Y-93504333D01*
X156141200Y-93504333D02*
X156093580Y-93456714D01*
X156093580Y-93456714D02*
X155998342Y-93409095D01*
X155998342Y-93409095D02*
X155903104Y-93409095D01*
X155903104Y-93409095D02*
X155807866Y-93456714D01*
X155807866Y-93456714D02*
X155760247Y-93504333D01*
X155760247Y-93504333D02*
X155712628Y-93599571D01*
X155712628Y-93599571D02*
X155665009Y-93790047D01*
X155665009Y-93790047D02*
X155617390Y-93885285D01*
X155617390Y-93885285D02*
X155569771Y-93932904D01*
X155569771Y-93932904D02*
X155474533Y-93980523D01*
X155474533Y-93980523D02*
X155379295Y-93980523D01*
X155379295Y-93980523D02*
X155284057Y-93932904D01*
X155284057Y-93932904D02*
X155236438Y-93885285D01*
X155236438Y-93885285D02*
X155188819Y-93790047D01*
X155188819Y-93790047D02*
X155188819Y-93551952D01*
X155188819Y-93551952D02*
X155236438Y-93409095D01*
X155188819Y-93075761D02*
X156188819Y-92837666D01*
X156188819Y-92837666D02*
X155474533Y-92647190D01*
X155474533Y-92647190D02*
X156188819Y-92456714D01*
X156188819Y-92456714D02*
X155188819Y-92218619D01*
X155188819Y-91932904D02*
X155188819Y-91313857D01*
X155188819Y-91313857D02*
X155569771Y-91647190D01*
X155569771Y-91647190D02*
X155569771Y-91504333D01*
X155569771Y-91504333D02*
X155617390Y-91409095D01*
X155617390Y-91409095D02*
X155665009Y-91361476D01*
X155665009Y-91361476D02*
X155760247Y-91313857D01*
X155760247Y-91313857D02*
X155998342Y-91313857D01*
X155998342Y-91313857D02*
X156093580Y-91361476D01*
X156093580Y-91361476D02*
X156141200Y-91409095D01*
X156141200Y-91409095D02*
X156188819Y-91504333D01*
X156188819Y-91504333D02*
X156188819Y-91790047D01*
X156188819Y-91790047D02*
X156141200Y-91885285D01*
X156141200Y-91885285D02*
X156093580Y-91932904D01*
X155188819Y-90409095D02*
X155188819Y-90885285D01*
X155188819Y-90885285D02*
X155665009Y-90932904D01*
X155665009Y-90932904D02*
X155617390Y-90885285D01*
X155617390Y-90885285D02*
X155569771Y-90790047D01*
X155569771Y-90790047D02*
X155569771Y-90551952D01*
X155569771Y-90551952D02*
X155617390Y-90456714D01*
X155617390Y-90456714D02*
X155665009Y-90409095D01*
X155665009Y-90409095D02*
X155760247Y-90361476D01*
X155760247Y-90361476D02*
X155998342Y-90361476D01*
X155998342Y-90361476D02*
X156093580Y-90409095D01*
X156093580Y-90409095D02*
X156141200Y-90456714D01*
X156141200Y-90456714D02*
X156188819Y-90551952D01*
X156188819Y-90551952D02*
X156188819Y-90790047D01*
X156188819Y-90790047D02*
X156141200Y-90885285D01*
X156141200Y-90885285D02*
X156093580Y-90932904D01*
X149591819Y-53152285D02*
X148591819Y-53152285D01*
X148591819Y-53152285D02*
X148591819Y-52914190D01*
X148591819Y-52914190D02*
X148639438Y-52771333D01*
X148639438Y-52771333D02*
X148734676Y-52676095D01*
X148734676Y-52676095D02*
X148829914Y-52628476D01*
X148829914Y-52628476D02*
X149020390Y-52580857D01*
X149020390Y-52580857D02*
X149163247Y-52580857D01*
X149163247Y-52580857D02*
X149353723Y-52628476D01*
X149353723Y-52628476D02*
X149448961Y-52676095D01*
X149448961Y-52676095D02*
X149544200Y-52771333D01*
X149544200Y-52771333D02*
X149591819Y-52914190D01*
X149591819Y-52914190D02*
X149591819Y-53152285D01*
X149591819Y-51628476D02*
X149591819Y-52199904D01*
X149591819Y-51914190D02*
X148591819Y-51914190D01*
X148591819Y-51914190D02*
X148734676Y-52009428D01*
X148734676Y-52009428D02*
X148829914Y-52104666D01*
X148829914Y-52104666D02*
X148877533Y-52199904D01*
X149591819Y-51152285D02*
X149591819Y-50961809D01*
X149591819Y-50961809D02*
X149544200Y-50866571D01*
X149544200Y-50866571D02*
X149496580Y-50818952D01*
X149496580Y-50818952D02*
X149353723Y-50723714D01*
X149353723Y-50723714D02*
X149163247Y-50676095D01*
X149163247Y-50676095D02*
X148782295Y-50676095D01*
X148782295Y-50676095D02*
X148687057Y-50723714D01*
X148687057Y-50723714D02*
X148639438Y-50771333D01*
X148639438Y-50771333D02*
X148591819Y-50866571D01*
X148591819Y-50866571D02*
X148591819Y-51057047D01*
X148591819Y-51057047D02*
X148639438Y-51152285D01*
X148639438Y-51152285D02*
X148687057Y-51199904D01*
X148687057Y-51199904D02*
X148782295Y-51247523D01*
X148782295Y-51247523D02*
X149020390Y-51247523D01*
X149020390Y-51247523D02*
X149115628Y-51199904D01*
X149115628Y-51199904D02*
X149163247Y-51152285D01*
X149163247Y-51152285D02*
X149210866Y-51057047D01*
X149210866Y-51057047D02*
X149210866Y-50866571D01*
X149210866Y-50866571D02*
X149163247Y-50771333D01*
X149163247Y-50771333D02*
X149115628Y-50723714D01*
X149115628Y-50723714D02*
X149020390Y-50676095D01*
X106086200Y-108550523D02*
X106133819Y-108407666D01*
X106133819Y-108407666D02*
X106133819Y-108169571D01*
X106133819Y-108169571D02*
X106086200Y-108074333D01*
X106086200Y-108074333D02*
X106038580Y-108026714D01*
X106038580Y-108026714D02*
X105943342Y-107979095D01*
X105943342Y-107979095D02*
X105848104Y-107979095D01*
X105848104Y-107979095D02*
X105752866Y-108026714D01*
X105752866Y-108026714D02*
X105705247Y-108074333D01*
X105705247Y-108074333D02*
X105657628Y-108169571D01*
X105657628Y-108169571D02*
X105610009Y-108360047D01*
X105610009Y-108360047D02*
X105562390Y-108455285D01*
X105562390Y-108455285D02*
X105514771Y-108502904D01*
X105514771Y-108502904D02*
X105419533Y-108550523D01*
X105419533Y-108550523D02*
X105324295Y-108550523D01*
X105324295Y-108550523D02*
X105229057Y-108502904D01*
X105229057Y-108502904D02*
X105181438Y-108455285D01*
X105181438Y-108455285D02*
X105133819Y-108360047D01*
X105133819Y-108360047D02*
X105133819Y-108121952D01*
X105133819Y-108121952D02*
X105181438Y-107979095D01*
X105133819Y-107645761D02*
X106133819Y-107407666D01*
X106133819Y-107407666D02*
X105419533Y-107217190D01*
X105419533Y-107217190D02*
X106133819Y-107026714D01*
X106133819Y-107026714D02*
X105133819Y-106788619D01*
X106133819Y-105883857D02*
X106133819Y-106455285D01*
X106133819Y-106169571D02*
X105133819Y-106169571D01*
X105133819Y-106169571D02*
X105276676Y-106264809D01*
X105276676Y-106264809D02*
X105371914Y-106360047D01*
X105371914Y-106360047D02*
X105419533Y-106455285D01*
X105467152Y-105026714D02*
X106133819Y-105026714D01*
X105086200Y-105264809D02*
X105800485Y-105502904D01*
X105800485Y-105502904D02*
X105800485Y-104883857D01*
X99807819Y-53157285D02*
X98807819Y-53157285D01*
X98807819Y-53157285D02*
X98807819Y-52919190D01*
X98807819Y-52919190D02*
X98855438Y-52776333D01*
X98855438Y-52776333D02*
X98950676Y-52681095D01*
X98950676Y-52681095D02*
X99045914Y-52633476D01*
X99045914Y-52633476D02*
X99236390Y-52585857D01*
X99236390Y-52585857D02*
X99379247Y-52585857D01*
X99379247Y-52585857D02*
X99569723Y-52633476D01*
X99569723Y-52633476D02*
X99664961Y-52681095D01*
X99664961Y-52681095D02*
X99760200Y-52776333D01*
X99760200Y-52776333D02*
X99807819Y-52919190D01*
X99807819Y-52919190D02*
X99807819Y-53157285D01*
X99807819Y-51633476D02*
X99807819Y-52204904D01*
X99807819Y-51919190D02*
X98807819Y-51919190D01*
X98807819Y-51919190D02*
X98950676Y-52014428D01*
X98950676Y-52014428D02*
X99045914Y-52109666D01*
X99045914Y-52109666D02*
X99093533Y-52204904D01*
X98903057Y-51252523D02*
X98855438Y-51204904D01*
X98855438Y-51204904D02*
X98807819Y-51109666D01*
X98807819Y-51109666D02*
X98807819Y-50871571D01*
X98807819Y-50871571D02*
X98855438Y-50776333D01*
X98855438Y-50776333D02*
X98903057Y-50728714D01*
X98903057Y-50728714D02*
X98998295Y-50681095D01*
X98998295Y-50681095D02*
X99093533Y-50681095D01*
X99093533Y-50681095D02*
X99236390Y-50728714D01*
X99236390Y-50728714D02*
X99807819Y-51300142D01*
X99807819Y-51300142D02*
X99807819Y-50681095D01*
X118659200Y-108423523D02*
X118706819Y-108280666D01*
X118706819Y-108280666D02*
X118706819Y-108042571D01*
X118706819Y-108042571D02*
X118659200Y-107947333D01*
X118659200Y-107947333D02*
X118611580Y-107899714D01*
X118611580Y-107899714D02*
X118516342Y-107852095D01*
X118516342Y-107852095D02*
X118421104Y-107852095D01*
X118421104Y-107852095D02*
X118325866Y-107899714D01*
X118325866Y-107899714D02*
X118278247Y-107947333D01*
X118278247Y-107947333D02*
X118230628Y-108042571D01*
X118230628Y-108042571D02*
X118183009Y-108233047D01*
X118183009Y-108233047D02*
X118135390Y-108328285D01*
X118135390Y-108328285D02*
X118087771Y-108375904D01*
X118087771Y-108375904D02*
X117992533Y-108423523D01*
X117992533Y-108423523D02*
X117897295Y-108423523D01*
X117897295Y-108423523D02*
X117802057Y-108375904D01*
X117802057Y-108375904D02*
X117754438Y-108328285D01*
X117754438Y-108328285D02*
X117706819Y-108233047D01*
X117706819Y-108233047D02*
X117706819Y-107994952D01*
X117706819Y-107994952D02*
X117754438Y-107852095D01*
X117706819Y-107518761D02*
X118706819Y-107280666D01*
X118706819Y-107280666D02*
X117992533Y-107090190D01*
X117992533Y-107090190D02*
X118706819Y-106899714D01*
X118706819Y-106899714D02*
X117706819Y-106661619D01*
X118706819Y-105756857D02*
X118706819Y-106328285D01*
X118706819Y-106042571D02*
X117706819Y-106042571D01*
X117706819Y-106042571D02*
X117849676Y-106137809D01*
X117849676Y-106137809D02*
X117944914Y-106233047D01*
X117944914Y-106233047D02*
X117992533Y-106328285D01*
X118706819Y-105280666D02*
X118706819Y-105090190D01*
X118706819Y-105090190D02*
X118659200Y-104994952D01*
X118659200Y-104994952D02*
X118611580Y-104947333D01*
X118611580Y-104947333D02*
X118468723Y-104852095D01*
X118468723Y-104852095D02*
X118278247Y-104804476D01*
X118278247Y-104804476D02*
X117897295Y-104804476D01*
X117897295Y-104804476D02*
X117802057Y-104852095D01*
X117802057Y-104852095D02*
X117754438Y-104899714D01*
X117754438Y-104899714D02*
X117706819Y-104994952D01*
X117706819Y-104994952D02*
X117706819Y-105185428D01*
X117706819Y-105185428D02*
X117754438Y-105280666D01*
X117754438Y-105280666D02*
X117802057Y-105328285D01*
X117802057Y-105328285D02*
X117897295Y-105375904D01*
X117897295Y-105375904D02*
X118135390Y-105375904D01*
X118135390Y-105375904D02*
X118230628Y-105328285D01*
X118230628Y-105328285D02*
X118278247Y-105280666D01*
X118278247Y-105280666D02*
X118325866Y-105185428D01*
X118325866Y-105185428D02*
X118325866Y-104994952D01*
X118325866Y-104994952D02*
X118278247Y-104899714D01*
X118278247Y-104899714D02*
X118230628Y-104852095D01*
X118230628Y-104852095D02*
X118135390Y-104804476D01*
X131088200Y-123028523D02*
X131135819Y-122885666D01*
X131135819Y-122885666D02*
X131135819Y-122647571D01*
X131135819Y-122647571D02*
X131088200Y-122552333D01*
X131088200Y-122552333D02*
X131040580Y-122504714D01*
X131040580Y-122504714D02*
X130945342Y-122457095D01*
X130945342Y-122457095D02*
X130850104Y-122457095D01*
X130850104Y-122457095D02*
X130754866Y-122504714D01*
X130754866Y-122504714D02*
X130707247Y-122552333D01*
X130707247Y-122552333D02*
X130659628Y-122647571D01*
X130659628Y-122647571D02*
X130612009Y-122838047D01*
X130612009Y-122838047D02*
X130564390Y-122933285D01*
X130564390Y-122933285D02*
X130516771Y-122980904D01*
X130516771Y-122980904D02*
X130421533Y-123028523D01*
X130421533Y-123028523D02*
X130326295Y-123028523D01*
X130326295Y-123028523D02*
X130231057Y-122980904D01*
X130231057Y-122980904D02*
X130183438Y-122933285D01*
X130183438Y-122933285D02*
X130135819Y-122838047D01*
X130135819Y-122838047D02*
X130135819Y-122599952D01*
X130135819Y-122599952D02*
X130183438Y-122457095D01*
X130135819Y-122123761D02*
X131135819Y-121885666D01*
X131135819Y-121885666D02*
X130421533Y-121695190D01*
X130421533Y-121695190D02*
X131135819Y-121504714D01*
X131135819Y-121504714D02*
X130135819Y-121266619D01*
X130231057Y-120933285D02*
X130183438Y-120885666D01*
X130183438Y-120885666D02*
X130135819Y-120790428D01*
X130135819Y-120790428D02*
X130135819Y-120552333D01*
X130135819Y-120552333D02*
X130183438Y-120457095D01*
X130183438Y-120457095D02*
X130231057Y-120409476D01*
X130231057Y-120409476D02*
X130326295Y-120361857D01*
X130326295Y-120361857D02*
X130421533Y-120361857D01*
X130421533Y-120361857D02*
X130564390Y-120409476D01*
X130564390Y-120409476D02*
X131135819Y-120980904D01*
X131135819Y-120980904D02*
X131135819Y-120361857D01*
X130135819Y-120028523D02*
X130135819Y-119409476D01*
X130135819Y-119409476D02*
X130516771Y-119742809D01*
X130516771Y-119742809D02*
X130516771Y-119599952D01*
X130516771Y-119599952D02*
X130564390Y-119504714D01*
X130564390Y-119504714D02*
X130612009Y-119457095D01*
X130612009Y-119457095D02*
X130707247Y-119409476D01*
X130707247Y-119409476D02*
X130945342Y-119409476D01*
X130945342Y-119409476D02*
X131040580Y-119457095D01*
X131040580Y-119457095D02*
X131088200Y-119504714D01*
X131088200Y-119504714D02*
X131135819Y-119599952D01*
X131135819Y-119599952D02*
X131135819Y-119885666D01*
X131135819Y-119885666D02*
X131088200Y-119980904D01*
X131088200Y-119980904D02*
X131040580Y-120028523D01*
X86265789Y-129401555D02*
X86218170Y-129449175D01*
X86218170Y-129449175D02*
X86075313Y-129496794D01*
X86075313Y-129496794D02*
X85980075Y-129496794D01*
X85980075Y-129496794D02*
X85837218Y-129449175D01*
X85837218Y-129449175D02*
X85741980Y-129353936D01*
X85741980Y-129353936D02*
X85694361Y-129258698D01*
X85694361Y-129258698D02*
X85646742Y-129068222D01*
X85646742Y-129068222D02*
X85646742Y-128925365D01*
X85646742Y-128925365D02*
X85694361Y-128734889D01*
X85694361Y-128734889D02*
X85741980Y-128639651D01*
X85741980Y-128639651D02*
X85837218Y-128544413D01*
X85837218Y-128544413D02*
X85980075Y-128496794D01*
X85980075Y-128496794D02*
X86075313Y-128496794D01*
X86075313Y-128496794D02*
X86218170Y-128544413D01*
X86218170Y-128544413D02*
X86265789Y-128592032D01*
X87218170Y-129496794D02*
X86646742Y-129496794D01*
X86932456Y-129496794D02*
X86932456Y-128496794D01*
X86932456Y-128496794D02*
X86837218Y-128639651D01*
X86837218Y-128639651D02*
X86741980Y-128734889D01*
X86741980Y-128734889D02*
X86646742Y-128782508D01*
X87551504Y-128496794D02*
X88218170Y-128496794D01*
X88218170Y-128496794D02*
X87789599Y-129496794D01*
X143424200Y-108550523D02*
X143471819Y-108407666D01*
X143471819Y-108407666D02*
X143471819Y-108169571D01*
X143471819Y-108169571D02*
X143424200Y-108074333D01*
X143424200Y-108074333D02*
X143376580Y-108026714D01*
X143376580Y-108026714D02*
X143281342Y-107979095D01*
X143281342Y-107979095D02*
X143186104Y-107979095D01*
X143186104Y-107979095D02*
X143090866Y-108026714D01*
X143090866Y-108026714D02*
X143043247Y-108074333D01*
X143043247Y-108074333D02*
X142995628Y-108169571D01*
X142995628Y-108169571D02*
X142948009Y-108360047D01*
X142948009Y-108360047D02*
X142900390Y-108455285D01*
X142900390Y-108455285D02*
X142852771Y-108502904D01*
X142852771Y-108502904D02*
X142757533Y-108550523D01*
X142757533Y-108550523D02*
X142662295Y-108550523D01*
X142662295Y-108550523D02*
X142567057Y-108502904D01*
X142567057Y-108502904D02*
X142519438Y-108455285D01*
X142519438Y-108455285D02*
X142471819Y-108360047D01*
X142471819Y-108360047D02*
X142471819Y-108121952D01*
X142471819Y-108121952D02*
X142519438Y-107979095D01*
X142471819Y-107645761D02*
X143471819Y-107407666D01*
X143471819Y-107407666D02*
X142757533Y-107217190D01*
X142757533Y-107217190D02*
X143471819Y-107026714D01*
X143471819Y-107026714D02*
X142471819Y-106788619D01*
X142567057Y-106455285D02*
X142519438Y-106407666D01*
X142519438Y-106407666D02*
X142471819Y-106312428D01*
X142471819Y-106312428D02*
X142471819Y-106074333D01*
X142471819Y-106074333D02*
X142519438Y-105979095D01*
X142519438Y-105979095D02*
X142567057Y-105931476D01*
X142567057Y-105931476D02*
X142662295Y-105883857D01*
X142662295Y-105883857D02*
X142757533Y-105883857D01*
X142757533Y-105883857D02*
X142900390Y-105931476D01*
X142900390Y-105931476D02*
X143471819Y-106502904D01*
X143471819Y-106502904D02*
X143471819Y-105883857D01*
X143471819Y-105407666D02*
X143471819Y-105217190D01*
X143471819Y-105217190D02*
X143424200Y-105121952D01*
X143424200Y-105121952D02*
X143376580Y-105074333D01*
X143376580Y-105074333D02*
X143233723Y-104979095D01*
X143233723Y-104979095D02*
X143043247Y-104931476D01*
X143043247Y-104931476D02*
X142662295Y-104931476D01*
X142662295Y-104931476D02*
X142567057Y-104979095D01*
X142567057Y-104979095D02*
X142519438Y-105026714D01*
X142519438Y-105026714D02*
X142471819Y-105121952D01*
X142471819Y-105121952D02*
X142471819Y-105312428D01*
X142471819Y-105312428D02*
X142519438Y-105407666D01*
X142519438Y-105407666D02*
X142567057Y-105455285D01*
X142567057Y-105455285D02*
X142662295Y-105502904D01*
X142662295Y-105502904D02*
X142900390Y-105502904D01*
X142900390Y-105502904D02*
X142995628Y-105455285D01*
X142995628Y-105455285D02*
X143043247Y-105407666D01*
X143043247Y-105407666D02*
X143090866Y-105312428D01*
X143090866Y-105312428D02*
X143090866Y-105121952D01*
X143090866Y-105121952D02*
X143043247Y-105026714D01*
X143043247Y-105026714D02*
X142995628Y-104979095D01*
X142995628Y-104979095D02*
X142900390Y-104931476D01*
X131105200Y-93853523D02*
X131152819Y-93710666D01*
X131152819Y-93710666D02*
X131152819Y-93472571D01*
X131152819Y-93472571D02*
X131105200Y-93377333D01*
X131105200Y-93377333D02*
X131057580Y-93329714D01*
X131057580Y-93329714D02*
X130962342Y-93282095D01*
X130962342Y-93282095D02*
X130867104Y-93282095D01*
X130867104Y-93282095D02*
X130771866Y-93329714D01*
X130771866Y-93329714D02*
X130724247Y-93377333D01*
X130724247Y-93377333D02*
X130676628Y-93472571D01*
X130676628Y-93472571D02*
X130629009Y-93663047D01*
X130629009Y-93663047D02*
X130581390Y-93758285D01*
X130581390Y-93758285D02*
X130533771Y-93805904D01*
X130533771Y-93805904D02*
X130438533Y-93853523D01*
X130438533Y-93853523D02*
X130343295Y-93853523D01*
X130343295Y-93853523D02*
X130248057Y-93805904D01*
X130248057Y-93805904D02*
X130200438Y-93758285D01*
X130200438Y-93758285D02*
X130152819Y-93663047D01*
X130152819Y-93663047D02*
X130152819Y-93424952D01*
X130152819Y-93424952D02*
X130200438Y-93282095D01*
X130152819Y-92948761D02*
X131152819Y-92710666D01*
X131152819Y-92710666D02*
X130438533Y-92520190D01*
X130438533Y-92520190D02*
X131152819Y-92329714D01*
X131152819Y-92329714D02*
X130152819Y-92091619D01*
X130248057Y-91758285D02*
X130200438Y-91710666D01*
X130200438Y-91710666D02*
X130152819Y-91615428D01*
X130152819Y-91615428D02*
X130152819Y-91377333D01*
X130152819Y-91377333D02*
X130200438Y-91282095D01*
X130200438Y-91282095D02*
X130248057Y-91234476D01*
X130248057Y-91234476D02*
X130343295Y-91186857D01*
X130343295Y-91186857D02*
X130438533Y-91186857D01*
X130438533Y-91186857D02*
X130581390Y-91234476D01*
X130581390Y-91234476D02*
X131152819Y-91805904D01*
X131152819Y-91805904D02*
X131152819Y-91186857D01*
X130152819Y-90282095D02*
X130152819Y-90758285D01*
X130152819Y-90758285D02*
X130629009Y-90805904D01*
X130629009Y-90805904D02*
X130581390Y-90758285D01*
X130581390Y-90758285D02*
X130533771Y-90663047D01*
X130533771Y-90663047D02*
X130533771Y-90424952D01*
X130533771Y-90424952D02*
X130581390Y-90329714D01*
X130581390Y-90329714D02*
X130629009Y-90282095D01*
X130629009Y-90282095D02*
X130724247Y-90234476D01*
X130724247Y-90234476D02*
X130962342Y-90234476D01*
X130962342Y-90234476D02*
X131057580Y-90282095D01*
X131057580Y-90282095D02*
X131105200Y-90329714D01*
X131105200Y-90329714D02*
X131152819Y-90424952D01*
X131152819Y-90424952D02*
X131152819Y-90663047D01*
X131152819Y-90663047D02*
X131105200Y-90758285D01*
X131105200Y-90758285D02*
X131057580Y-90805904D01*
X93605222Y-131047603D02*
X93271889Y-130571412D01*
X93033794Y-131047603D02*
X93033794Y-130047603D01*
X93033794Y-130047603D02*
X93414746Y-130047603D01*
X93414746Y-130047603D02*
X93509984Y-130095222D01*
X93509984Y-130095222D02*
X93557603Y-130142841D01*
X93557603Y-130142841D02*
X93605222Y-130238079D01*
X93605222Y-130238079D02*
X93605222Y-130380936D01*
X93605222Y-130380936D02*
X93557603Y-130476174D01*
X93557603Y-130476174D02*
X93509984Y-130523793D01*
X93509984Y-130523793D02*
X93414746Y-130571412D01*
X93414746Y-130571412D02*
X93033794Y-130571412D01*
X94557603Y-131047603D02*
X93986175Y-131047603D01*
X94271889Y-131047603D02*
X94271889Y-130047603D01*
X94271889Y-130047603D02*
X94176651Y-130190460D01*
X94176651Y-130190460D02*
X94081413Y-130285698D01*
X94081413Y-130285698D02*
X93986175Y-130333317D01*
X95176651Y-130047603D02*
X95271889Y-130047603D01*
X95271889Y-130047603D02*
X95367127Y-130095222D01*
X95367127Y-130095222D02*
X95414746Y-130142841D01*
X95414746Y-130142841D02*
X95462365Y-130238079D01*
X95462365Y-130238079D02*
X95509984Y-130428555D01*
X95509984Y-130428555D02*
X95509984Y-130666650D01*
X95509984Y-130666650D02*
X95462365Y-130857126D01*
X95462365Y-130857126D02*
X95414746Y-130952364D01*
X95414746Y-130952364D02*
X95367127Y-130999984D01*
X95367127Y-130999984D02*
X95271889Y-131047603D01*
X95271889Y-131047603D02*
X95176651Y-131047603D01*
X95176651Y-131047603D02*
X95081413Y-130999984D01*
X95081413Y-130999984D02*
X95033794Y-130952364D01*
X95033794Y-130952364D02*
X94986175Y-130857126D01*
X94986175Y-130857126D02*
X94938556Y-130666650D01*
X94938556Y-130666650D02*
X94938556Y-130428555D01*
X94938556Y-130428555D02*
X94986175Y-130238079D01*
X94986175Y-130238079D02*
X95033794Y-130142841D01*
X95033794Y-130142841D02*
X95081413Y-130095222D01*
X95081413Y-130095222D02*
X95176651Y-130047603D01*
X155980200Y-108458523D02*
X156027819Y-108315666D01*
X156027819Y-108315666D02*
X156027819Y-108077571D01*
X156027819Y-108077571D02*
X155980200Y-107982333D01*
X155980200Y-107982333D02*
X155932580Y-107934714D01*
X155932580Y-107934714D02*
X155837342Y-107887095D01*
X155837342Y-107887095D02*
X155742104Y-107887095D01*
X155742104Y-107887095D02*
X155646866Y-107934714D01*
X155646866Y-107934714D02*
X155599247Y-107982333D01*
X155599247Y-107982333D02*
X155551628Y-108077571D01*
X155551628Y-108077571D02*
X155504009Y-108268047D01*
X155504009Y-108268047D02*
X155456390Y-108363285D01*
X155456390Y-108363285D02*
X155408771Y-108410904D01*
X155408771Y-108410904D02*
X155313533Y-108458523D01*
X155313533Y-108458523D02*
X155218295Y-108458523D01*
X155218295Y-108458523D02*
X155123057Y-108410904D01*
X155123057Y-108410904D02*
X155075438Y-108363285D01*
X155075438Y-108363285D02*
X155027819Y-108268047D01*
X155027819Y-108268047D02*
X155027819Y-108029952D01*
X155027819Y-108029952D02*
X155075438Y-107887095D01*
X155027819Y-107553761D02*
X156027819Y-107315666D01*
X156027819Y-107315666D02*
X155313533Y-107125190D01*
X155313533Y-107125190D02*
X156027819Y-106934714D01*
X156027819Y-106934714D02*
X155027819Y-106696619D01*
X155027819Y-106410904D02*
X155027819Y-105791857D01*
X155027819Y-105791857D02*
X155408771Y-106125190D01*
X155408771Y-106125190D02*
X155408771Y-105982333D01*
X155408771Y-105982333D02*
X155456390Y-105887095D01*
X155456390Y-105887095D02*
X155504009Y-105839476D01*
X155504009Y-105839476D02*
X155599247Y-105791857D01*
X155599247Y-105791857D02*
X155837342Y-105791857D01*
X155837342Y-105791857D02*
X155932580Y-105839476D01*
X155932580Y-105839476D02*
X155980200Y-105887095D01*
X155980200Y-105887095D02*
X156027819Y-105982333D01*
X156027819Y-105982333D02*
X156027819Y-106268047D01*
X156027819Y-106268047D02*
X155980200Y-106363285D01*
X155980200Y-106363285D02*
X155932580Y-106410904D01*
X155361152Y-104934714D02*
X156027819Y-104934714D01*
X154980200Y-105172809D02*
X155694485Y-105410904D01*
X155694485Y-105410904D02*
X155694485Y-104791857D01*
X118896200Y-93980523D02*
X118943819Y-93837666D01*
X118943819Y-93837666D02*
X118943819Y-93599571D01*
X118943819Y-93599571D02*
X118896200Y-93504333D01*
X118896200Y-93504333D02*
X118848580Y-93456714D01*
X118848580Y-93456714D02*
X118753342Y-93409095D01*
X118753342Y-93409095D02*
X118658104Y-93409095D01*
X118658104Y-93409095D02*
X118562866Y-93456714D01*
X118562866Y-93456714D02*
X118515247Y-93504333D01*
X118515247Y-93504333D02*
X118467628Y-93599571D01*
X118467628Y-93599571D02*
X118420009Y-93790047D01*
X118420009Y-93790047D02*
X118372390Y-93885285D01*
X118372390Y-93885285D02*
X118324771Y-93932904D01*
X118324771Y-93932904D02*
X118229533Y-93980523D01*
X118229533Y-93980523D02*
X118134295Y-93980523D01*
X118134295Y-93980523D02*
X118039057Y-93932904D01*
X118039057Y-93932904D02*
X117991438Y-93885285D01*
X117991438Y-93885285D02*
X117943819Y-93790047D01*
X117943819Y-93790047D02*
X117943819Y-93551952D01*
X117943819Y-93551952D02*
X117991438Y-93409095D01*
X117943819Y-93075761D02*
X118943819Y-92837666D01*
X118943819Y-92837666D02*
X118229533Y-92647190D01*
X118229533Y-92647190D02*
X118943819Y-92456714D01*
X118943819Y-92456714D02*
X117943819Y-92218619D01*
X118039057Y-91885285D02*
X117991438Y-91837666D01*
X117991438Y-91837666D02*
X117943819Y-91742428D01*
X117943819Y-91742428D02*
X117943819Y-91504333D01*
X117943819Y-91504333D02*
X117991438Y-91409095D01*
X117991438Y-91409095D02*
X118039057Y-91361476D01*
X118039057Y-91361476D02*
X118134295Y-91313857D01*
X118134295Y-91313857D02*
X118229533Y-91313857D01*
X118229533Y-91313857D02*
X118372390Y-91361476D01*
X118372390Y-91361476D02*
X118943819Y-91932904D01*
X118943819Y-91932904D02*
X118943819Y-91313857D01*
X117943819Y-90694809D02*
X117943819Y-90599571D01*
X117943819Y-90599571D02*
X117991438Y-90504333D01*
X117991438Y-90504333D02*
X118039057Y-90456714D01*
X118039057Y-90456714D02*
X118134295Y-90409095D01*
X118134295Y-90409095D02*
X118324771Y-90361476D01*
X118324771Y-90361476D02*
X118562866Y-90361476D01*
X118562866Y-90361476D02*
X118753342Y-90409095D01*
X118753342Y-90409095D02*
X118848580Y-90456714D01*
X118848580Y-90456714D02*
X118896200Y-90504333D01*
X118896200Y-90504333D02*
X118943819Y-90599571D01*
X118943819Y-90599571D02*
X118943819Y-90694809D01*
X118943819Y-90694809D02*
X118896200Y-90790047D01*
X118896200Y-90790047D02*
X118848580Y-90837666D01*
X118848580Y-90837666D02*
X118753342Y-90885285D01*
X118753342Y-90885285D02*
X118562866Y-90932904D01*
X118562866Y-90932904D02*
X118324771Y-90932904D01*
X118324771Y-90932904D02*
X118134295Y-90885285D01*
X118134295Y-90885285D02*
X118039057Y-90837666D01*
X118039057Y-90837666D02*
X117991438Y-90790047D01*
X117991438Y-90790047D02*
X117943819Y-90694809D01*
X148601032Y-136692648D02*
X148267699Y-136216457D01*
X148029604Y-136692648D02*
X148029604Y-135692648D01*
X148029604Y-135692648D02*
X148410556Y-135692648D01*
X148410556Y-135692648D02*
X148505794Y-135740267D01*
X148505794Y-135740267D02*
X148553413Y-135787886D01*
X148553413Y-135787886D02*
X148601032Y-135883124D01*
X148601032Y-135883124D02*
X148601032Y-136025981D01*
X148601032Y-136025981D02*
X148553413Y-136121219D01*
X148553413Y-136121219D02*
X148505794Y-136168838D01*
X148505794Y-136168838D02*
X148410556Y-136216457D01*
X148410556Y-136216457D02*
X148029604Y-136216457D01*
X148981985Y-135787886D02*
X149029604Y-135740267D01*
X149029604Y-135740267D02*
X149124842Y-135692648D01*
X149124842Y-135692648D02*
X149362937Y-135692648D01*
X149362937Y-135692648D02*
X149458175Y-135740267D01*
X149458175Y-135740267D02*
X149505794Y-135787886D01*
X149505794Y-135787886D02*
X149553413Y-135883124D01*
X149553413Y-135883124D02*
X149553413Y-135978362D01*
X149553413Y-135978362D02*
X149505794Y-136121219D01*
X149505794Y-136121219D02*
X148934366Y-136692648D01*
X148934366Y-136692648D02*
X149553413Y-136692648D01*
X150505794Y-136692648D02*
X149934366Y-136692648D01*
X150220080Y-136692648D02*
X150220080Y-135692648D01*
X150220080Y-135692648D02*
X150124842Y-135835505D01*
X150124842Y-135835505D02*
X150029604Y-135930743D01*
X150029604Y-135930743D02*
X149934366Y-135978362D01*
X72279819Y-135993094D02*
X71279819Y-135993094D01*
X71279819Y-135993094D02*
X71279819Y-135754999D01*
X71279819Y-135754999D02*
X71327438Y-135612142D01*
X71327438Y-135612142D02*
X71422676Y-135516904D01*
X71422676Y-135516904D02*
X71517914Y-135469285D01*
X71517914Y-135469285D02*
X71708390Y-135421666D01*
X71708390Y-135421666D02*
X71851247Y-135421666D01*
X71851247Y-135421666D02*
X72041723Y-135469285D01*
X72041723Y-135469285D02*
X72136961Y-135516904D01*
X72136961Y-135516904D02*
X72232200Y-135612142D01*
X72232200Y-135612142D02*
X72279819Y-135754999D01*
X72279819Y-135754999D02*
X72279819Y-135993094D01*
X72279819Y-134469285D02*
X72279819Y-135040713D01*
X72279819Y-134754999D02*
X71279819Y-134754999D01*
X71279819Y-134754999D02*
X71422676Y-134850237D01*
X71422676Y-134850237D02*
X71517914Y-134945475D01*
X71517914Y-134945475D02*
X71565533Y-135040713D01*
X72849819Y-139326904D02*
X71849819Y-139326904D01*
X72849819Y-138755476D02*
X72278390Y-139184047D01*
X71849819Y-138755476D02*
X72421247Y-139326904D01*
X81050200Y-79153332D02*
X81097819Y-79010475D01*
X81097819Y-79010475D02*
X81097819Y-78772380D01*
X81097819Y-78772380D02*
X81050200Y-78677142D01*
X81050200Y-78677142D02*
X81002580Y-78629523D01*
X81002580Y-78629523D02*
X80907342Y-78581904D01*
X80907342Y-78581904D02*
X80812104Y-78581904D01*
X80812104Y-78581904D02*
X80716866Y-78629523D01*
X80716866Y-78629523D02*
X80669247Y-78677142D01*
X80669247Y-78677142D02*
X80621628Y-78772380D01*
X80621628Y-78772380D02*
X80574009Y-78962856D01*
X80574009Y-78962856D02*
X80526390Y-79058094D01*
X80526390Y-79058094D02*
X80478771Y-79105713D01*
X80478771Y-79105713D02*
X80383533Y-79153332D01*
X80383533Y-79153332D02*
X80288295Y-79153332D01*
X80288295Y-79153332D02*
X80193057Y-79105713D01*
X80193057Y-79105713D02*
X80145438Y-79058094D01*
X80145438Y-79058094D02*
X80097819Y-78962856D01*
X80097819Y-78962856D02*
X80097819Y-78724761D01*
X80097819Y-78724761D02*
X80145438Y-78581904D01*
X80097819Y-78248570D02*
X81097819Y-78010475D01*
X81097819Y-78010475D02*
X80383533Y-77819999D01*
X80383533Y-77819999D02*
X81097819Y-77629523D01*
X81097819Y-77629523D02*
X80097819Y-77391428D01*
X80097819Y-76581904D02*
X80097819Y-76772380D01*
X80097819Y-76772380D02*
X80145438Y-76867618D01*
X80145438Y-76867618D02*
X80193057Y-76915237D01*
X80193057Y-76915237D02*
X80335914Y-77010475D01*
X80335914Y-77010475D02*
X80526390Y-77058094D01*
X80526390Y-77058094D02*
X80907342Y-77058094D01*
X80907342Y-77058094D02*
X81002580Y-77010475D01*
X81002580Y-77010475D02*
X81050200Y-76962856D01*
X81050200Y-76962856D02*
X81097819Y-76867618D01*
X81097819Y-76867618D02*
X81097819Y-76677142D01*
X81097819Y-76677142D02*
X81050200Y-76581904D01*
X81050200Y-76581904D02*
X81002580Y-76534285D01*
X81002580Y-76534285D02*
X80907342Y-76486666D01*
X80907342Y-76486666D02*
X80669247Y-76486666D01*
X80669247Y-76486666D02*
X80574009Y-76534285D01*
X80574009Y-76534285D02*
X80526390Y-76581904D01*
X80526390Y-76581904D02*
X80478771Y-76677142D01*
X80478771Y-76677142D02*
X80478771Y-76867618D01*
X80478771Y-76867618D02*
X80526390Y-76962856D01*
X80526390Y-76962856D02*
X80574009Y-77010475D01*
X80574009Y-77010475D02*
X80669247Y-77058094D01*
X148676574Y-138852490D02*
X148343241Y-138376299D01*
X148105146Y-138852490D02*
X148105146Y-137852490D01*
X148105146Y-137852490D02*
X148486098Y-137852490D01*
X148486098Y-137852490D02*
X148581336Y-137900109D01*
X148581336Y-137900109D02*
X148628955Y-137947728D01*
X148628955Y-137947728D02*
X148676574Y-138042966D01*
X148676574Y-138042966D02*
X148676574Y-138185823D01*
X148676574Y-138185823D02*
X148628955Y-138281061D01*
X148628955Y-138281061D02*
X148581336Y-138328680D01*
X148581336Y-138328680D02*
X148486098Y-138376299D01*
X148486098Y-138376299D02*
X148105146Y-138376299D01*
X149057527Y-137947728D02*
X149105146Y-137900109D01*
X149105146Y-137900109D02*
X149200384Y-137852490D01*
X149200384Y-137852490D02*
X149438479Y-137852490D01*
X149438479Y-137852490D02*
X149533717Y-137900109D01*
X149533717Y-137900109D02*
X149581336Y-137947728D01*
X149581336Y-137947728D02*
X149628955Y-138042966D01*
X149628955Y-138042966D02*
X149628955Y-138138204D01*
X149628955Y-138138204D02*
X149581336Y-138281061D01*
X149581336Y-138281061D02*
X149009908Y-138852490D01*
X149009908Y-138852490D02*
X149628955Y-138852490D01*
X150533717Y-137852490D02*
X150057527Y-137852490D01*
X150057527Y-137852490D02*
X150009908Y-138328680D01*
X150009908Y-138328680D02*
X150057527Y-138281061D01*
X150057527Y-138281061D02*
X150152765Y-138233442D01*
X150152765Y-138233442D02*
X150390860Y-138233442D01*
X150390860Y-138233442D02*
X150486098Y-138281061D01*
X150486098Y-138281061D02*
X150533717Y-138328680D01*
X150533717Y-138328680D02*
X150581336Y-138423918D01*
X150581336Y-138423918D02*
X150581336Y-138662013D01*
X150581336Y-138662013D02*
X150533717Y-138757251D01*
X150533717Y-138757251D02*
X150486098Y-138804871D01*
X150486098Y-138804871D02*
X150390860Y-138852490D01*
X150390860Y-138852490D02*
X150152765Y-138852490D01*
X150152765Y-138852490D02*
X150057527Y-138804871D01*
X150057527Y-138804871D02*
X150009908Y-138757251D01*
X117999819Y-135358094D02*
X116999819Y-135358094D01*
X116999819Y-135358094D02*
X116999819Y-135119999D01*
X116999819Y-135119999D02*
X117047438Y-134977142D01*
X117047438Y-134977142D02*
X117142676Y-134881904D01*
X117142676Y-134881904D02*
X117237914Y-134834285D01*
X117237914Y-134834285D02*
X117428390Y-134786666D01*
X117428390Y-134786666D02*
X117571247Y-134786666D01*
X117571247Y-134786666D02*
X117761723Y-134834285D01*
X117761723Y-134834285D02*
X117856961Y-134881904D01*
X117856961Y-134881904D02*
X117952200Y-134977142D01*
X117952200Y-134977142D02*
X117999819Y-135119999D01*
X117999819Y-135119999D02*
X117999819Y-135358094D01*
X116999819Y-133881904D02*
X116999819Y-134358094D01*
X116999819Y-134358094D02*
X117476009Y-134405713D01*
X117476009Y-134405713D02*
X117428390Y-134358094D01*
X117428390Y-134358094D02*
X117380771Y-134262856D01*
X117380771Y-134262856D02*
X117380771Y-134024761D01*
X117380771Y-134024761D02*
X117428390Y-133929523D01*
X117428390Y-133929523D02*
X117476009Y-133881904D01*
X117476009Y-133881904D02*
X117571247Y-133834285D01*
X117571247Y-133834285D02*
X117809342Y-133834285D01*
X117809342Y-133834285D02*
X117904580Y-133881904D01*
X117904580Y-133881904D02*
X117952200Y-133929523D01*
X117952200Y-133929523D02*
X117999819Y-134024761D01*
X117999819Y-134024761D02*
X117999819Y-134262856D01*
X117999819Y-134262856D02*
X117952200Y-134358094D01*
X117952200Y-134358094D02*
X117904580Y-134405713D01*
X118569819Y-138691904D02*
X117569819Y-138691904D01*
X118569819Y-138120476D02*
X117998390Y-138549047D01*
X117569819Y-138120476D02*
X118141247Y-138691904D01*
X124001904Y-31788057D02*
X123906666Y-31740438D01*
X123906666Y-31740438D02*
X123811428Y-31645200D01*
X123811428Y-31645200D02*
X123668571Y-31502342D01*
X123668571Y-31502342D02*
X123573333Y-31454723D01*
X123573333Y-31454723D02*
X123478095Y-31454723D01*
X123525714Y-31692819D02*
X123430476Y-31645200D01*
X123430476Y-31645200D02*
X123335238Y-31549961D01*
X123335238Y-31549961D02*
X123287619Y-31359485D01*
X123287619Y-31359485D02*
X123287619Y-31026152D01*
X123287619Y-31026152D02*
X123335238Y-30835676D01*
X123335238Y-30835676D02*
X123430476Y-30740438D01*
X123430476Y-30740438D02*
X123525714Y-30692819D01*
X123525714Y-30692819D02*
X123716190Y-30692819D01*
X123716190Y-30692819D02*
X123811428Y-30740438D01*
X123811428Y-30740438D02*
X123906666Y-30835676D01*
X123906666Y-30835676D02*
X123954285Y-31026152D01*
X123954285Y-31026152D02*
X123954285Y-31359485D01*
X123954285Y-31359485D02*
X123906666Y-31549961D01*
X123906666Y-31549961D02*
X123811428Y-31645200D01*
X123811428Y-31645200D02*
X123716190Y-31692819D01*
X123716190Y-31692819D02*
X123525714Y-31692819D01*
X124525714Y-31121390D02*
X124430476Y-31073771D01*
X124430476Y-31073771D02*
X124382857Y-31026152D01*
X124382857Y-31026152D02*
X124335238Y-30930914D01*
X124335238Y-30930914D02*
X124335238Y-30883295D01*
X124335238Y-30883295D02*
X124382857Y-30788057D01*
X124382857Y-30788057D02*
X124430476Y-30740438D01*
X124430476Y-30740438D02*
X124525714Y-30692819D01*
X124525714Y-30692819D02*
X124716190Y-30692819D01*
X124716190Y-30692819D02*
X124811428Y-30740438D01*
X124811428Y-30740438D02*
X124859047Y-30788057D01*
X124859047Y-30788057D02*
X124906666Y-30883295D01*
X124906666Y-30883295D02*
X124906666Y-30930914D01*
X124906666Y-30930914D02*
X124859047Y-31026152D01*
X124859047Y-31026152D02*
X124811428Y-31073771D01*
X124811428Y-31073771D02*
X124716190Y-31121390D01*
X124716190Y-31121390D02*
X124525714Y-31121390D01*
X124525714Y-31121390D02*
X124430476Y-31169009D01*
X124430476Y-31169009D02*
X124382857Y-31216628D01*
X124382857Y-31216628D02*
X124335238Y-31311866D01*
X124335238Y-31311866D02*
X124335238Y-31502342D01*
X124335238Y-31502342D02*
X124382857Y-31597580D01*
X124382857Y-31597580D02*
X124430476Y-31645200D01*
X124430476Y-31645200D02*
X124525714Y-31692819D01*
X124525714Y-31692819D02*
X124716190Y-31692819D01*
X124716190Y-31692819D02*
X124811428Y-31645200D01*
X124811428Y-31645200D02*
X124859047Y-31597580D01*
X124859047Y-31597580D02*
X124906666Y-31502342D01*
X124906666Y-31502342D02*
X124906666Y-31311866D01*
X124906666Y-31311866D02*
X124859047Y-31216628D01*
X124859047Y-31216628D02*
X124811428Y-31169009D01*
X124811428Y-31169009D02*
X124716190Y-31121390D01*
X81033200Y-108109332D02*
X81080819Y-107966475D01*
X81080819Y-107966475D02*
X81080819Y-107728380D01*
X81080819Y-107728380D02*
X81033200Y-107633142D01*
X81033200Y-107633142D02*
X80985580Y-107585523D01*
X80985580Y-107585523D02*
X80890342Y-107537904D01*
X80890342Y-107537904D02*
X80795104Y-107537904D01*
X80795104Y-107537904D02*
X80699866Y-107585523D01*
X80699866Y-107585523D02*
X80652247Y-107633142D01*
X80652247Y-107633142D02*
X80604628Y-107728380D01*
X80604628Y-107728380D02*
X80557009Y-107918856D01*
X80557009Y-107918856D02*
X80509390Y-108014094D01*
X80509390Y-108014094D02*
X80461771Y-108061713D01*
X80461771Y-108061713D02*
X80366533Y-108109332D01*
X80366533Y-108109332D02*
X80271295Y-108109332D01*
X80271295Y-108109332D02*
X80176057Y-108061713D01*
X80176057Y-108061713D02*
X80128438Y-108014094D01*
X80128438Y-108014094D02*
X80080819Y-107918856D01*
X80080819Y-107918856D02*
X80080819Y-107680761D01*
X80080819Y-107680761D02*
X80128438Y-107537904D01*
X80080819Y-107204570D02*
X81080819Y-106966475D01*
X81080819Y-106966475D02*
X80366533Y-106775999D01*
X80366533Y-106775999D02*
X81080819Y-106585523D01*
X81080819Y-106585523D02*
X80080819Y-106347428D01*
X80414152Y-105537904D02*
X81080819Y-105537904D01*
X80033200Y-105775999D02*
X80747485Y-106014094D01*
X80747485Y-106014094D02*
X80747485Y-105395047D01*
X114333819Y-44026857D02*
X113857628Y-44360190D01*
X114333819Y-44598285D02*
X113333819Y-44598285D01*
X113333819Y-44598285D02*
X113333819Y-44217333D01*
X113333819Y-44217333D02*
X113381438Y-44122095D01*
X113381438Y-44122095D02*
X113429057Y-44074476D01*
X113429057Y-44074476D02*
X113524295Y-44026857D01*
X113524295Y-44026857D02*
X113667152Y-44026857D01*
X113667152Y-44026857D02*
X113762390Y-44074476D01*
X113762390Y-44074476D02*
X113810009Y-44122095D01*
X113810009Y-44122095D02*
X113857628Y-44217333D01*
X113857628Y-44217333D02*
X113857628Y-44598285D01*
X113429057Y-43645904D02*
X113381438Y-43598285D01*
X113381438Y-43598285D02*
X113333819Y-43503047D01*
X113333819Y-43503047D02*
X113333819Y-43264952D01*
X113333819Y-43264952D02*
X113381438Y-43169714D01*
X113381438Y-43169714D02*
X113429057Y-43122095D01*
X113429057Y-43122095D02*
X113524295Y-43074476D01*
X113524295Y-43074476D02*
X113619533Y-43074476D01*
X113619533Y-43074476D02*
X113762390Y-43122095D01*
X113762390Y-43122095D02*
X114333819Y-43693523D01*
X114333819Y-43693523D02*
X114333819Y-43074476D01*
X114333819Y-42598285D02*
X114333819Y-42407809D01*
X114333819Y-42407809D02*
X114286200Y-42312571D01*
X114286200Y-42312571D02*
X114238580Y-42264952D01*
X114238580Y-42264952D02*
X114095723Y-42169714D01*
X114095723Y-42169714D02*
X113905247Y-42122095D01*
X113905247Y-42122095D02*
X113524295Y-42122095D01*
X113524295Y-42122095D02*
X113429057Y-42169714D01*
X113429057Y-42169714D02*
X113381438Y-42217333D01*
X113381438Y-42217333D02*
X113333819Y-42312571D01*
X113333819Y-42312571D02*
X113333819Y-42503047D01*
X113333819Y-42503047D02*
X113381438Y-42598285D01*
X113381438Y-42598285D02*
X113429057Y-42645904D01*
X113429057Y-42645904D02*
X113524295Y-42693523D01*
X113524295Y-42693523D02*
X113762390Y-42693523D01*
X113762390Y-42693523D02*
X113857628Y-42645904D01*
X113857628Y-42645904D02*
X113905247Y-42598285D01*
X113905247Y-42598285D02*
X113952866Y-42503047D01*
X113952866Y-42503047D02*
X113952866Y-42312571D01*
X113952866Y-42312571D02*
X113905247Y-42217333D01*
X113905247Y-42217333D02*
X113857628Y-42169714D01*
X113857628Y-42169714D02*
X113762390Y-42122095D01*
X107942142Y-136319819D02*
X107608809Y-135843628D01*
X107370714Y-136319819D02*
X107370714Y-135319819D01*
X107370714Y-135319819D02*
X107751666Y-135319819D01*
X107751666Y-135319819D02*
X107846904Y-135367438D01*
X107846904Y-135367438D02*
X107894523Y-135415057D01*
X107894523Y-135415057D02*
X107942142Y-135510295D01*
X107942142Y-135510295D02*
X107942142Y-135653152D01*
X107942142Y-135653152D02*
X107894523Y-135748390D01*
X107894523Y-135748390D02*
X107846904Y-135796009D01*
X107846904Y-135796009D02*
X107751666Y-135843628D01*
X107751666Y-135843628D02*
X107370714Y-135843628D01*
X108894523Y-136319819D02*
X108323095Y-136319819D01*
X108608809Y-136319819D02*
X108608809Y-135319819D01*
X108608809Y-135319819D02*
X108513571Y-135462676D01*
X108513571Y-135462676D02*
X108418333Y-135557914D01*
X108418333Y-135557914D02*
X108323095Y-135605533D01*
X109751666Y-135653152D02*
X109751666Y-136319819D01*
X109513571Y-135272200D02*
X109275476Y-135986485D01*
X109275476Y-135986485D02*
X109894523Y-135986485D01*
X143678200Y-79594523D02*
X143725819Y-79451666D01*
X143725819Y-79451666D02*
X143725819Y-79213571D01*
X143725819Y-79213571D02*
X143678200Y-79118333D01*
X143678200Y-79118333D02*
X143630580Y-79070714D01*
X143630580Y-79070714D02*
X143535342Y-79023095D01*
X143535342Y-79023095D02*
X143440104Y-79023095D01*
X143440104Y-79023095D02*
X143344866Y-79070714D01*
X143344866Y-79070714D02*
X143297247Y-79118333D01*
X143297247Y-79118333D02*
X143249628Y-79213571D01*
X143249628Y-79213571D02*
X143202009Y-79404047D01*
X143202009Y-79404047D02*
X143154390Y-79499285D01*
X143154390Y-79499285D02*
X143106771Y-79546904D01*
X143106771Y-79546904D02*
X143011533Y-79594523D01*
X143011533Y-79594523D02*
X142916295Y-79594523D01*
X142916295Y-79594523D02*
X142821057Y-79546904D01*
X142821057Y-79546904D02*
X142773438Y-79499285D01*
X142773438Y-79499285D02*
X142725819Y-79404047D01*
X142725819Y-79404047D02*
X142725819Y-79165952D01*
X142725819Y-79165952D02*
X142773438Y-79023095D01*
X142725819Y-78689761D02*
X143725819Y-78451666D01*
X143725819Y-78451666D02*
X143011533Y-78261190D01*
X143011533Y-78261190D02*
X143725819Y-78070714D01*
X143725819Y-78070714D02*
X142725819Y-77832619D01*
X142725819Y-77546904D02*
X142725819Y-76927857D01*
X142725819Y-76927857D02*
X143106771Y-77261190D01*
X143106771Y-77261190D02*
X143106771Y-77118333D01*
X143106771Y-77118333D02*
X143154390Y-77023095D01*
X143154390Y-77023095D02*
X143202009Y-76975476D01*
X143202009Y-76975476D02*
X143297247Y-76927857D01*
X143297247Y-76927857D02*
X143535342Y-76927857D01*
X143535342Y-76927857D02*
X143630580Y-76975476D01*
X143630580Y-76975476D02*
X143678200Y-77023095D01*
X143678200Y-77023095D02*
X143725819Y-77118333D01*
X143725819Y-77118333D02*
X143725819Y-77404047D01*
X143725819Y-77404047D02*
X143678200Y-77499285D01*
X143678200Y-77499285D02*
X143630580Y-77546904D01*
X143725819Y-75975476D02*
X143725819Y-76546904D01*
X143725819Y-76261190D02*
X142725819Y-76261190D01*
X142725819Y-76261190D02*
X142868676Y-76356428D01*
X142868676Y-76356428D02*
X142963914Y-76451666D01*
X142963914Y-76451666D02*
X143011533Y-76546904D01*
X81016200Y-122495332D02*
X81063819Y-122352475D01*
X81063819Y-122352475D02*
X81063819Y-122114380D01*
X81063819Y-122114380D02*
X81016200Y-122019142D01*
X81016200Y-122019142D02*
X80968580Y-121971523D01*
X80968580Y-121971523D02*
X80873342Y-121923904D01*
X80873342Y-121923904D02*
X80778104Y-121923904D01*
X80778104Y-121923904D02*
X80682866Y-121971523D01*
X80682866Y-121971523D02*
X80635247Y-122019142D01*
X80635247Y-122019142D02*
X80587628Y-122114380D01*
X80587628Y-122114380D02*
X80540009Y-122304856D01*
X80540009Y-122304856D02*
X80492390Y-122400094D01*
X80492390Y-122400094D02*
X80444771Y-122447713D01*
X80444771Y-122447713D02*
X80349533Y-122495332D01*
X80349533Y-122495332D02*
X80254295Y-122495332D01*
X80254295Y-122495332D02*
X80159057Y-122447713D01*
X80159057Y-122447713D02*
X80111438Y-122400094D01*
X80111438Y-122400094D02*
X80063819Y-122304856D01*
X80063819Y-122304856D02*
X80063819Y-122066761D01*
X80063819Y-122066761D02*
X80111438Y-121923904D01*
X80063819Y-121590570D02*
X81063819Y-121352475D01*
X81063819Y-121352475D02*
X80349533Y-121161999D01*
X80349533Y-121161999D02*
X81063819Y-120971523D01*
X81063819Y-120971523D02*
X80063819Y-120733428D01*
X80063819Y-120447713D02*
X80063819Y-119828666D01*
X80063819Y-119828666D02*
X80444771Y-120161999D01*
X80444771Y-120161999D02*
X80444771Y-120019142D01*
X80444771Y-120019142D02*
X80492390Y-119923904D01*
X80492390Y-119923904D02*
X80540009Y-119876285D01*
X80540009Y-119876285D02*
X80635247Y-119828666D01*
X80635247Y-119828666D02*
X80873342Y-119828666D01*
X80873342Y-119828666D02*
X80968580Y-119876285D01*
X80968580Y-119876285D02*
X81016200Y-119923904D01*
X81016200Y-119923904D02*
X81063819Y-120019142D01*
X81063819Y-120019142D02*
X81063819Y-120304856D01*
X81063819Y-120304856D02*
X81016200Y-120400094D01*
X81016200Y-120400094D02*
X80968580Y-120447713D01*
X144426286Y-31788057D02*
X144331048Y-31740438D01*
X144331048Y-31740438D02*
X144235810Y-31645200D01*
X144235810Y-31645200D02*
X144092953Y-31502342D01*
X144092953Y-31502342D02*
X143997715Y-31454723D01*
X143997715Y-31454723D02*
X143902477Y-31454723D01*
X143950096Y-31692819D02*
X143854858Y-31645200D01*
X143854858Y-31645200D02*
X143759620Y-31549961D01*
X143759620Y-31549961D02*
X143712001Y-31359485D01*
X143712001Y-31359485D02*
X143712001Y-31026152D01*
X143712001Y-31026152D02*
X143759620Y-30835676D01*
X143759620Y-30835676D02*
X143854858Y-30740438D01*
X143854858Y-30740438D02*
X143950096Y-30692819D01*
X143950096Y-30692819D02*
X144140572Y-30692819D01*
X144140572Y-30692819D02*
X144235810Y-30740438D01*
X144235810Y-30740438D02*
X144331048Y-30835676D01*
X144331048Y-30835676D02*
X144378667Y-31026152D01*
X144378667Y-31026152D02*
X144378667Y-31359485D01*
X144378667Y-31359485D02*
X144331048Y-31549961D01*
X144331048Y-31549961D02*
X144235810Y-31645200D01*
X144235810Y-31645200D02*
X144140572Y-31692819D01*
X144140572Y-31692819D02*
X143950096Y-31692819D01*
X145331048Y-31692819D02*
X144759620Y-31692819D01*
X145045334Y-31692819D02*
X145045334Y-30692819D01*
X145045334Y-30692819D02*
X144950096Y-30835676D01*
X144950096Y-30835676D02*
X144854858Y-30930914D01*
X144854858Y-30930914D02*
X144759620Y-30978533D01*
X146283429Y-31692819D02*
X145712001Y-31692819D01*
X145997715Y-31692819D02*
X145997715Y-30692819D01*
X145997715Y-30692819D02*
X145902477Y-30835676D01*
X145902477Y-30835676D02*
X145807239Y-30930914D01*
X145807239Y-30930914D02*
X145712001Y-30978533D01*
X141147661Y-130827090D02*
X140814328Y-130350899D01*
X140576233Y-130827090D02*
X140576233Y-129827090D01*
X140576233Y-129827090D02*
X140957185Y-129827090D01*
X140957185Y-129827090D02*
X141052423Y-129874709D01*
X141052423Y-129874709D02*
X141100042Y-129922328D01*
X141100042Y-129922328D02*
X141147661Y-130017566D01*
X141147661Y-130017566D02*
X141147661Y-130160423D01*
X141147661Y-130160423D02*
X141100042Y-130255661D01*
X141100042Y-130255661D02*
X141052423Y-130303280D01*
X141052423Y-130303280D02*
X140957185Y-130350899D01*
X140957185Y-130350899D02*
X140576233Y-130350899D01*
X142100042Y-130827090D02*
X141528614Y-130827090D01*
X141814328Y-130827090D02*
X141814328Y-129827090D01*
X141814328Y-129827090D02*
X141719090Y-129969947D01*
X141719090Y-129969947D02*
X141623852Y-130065185D01*
X141623852Y-130065185D02*
X141528614Y-130112804D01*
X143052423Y-130827090D02*
X142480995Y-130827090D01*
X142766709Y-130827090D02*
X142766709Y-129827090D01*
X142766709Y-129827090D02*
X142671471Y-129969947D01*
X142671471Y-129969947D02*
X142576233Y-130065185D01*
X142576233Y-130065185D02*
X142480995Y-130112804D01*
X135367819Y-53157285D02*
X134367819Y-53157285D01*
X134367819Y-53157285D02*
X134367819Y-52919190D01*
X134367819Y-52919190D02*
X134415438Y-52776333D01*
X134415438Y-52776333D02*
X134510676Y-52681095D01*
X134510676Y-52681095D02*
X134605914Y-52633476D01*
X134605914Y-52633476D02*
X134796390Y-52585857D01*
X134796390Y-52585857D02*
X134939247Y-52585857D01*
X134939247Y-52585857D02*
X135129723Y-52633476D01*
X135129723Y-52633476D02*
X135224961Y-52681095D01*
X135224961Y-52681095D02*
X135320200Y-52776333D01*
X135320200Y-52776333D02*
X135367819Y-52919190D01*
X135367819Y-52919190D02*
X135367819Y-53157285D01*
X135367819Y-51633476D02*
X135367819Y-52204904D01*
X135367819Y-51919190D02*
X134367819Y-51919190D01*
X134367819Y-51919190D02*
X134510676Y-52014428D01*
X134510676Y-52014428D02*
X134605914Y-52109666D01*
X134605914Y-52109666D02*
X134653533Y-52204904D01*
X134367819Y-51300142D02*
X134367819Y-50633476D01*
X134367819Y-50633476D02*
X135367819Y-51062047D01*
X108718147Y-134652986D02*
X108670528Y-134700606D01*
X108670528Y-134700606D02*
X108527671Y-134748225D01*
X108527671Y-134748225D02*
X108432433Y-134748225D01*
X108432433Y-134748225D02*
X108289576Y-134700606D01*
X108289576Y-134700606D02*
X108194338Y-134605367D01*
X108194338Y-134605367D02*
X108146719Y-134510129D01*
X108146719Y-134510129D02*
X108099100Y-134319653D01*
X108099100Y-134319653D02*
X108099100Y-134176796D01*
X108099100Y-134176796D02*
X108146719Y-133986320D01*
X108146719Y-133986320D02*
X108194338Y-133891082D01*
X108194338Y-133891082D02*
X108289576Y-133795844D01*
X108289576Y-133795844D02*
X108432433Y-133748225D01*
X108432433Y-133748225D02*
X108527671Y-133748225D01*
X108527671Y-133748225D02*
X108670528Y-133795844D01*
X108670528Y-133795844D02*
X108718147Y-133843463D01*
X109670528Y-134748225D02*
X109099100Y-134748225D01*
X109384814Y-134748225D02*
X109384814Y-133748225D01*
X109384814Y-133748225D02*
X109289576Y-133891082D01*
X109289576Y-133891082D02*
X109194338Y-133986320D01*
X109194338Y-133986320D02*
X109099100Y-134033939D01*
X110527671Y-134081558D02*
X110527671Y-134748225D01*
X110289576Y-133700606D02*
X110051481Y-134414891D01*
X110051481Y-134414891D02*
X110670528Y-134414891D01*
X77888333Y-131279819D02*
X77555000Y-130803628D01*
X77316905Y-131279819D02*
X77316905Y-130279819D01*
X77316905Y-130279819D02*
X77697857Y-130279819D01*
X77697857Y-130279819D02*
X77793095Y-130327438D01*
X77793095Y-130327438D02*
X77840714Y-130375057D01*
X77840714Y-130375057D02*
X77888333Y-130470295D01*
X77888333Y-130470295D02*
X77888333Y-130613152D01*
X77888333Y-130613152D02*
X77840714Y-130708390D01*
X77840714Y-130708390D02*
X77793095Y-130756009D01*
X77793095Y-130756009D02*
X77697857Y-130803628D01*
X77697857Y-130803628D02*
X77316905Y-130803628D01*
X78269286Y-130375057D02*
X78316905Y-130327438D01*
X78316905Y-130327438D02*
X78412143Y-130279819D01*
X78412143Y-130279819D02*
X78650238Y-130279819D01*
X78650238Y-130279819D02*
X78745476Y-130327438D01*
X78745476Y-130327438D02*
X78793095Y-130375057D01*
X78793095Y-130375057D02*
X78840714Y-130470295D01*
X78840714Y-130470295D02*
X78840714Y-130565533D01*
X78840714Y-130565533D02*
X78793095Y-130708390D01*
X78793095Y-130708390D02*
X78221667Y-131279819D01*
X78221667Y-131279819D02*
X78840714Y-131279819D01*
X136383819Y-44026857D02*
X135907628Y-44360190D01*
X136383819Y-44598285D02*
X135383819Y-44598285D01*
X135383819Y-44598285D02*
X135383819Y-44217333D01*
X135383819Y-44217333D02*
X135431438Y-44122095D01*
X135431438Y-44122095D02*
X135479057Y-44074476D01*
X135479057Y-44074476D02*
X135574295Y-44026857D01*
X135574295Y-44026857D02*
X135717152Y-44026857D01*
X135717152Y-44026857D02*
X135812390Y-44074476D01*
X135812390Y-44074476D02*
X135860009Y-44122095D01*
X135860009Y-44122095D02*
X135907628Y-44217333D01*
X135907628Y-44217333D02*
X135907628Y-44598285D01*
X135383819Y-43693523D02*
X135383819Y-43074476D01*
X135383819Y-43074476D02*
X135764771Y-43407809D01*
X135764771Y-43407809D02*
X135764771Y-43264952D01*
X135764771Y-43264952D02*
X135812390Y-43169714D01*
X135812390Y-43169714D02*
X135860009Y-43122095D01*
X135860009Y-43122095D02*
X135955247Y-43074476D01*
X135955247Y-43074476D02*
X136193342Y-43074476D01*
X136193342Y-43074476D02*
X136288580Y-43122095D01*
X136288580Y-43122095D02*
X136336200Y-43169714D01*
X136336200Y-43169714D02*
X136383819Y-43264952D01*
X136383819Y-43264952D02*
X136383819Y-43550666D01*
X136383819Y-43550666D02*
X136336200Y-43645904D01*
X136336200Y-43645904D02*
X136288580Y-43693523D01*
X135383819Y-42217333D02*
X135383819Y-42407809D01*
X135383819Y-42407809D02*
X135431438Y-42503047D01*
X135431438Y-42503047D02*
X135479057Y-42550666D01*
X135479057Y-42550666D02*
X135621914Y-42645904D01*
X135621914Y-42645904D02*
X135812390Y-42693523D01*
X135812390Y-42693523D02*
X136193342Y-42693523D01*
X136193342Y-42693523D02*
X136288580Y-42645904D01*
X136288580Y-42645904D02*
X136336200Y-42598285D01*
X136336200Y-42598285D02*
X136383819Y-42503047D01*
X136383819Y-42503047D02*
X136383819Y-42312571D01*
X136383819Y-42312571D02*
X136336200Y-42217333D01*
X136336200Y-42217333D02*
X136288580Y-42169714D01*
X136288580Y-42169714D02*
X136193342Y-42122095D01*
X136193342Y-42122095D02*
X135955247Y-42122095D01*
X135955247Y-42122095D02*
X135860009Y-42169714D01*
X135860009Y-42169714D02*
X135812390Y-42217333D01*
X135812390Y-42217333D02*
X135764771Y-42312571D01*
X135764771Y-42312571D02*
X135764771Y-42503047D01*
X135764771Y-42503047D02*
X135812390Y-42598285D01*
X135812390Y-42598285D02*
X135860009Y-42645904D01*
X135860009Y-42645904D02*
X135955247Y-42693523D01*
D11*
%TO.C,R28*%
X132738000Y-66684000D02*
X134337000Y-66684000D01*
X132738000Y-66684000D02*
X132738000Y-62819000D01*
X136079000Y-66684000D02*
X136838000Y-66684000D01*
X138579000Y-66684000D02*
X139338000Y-66684000D01*
X141078000Y-66684000D02*
X142678000Y-66684000D01*
X142678000Y-66684000D02*
X142678000Y-62819000D01*
X132738000Y-58309000D02*
X132738000Y-54444000D01*
X142678000Y-58309000D02*
X142678000Y-54444000D01*
X132738000Y-54444000D02*
X142678000Y-54444000D01*
%TO.C,D10*%
X115370000Y-66982000D02*
X115370000Y-61542000D01*
X115700000Y-66982000D02*
X115370000Y-66982000D01*
X117980000Y-66982000D02*
X118310000Y-66982000D01*
X118310000Y-66982000D02*
X118310000Y-61542000D01*
X115370000Y-66202000D02*
X118310000Y-66202000D01*
X115370000Y-66082000D02*
X118310000Y-66082000D01*
X115370000Y-65962000D02*
X118310000Y-65962000D01*
X115370000Y-61542000D02*
X115700000Y-61542000D01*
X118310000Y-61542000D02*
X117980000Y-61542000D01*
%TO.C,SW8*%
X80133000Y-115119000D02*
X82123000Y-115119000D01*
X80133000Y-127319000D02*
X80133000Y-115119000D01*
X87423000Y-115119000D02*
X85043000Y-115119000D01*
X90343000Y-115119000D02*
X92333000Y-115119000D01*
X92333000Y-115119000D02*
X92333000Y-127319000D01*
X92333000Y-127319000D02*
X80133000Y-127319000D01*
X88883000Y-121219000D02*
G75*
G02*
X83583000Y-121219000I-2650000J0D01*
G01*
X83583000Y-121219000D02*
G75*
G02*
X88883000Y-121219000I2650000J0D01*
G01*
%TO.C,R9*%
X93045000Y-134620000D02*
X96205000Y-134620000D01*
X93045000Y-134620000D02*
G75*
G02*
X91205000Y-134620000I-920000J0D01*
G01*
X91205000Y-134620000D02*
G75*
G02*
X93045000Y-134620000I920000J0D01*
G01*
%TO.C,SW5*%
X67509000Y-86233000D02*
X69499000Y-86233000D01*
X67509000Y-98433000D02*
X67509000Y-86233000D01*
X74799000Y-86233000D02*
X72419000Y-86233000D01*
X77719000Y-86233000D02*
X79709000Y-86233000D01*
X79709000Y-86233000D02*
X79709000Y-98433000D01*
X79709000Y-98433000D02*
X67509000Y-98433000D01*
X76259000Y-92333000D02*
G75*
G02*
X70959000Y-92333000I-2650000J0D01*
G01*
X70959000Y-92333000D02*
G75*
G02*
X76259000Y-92333000I2650000J0D01*
G01*
%TO.C,SW38*%
X155063000Y-115119000D02*
X157053000Y-115119000D01*
X155063000Y-127319000D02*
X155063000Y-115119000D01*
X162353000Y-115119000D02*
X159973000Y-115119000D01*
X165273000Y-115119000D02*
X167263000Y-115119000D01*
X167263000Y-115119000D02*
X167263000Y-127319000D01*
X167263000Y-127319000D02*
X155063000Y-127319000D01*
X163813000Y-121219000D02*
G75*
G02*
X158513000Y-121219000I-2650000J0D01*
G01*
X158513000Y-121219000D02*
G75*
G02*
X163813000Y-121219000I2650000J0D01*
G01*
%TO.C,SW26*%
X117725000Y-71685000D02*
X119715000Y-71685000D01*
X117725000Y-83885000D02*
X117725000Y-71685000D01*
X125015000Y-71685000D02*
X122635000Y-71685000D01*
X127935000Y-71685000D02*
X129925000Y-71685000D01*
X129925000Y-71685000D02*
X129925000Y-83885000D01*
X129925000Y-83885000D02*
X117725000Y-83885000D01*
X126475000Y-77785000D02*
G75*
G02*
X121175000Y-77785000I-2650000J0D01*
G01*
X121175000Y-77785000D02*
G75*
G02*
X126475000Y-77785000I2650000J0D01*
G01*
%TO.C,SW21*%
X105406000Y-71685000D02*
X107396000Y-71685000D01*
X105406000Y-83885000D02*
X105406000Y-71685000D01*
X112696000Y-71685000D02*
X110316000Y-71685000D01*
X115616000Y-71685000D02*
X117606000Y-71685000D01*
X117606000Y-71685000D02*
X117606000Y-83885000D01*
X117606000Y-83885000D02*
X105406000Y-83885000D01*
X114156000Y-77785000D02*
G75*
G02*
X108856000Y-77785000I-2650000J0D01*
G01*
X108856000Y-77785000D02*
G75*
G02*
X114156000Y-77785000I2650000J0D01*
G01*
%TO.C,D13*%
X104740516Y-50383000D02*
G75*
G02*
X104583608Y-53615335I-1235516J-1560000D01*
G01*
X104585000Y-50902039D02*
G75*
G02*
X104584837Y-52984130I-1080000J-1040961D01*
G01*
X102426392Y-53615335D02*
G75*
G02*
X102269484Y-50383000I1078608J1672335D01*
G01*
X102425163Y-52984130D02*
G75*
G02*
X102425000Y-50902039I1079837J1041130D01*
G01*
X104741000Y-50383000D02*
X104585000Y-50383000D01*
X102425000Y-50383000D02*
X102269000Y-50383000D01*
%TO.C,C2*%
X80473658Y-137589888D02*
X80473658Y-136899888D01*
X79053658Y-136899888D02*
X81893658Y-136899888D01*
X81893658Y-136899888D02*
X81893658Y-132859888D01*
X79053658Y-132859888D02*
X79053658Y-136899888D01*
X81893658Y-132859888D02*
X79053658Y-132859888D01*
X80473658Y-132169888D02*
X80473658Y-132859888D01*
%TO.C,R24*%
X150972000Y-138684000D02*
X147812000Y-138684000D01*
X152812000Y-138684000D02*
G75*
G02*
X150972000Y-138684000I-920000J0D01*
G01*
X150972000Y-138684000D02*
G75*
G02*
X152812000Y-138684000I920000J0D01*
G01*
%TO.C,C10*%
X123190000Y-135485000D02*
X123190000Y-134795000D01*
X121770000Y-134795000D02*
X124610000Y-134795000D01*
X124610000Y-134795000D02*
X124610000Y-130755000D01*
X121770000Y-130755000D02*
X121770000Y-134795000D01*
X124610000Y-130755000D02*
X121770000Y-130755000D01*
X123190000Y-130065000D02*
X123190000Y-130755000D01*
%TO.C,Q4*%
X94429715Y-36648000D02*
X98029715Y-36648000D01*
X94391237Y-36636478D02*
G75*
G02*
X96229715Y-32197999I1838478J1838478D01*
G01*
X96229715Y-32198000D02*
G75*
G02*
X98068193Y-36636478I0J-2600000D01*
G01*
%TO.C,SW24*%
X117471000Y-100514000D02*
X119461000Y-100514000D01*
X117471000Y-112714000D02*
X117471000Y-100514000D01*
X124761000Y-100514000D02*
X122381000Y-100514000D01*
X127681000Y-100514000D02*
X129671000Y-100514000D01*
X129671000Y-100514000D02*
X129671000Y-112714000D01*
X129671000Y-112714000D02*
X117471000Y-112714000D01*
X126221000Y-106614000D02*
G75*
G02*
X120921000Y-106614000I-2650000J0D01*
G01*
X120921000Y-106614000D02*
G75*
G02*
X126221000Y-106614000I2650000J0D01*
G01*
%TO.C,Q6*%
X108363429Y-36648000D02*
X111963429Y-36648000D01*
X108324951Y-36636478D02*
G75*
G02*
X110163429Y-32197999I1838478J1838478D01*
G01*
X110163429Y-32198000D02*
G75*
G02*
X112001907Y-36636478I0J-2600000D01*
G01*
%TO.C,SW13*%
X92706000Y-115119000D02*
X94696000Y-115119000D01*
X92706000Y-127319000D02*
X92706000Y-115119000D01*
X99996000Y-115119000D02*
X97616000Y-115119000D01*
X102916000Y-115119000D02*
X104906000Y-115119000D01*
X104906000Y-115119000D02*
X104906000Y-127319000D01*
X104906000Y-127319000D02*
X92706000Y-127319000D01*
X101456000Y-121219000D02*
G75*
G02*
X96156000Y-121219000I-2650000J0D01*
G01*
X96156000Y-121219000D02*
G75*
G02*
X101456000Y-121219000I2650000J0D01*
G01*
%TO.C,SW11*%
X80277000Y-71720000D02*
X82267000Y-71720000D01*
X80277000Y-83920000D02*
X80277000Y-71720000D01*
X87567000Y-71720000D02*
X85187000Y-71720000D01*
X90487000Y-71720000D02*
X92477000Y-71720000D01*
X92477000Y-71720000D02*
X92477000Y-83920000D01*
X92477000Y-83920000D02*
X80277000Y-83920000D01*
X89027000Y-77820000D02*
G75*
G02*
X83727000Y-77820000I-2650000J0D01*
G01*
X83727000Y-77820000D02*
G75*
G02*
X89027000Y-77820000I2650000J0D01*
G01*
%TO.C,R32*%
X125249000Y-45004000D02*
X125249000Y-41844000D01*
X126169000Y-45924000D02*
G75*
G02*
X124329000Y-45924000I-920000J0D01*
G01*
X124329000Y-45924000D02*
G75*
G02*
X126169000Y-45924000I920000J0D01*
G01*
%TO.C,SW9*%
X80133000Y-100641000D02*
X82123000Y-100641000D01*
X80133000Y-112841000D02*
X80133000Y-100641000D01*
X87423000Y-100641000D02*
X85043000Y-100641000D01*
X90343000Y-100641000D02*
X92333000Y-100641000D01*
X92333000Y-100641000D02*
X92333000Y-112841000D01*
X92333000Y-112841000D02*
X80133000Y-112841000D01*
X88883000Y-106741000D02*
G75*
G02*
X83583000Y-106741000I-2650000J0D01*
G01*
X83583000Y-106741000D02*
G75*
G02*
X88883000Y-106741000I2650000J0D01*
G01*
%TO.C,Q10*%
X138030857Y-32198000D02*
G75*
G02*
X139869335Y-36636478I0J-2600000D01*
G01*
X136192379Y-36636478D02*
G75*
G02*
X138030857Y-32197999I1838478J1838478D01*
G01*
X136230857Y-36648000D02*
X139830857Y-36648000D01*
%TO.C,U5*%
X73679000Y-60888000D02*
X73679000Y-64648000D01*
X73679000Y-64648000D02*
X74939000Y-64648000D01*
X80499000Y-60888000D02*
X80499000Y-64648000D01*
X80499000Y-64648000D02*
X79239000Y-64648000D01*
X80729000Y-59848000D02*
X80399000Y-59608000D01*
X80729000Y-59368000D01*
X80729000Y-59848000D01*
G36*
X80729000Y-59848000D02*
G01*
X80399000Y-59608000D01*
X80729000Y-59368000D01*
X80729000Y-59848000D01*
G37*
%TO.C,C3*%
X72540000Y-136640000D02*
X72540000Y-132600000D01*
X72540000Y-132600000D02*
X69700000Y-132600000D01*
X71120000Y-137330000D02*
X71120000Y-136640000D01*
X71120000Y-131910000D02*
X71120000Y-132600000D01*
X69700000Y-136640000D02*
X72540000Y-136640000D01*
X69700000Y-132600000D02*
X69700000Y-136640000D01*
%TO.C,SW41*%
X155334000Y-71720000D02*
X157324000Y-71720000D01*
X155334000Y-83920000D02*
X155334000Y-71720000D01*
X162624000Y-71720000D02*
X160244000Y-71720000D01*
X165544000Y-71720000D02*
X167534000Y-71720000D01*
X167534000Y-71720000D02*
X167534000Y-83920000D01*
X167534000Y-83920000D02*
X155334000Y-83920000D01*
X164084000Y-77820000D02*
G75*
G02*
X158784000Y-77820000I-2650000J0D01*
G01*
X158784000Y-77820000D02*
G75*
G02*
X164084000Y-77820000I2650000J0D01*
G01*
%TO.C,Q9*%
X131064000Y-32198000D02*
G75*
G02*
X132902478Y-36636478I0J-2600000D01*
G01*
X129225522Y-36636478D02*
G75*
G02*
X131064000Y-32197999I1838478J1838478D01*
G01*
X129264000Y-36648000D02*
X132864000Y-36648000D01*
%TO.C,SW36*%
X142617000Y-71685000D02*
X144607000Y-71685000D01*
X142617000Y-83885000D02*
X142617000Y-71685000D01*
X149907000Y-71685000D02*
X147527000Y-71685000D01*
X152827000Y-71685000D02*
X154817000Y-71685000D01*
X154817000Y-71685000D02*
X154817000Y-83885000D01*
X154817000Y-83885000D02*
X142617000Y-83885000D01*
X151367000Y-77785000D02*
G75*
G02*
X146067000Y-77785000I-2650000J0D01*
G01*
X146067000Y-77785000D02*
G75*
G02*
X151367000Y-77785000I2650000J0D01*
G01*
%TO.C,SW15*%
X92833000Y-86036000D02*
X94823000Y-86036000D01*
X92833000Y-98236000D02*
X92833000Y-86036000D01*
X100123000Y-86036000D02*
X97743000Y-86036000D01*
X103043000Y-86036000D02*
X105033000Y-86036000D01*
X105033000Y-86036000D02*
X105033000Y-98236000D01*
X105033000Y-98236000D02*
X92833000Y-98236000D01*
X101583000Y-92136000D02*
G75*
G02*
X96283000Y-92136000I-2650000J0D01*
G01*
X96283000Y-92136000D02*
G75*
G02*
X101583000Y-92136000I2650000J0D01*
G01*
%TO.C,D14*%
X111852516Y-50383000D02*
G75*
G02*
X111695608Y-53615335I-1235516J-1560000D01*
G01*
X111697000Y-50902039D02*
G75*
G02*
X111696837Y-52984130I-1080000J-1040961D01*
G01*
X109538392Y-53615335D02*
G75*
G02*
X109381484Y-50383000I1078608J1672335D01*
G01*
X109537163Y-52984130D02*
G75*
G02*
X109537000Y-50902039I1079837J1041130D01*
G01*
X111853000Y-50383000D02*
X111697000Y-50383000D01*
X109537000Y-50383000D02*
X109381000Y-50383000D01*
%TO.C,D16*%
X126076516Y-50383000D02*
G75*
G02*
X125919608Y-53615335I-1235516J-1560000D01*
G01*
X125921000Y-50902039D02*
G75*
G02*
X125920837Y-52984130I-1080000J-1040961D01*
G01*
X123762392Y-53615335D02*
G75*
G02*
X123605484Y-50383000I1078608J1672335D01*
G01*
X123761163Y-52984130D02*
G75*
G02*
X123761000Y-50902039I1079837J1041130D01*
G01*
X126077000Y-50383000D02*
X125921000Y-50383000D01*
X123761000Y-50383000D02*
X123605000Y-50383000D01*
%TO.C,R31*%
X122099000Y-45004000D02*
X122099000Y-41844000D01*
X123019000Y-45924000D02*
G75*
G02*
X121179000Y-45924000I-920000J0D01*
G01*
X121179000Y-45924000D02*
G75*
G02*
X123019000Y-45924000I920000J0D01*
G01*
%TO.C,SW2*%
X160130000Y-62545000D02*
G75*
G02*
X154830000Y-62545000I-2650000J0D01*
G01*
X154830000Y-62545000D02*
G75*
G02*
X160130000Y-62545000I2650000J0D01*
G01*
X151380000Y-68645000D02*
X151380000Y-56445000D01*
X163580000Y-68645000D02*
X151380000Y-68645000D01*
X151380000Y-56445000D02*
X153370000Y-56445000D01*
X158670000Y-56445000D02*
X156290000Y-56445000D01*
X161590000Y-56445000D02*
X163580000Y-56445000D01*
X163580000Y-56445000D02*
X163580000Y-68645000D01*
%TO.C,SW40*%
X155300000Y-86071000D02*
X157290000Y-86071000D01*
X155300000Y-98271000D02*
X155300000Y-86071000D01*
X162590000Y-86071000D02*
X160210000Y-86071000D01*
X165510000Y-86071000D02*
X167500000Y-86071000D01*
X167500000Y-86071000D02*
X167500000Y-98271000D01*
X167500000Y-98271000D02*
X155300000Y-98271000D01*
X164050000Y-92171000D02*
G75*
G02*
X158750000Y-92171000I-2650000J0D01*
G01*
X158750000Y-92171000D02*
G75*
G02*
X164050000Y-92171000I2650000J0D01*
G01*
%TO.C,SW18*%
X105025000Y-115119000D02*
X107015000Y-115119000D01*
X105025000Y-127319000D02*
X105025000Y-115119000D01*
X112315000Y-115119000D02*
X109935000Y-115119000D01*
X115235000Y-115119000D02*
X117225000Y-115119000D01*
X117225000Y-115119000D02*
X117225000Y-127319000D01*
X117225000Y-127319000D02*
X105025000Y-127319000D01*
X113775000Y-121219000D02*
G75*
G02*
X108475000Y-121219000I-2650000J0D01*
G01*
X108475000Y-121219000D02*
G75*
G02*
X113775000Y-121219000I2650000J0D01*
G01*
%TO.C,Q3*%
X130320000Y-129140000D02*
X130170000Y-128290000D01*
X130220000Y-129440000D02*
X130320000Y-129140000D01*
X130170000Y-128290000D02*
X126320000Y-128290000D01*
X129720000Y-130740000D02*
X129970000Y-130090000D01*
X126770000Y-130740000D02*
X129720000Y-130740000D01*
X126320000Y-128290000D02*
X126170000Y-129140000D01*
X126170000Y-129140000D02*
X126770000Y-130740000D01*
%TO.C,SW33*%
X142490000Y-115119000D02*
X144480000Y-115119000D01*
X142490000Y-127319000D02*
X142490000Y-115119000D01*
X149780000Y-115119000D02*
X147400000Y-115119000D01*
X152700000Y-115119000D02*
X154690000Y-115119000D01*
X154690000Y-115119000D02*
X154690000Y-127319000D01*
X154690000Y-127319000D02*
X142490000Y-127319000D01*
X151240000Y-121219000D02*
G75*
G02*
X145940000Y-121219000I-2650000J0D01*
G01*
X145940000Y-121219000D02*
G75*
G02*
X151240000Y-121219000I2650000J0D01*
G01*
%TO.C,C11*%
X131853231Y-134652223D02*
X131853231Y-133962223D01*
X130433231Y-133962223D02*
X133273231Y-133962223D01*
X133273231Y-133962223D02*
X133273231Y-129922223D01*
X130433231Y-129922223D02*
X130433231Y-133962223D01*
X133273231Y-129922223D02*
X130433231Y-129922223D01*
X131853231Y-129232223D02*
X131853231Y-129922223D01*
%TO.C,R17*%
X84155000Y-128905000D02*
X87315000Y-128905000D01*
X84155000Y-128905000D02*
G75*
G02*
X82315000Y-128905000I-920000J0D01*
G01*
X82315000Y-128905000D02*
G75*
G02*
X84155000Y-128905000I920000J0D01*
G01*
%TO.C,R3*%
X69500000Y-132715000D02*
G75*
G02*
X67660000Y-132715000I-920000J0D01*
G01*
X67660000Y-132715000D02*
G75*
G02*
X69500000Y-132715000I920000J0D01*
G01*
X68580000Y-133635000D02*
X68580000Y-136795000D01*
%TO.C,R35*%
X134699000Y-45004000D02*
X134699000Y-41844000D01*
X135619000Y-45924000D02*
G75*
G02*
X133779000Y-45924000I-920000J0D01*
G01*
X133779000Y-45924000D02*
G75*
G02*
X135619000Y-45924000I920000J0D01*
G01*
%TO.C,C4*%
X104290000Y-137275000D02*
X104290000Y-133235000D01*
X104290000Y-133235000D02*
X101450000Y-133235000D01*
X102870000Y-137965000D02*
X102870000Y-137275000D01*
X102870000Y-132545000D02*
X102870000Y-133235000D01*
X101450000Y-137275000D02*
X104290000Y-137275000D01*
X101450000Y-133235000D02*
X101450000Y-137275000D01*
%TO.C,SW39*%
X155190000Y-100641000D02*
X157180000Y-100641000D01*
X155190000Y-112841000D02*
X155190000Y-100641000D01*
X162480000Y-100641000D02*
X160100000Y-100641000D01*
X165400000Y-100641000D02*
X167390000Y-100641000D01*
X167390000Y-100641000D02*
X167390000Y-112841000D01*
X167390000Y-112841000D02*
X155190000Y-112841000D01*
X163940000Y-106741000D02*
G75*
G02*
X158640000Y-106741000I-2650000J0D01*
G01*
X158640000Y-106741000D02*
G75*
G02*
X163940000Y-106741000I2650000J0D01*
G01*
%TO.C,SW16*%
X92833000Y-71685000D02*
X94823000Y-71685000D01*
X92833000Y-83885000D02*
X92833000Y-71685000D01*
X100123000Y-71685000D02*
X97743000Y-71685000D01*
X103043000Y-71685000D02*
X105033000Y-71685000D01*
X105033000Y-71685000D02*
X105033000Y-83885000D01*
X105033000Y-83885000D02*
X92833000Y-83885000D01*
X101583000Y-77785000D02*
G75*
G02*
X96283000Y-77785000I-2650000J0D01*
G01*
X96283000Y-77785000D02*
G75*
G02*
X101583000Y-77785000I2650000J0D01*
G01*
%TO.C,SW28*%
X129917000Y-115119000D02*
X131907000Y-115119000D01*
X129917000Y-127319000D02*
X129917000Y-115119000D01*
X137207000Y-115119000D02*
X134827000Y-115119000D01*
X140127000Y-115119000D02*
X142117000Y-115119000D01*
X142117000Y-115119000D02*
X142117000Y-127319000D01*
X142117000Y-127319000D02*
X129917000Y-127319000D01*
X138667000Y-121219000D02*
G75*
G02*
X133367000Y-121219000I-2650000J0D01*
G01*
X133367000Y-121219000D02*
G75*
G02*
X138667000Y-121219000I2650000J0D01*
G01*
%TO.C,D18*%
X140300516Y-50383000D02*
G75*
G02*
X140143608Y-53615335I-1235516J-1560000D01*
G01*
X140145000Y-50902039D02*
G75*
G02*
X140144837Y-52984130I-1080000J-1040961D01*
G01*
X137986392Y-53615335D02*
G75*
G02*
X137829484Y-50383000I1078608J1672335D01*
G01*
X137985163Y-52984130D02*
G75*
G02*
X137985000Y-50902039I1079837J1041130D01*
G01*
X140301000Y-50383000D02*
X140145000Y-50383000D01*
X137985000Y-50383000D02*
X137829000Y-50383000D01*
%TO.C,SW30*%
X130044000Y-86163000D02*
X132034000Y-86163000D01*
X130044000Y-98363000D02*
X130044000Y-86163000D01*
X137334000Y-86163000D02*
X134954000Y-86163000D01*
X140254000Y-86163000D02*
X142244000Y-86163000D01*
X142244000Y-86163000D02*
X142244000Y-98363000D01*
X142244000Y-98363000D02*
X130044000Y-98363000D01*
X138794000Y-92263000D02*
G75*
G02*
X133494000Y-92263000I-2650000J0D01*
G01*
X133494000Y-92263000D02*
G75*
G02*
X138794000Y-92263000I2650000J0D01*
G01*
%TO.C,D9*%
X83366000Y-60653000D02*
X83696000Y-60653000D01*
X83366000Y-65073000D02*
X86306000Y-65073000D01*
X83366000Y-65193000D02*
X86306000Y-65193000D01*
X83366000Y-65313000D02*
X86306000Y-65313000D01*
X83366000Y-66093000D02*
X83366000Y-60653000D01*
X83696000Y-66093000D02*
X83366000Y-66093000D01*
X85976000Y-66093000D02*
X86306000Y-66093000D01*
X86306000Y-60653000D02*
X85976000Y-60653000D01*
X86306000Y-66093000D02*
X86306000Y-60653000D01*
%TO.C,R20*%
X137668000Y-136698000D02*
X137668000Y-133538000D01*
X138588000Y-137618000D02*
G75*
G02*
X136748000Y-137618000I-920000J0D01*
G01*
X136748000Y-137618000D02*
G75*
G02*
X138588000Y-137618000I920000J0D01*
G01*
%TO.C,Q2*%
X102040000Y-128505000D02*
X102640000Y-130105000D01*
X102190000Y-127655000D02*
X102040000Y-128505000D01*
X102640000Y-130105000D02*
X105590000Y-130105000D01*
X105590000Y-130105000D02*
X105840000Y-129455000D01*
X106040000Y-127655000D02*
X102190000Y-127655000D01*
X106090000Y-128805000D02*
X106190000Y-128505000D01*
X106190000Y-128505000D02*
X106040000Y-127655000D01*
%TO.C,R13*%
X107015000Y-134645000D02*
X110175000Y-134645000D01*
X107015000Y-134645000D02*
G75*
G02*
X105175000Y-134645000I-920000J0D01*
G01*
X105175000Y-134645000D02*
G75*
G02*
X107015000Y-134645000I920000J0D01*
G01*
%TO.C,R30*%
X118949000Y-45004000D02*
X118949000Y-41844000D01*
X119869000Y-45924000D02*
G75*
G02*
X118029000Y-45924000I-920000J0D01*
G01*
X118029000Y-45924000D02*
G75*
G02*
X119869000Y-45924000I920000J0D01*
G01*
%TO.C,R19*%
X150895239Y-132109663D02*
X147735239Y-132109663D01*
X152735239Y-132109663D02*
G75*
G02*
X150895239Y-132109663I-920000J0D01*
G01*
X150895239Y-132109663D02*
G75*
G02*
X152735239Y-132109663I920000J0D01*
G01*
%TO.C,SW10*%
X80133000Y-86163000D02*
X82123000Y-86163000D01*
X80133000Y-98363000D02*
X80133000Y-86163000D01*
X87423000Y-86163000D02*
X85043000Y-86163000D01*
X90343000Y-86163000D02*
X92333000Y-86163000D01*
X92333000Y-86163000D02*
X92333000Y-98363000D01*
X92333000Y-98363000D02*
X80133000Y-98363000D01*
X88883000Y-92263000D02*
G75*
G02*
X83583000Y-92263000I-2650000J0D01*
G01*
X83583000Y-92263000D02*
G75*
G02*
X88883000Y-92263000I2650000J0D01*
G01*
%TO.C,C8*%
X93810000Y-131445000D02*
X94500000Y-131445000D01*
X94500000Y-130025000D02*
X94500000Y-132865000D01*
X94500000Y-132865000D02*
X98540000Y-132865000D01*
X98540000Y-130025000D02*
X94500000Y-130025000D01*
X98540000Y-132865000D02*
X98540000Y-130025000D01*
X99230000Y-131445000D02*
X98540000Y-131445000D01*
%TO.C,D4*%
X89715000Y-139265000D02*
X84275000Y-139265000D01*
X89715000Y-138935000D02*
X89715000Y-139265000D01*
X89715000Y-136655000D02*
X89715000Y-136325000D01*
X89715000Y-136325000D02*
X84275000Y-136325000D01*
X88935000Y-139265000D02*
X88935000Y-136325000D01*
X88815000Y-139265000D02*
X88815000Y-136325000D01*
X88695000Y-139265000D02*
X88695000Y-136325000D01*
X84275000Y-139265000D02*
X84275000Y-138935000D01*
X84275000Y-136325000D02*
X84275000Y-136655000D01*
%TO.C,D15*%
X118964516Y-50378000D02*
G75*
G02*
X118807608Y-53610335I-1235516J-1560000D01*
G01*
X118809000Y-50897039D02*
G75*
G02*
X118808837Y-52979130I-1080000J-1040961D01*
G01*
X116650392Y-53610335D02*
G75*
G02*
X116493484Y-50378000I1078608J1672335D01*
G01*
X116649163Y-52979130D02*
G75*
G02*
X116649000Y-50897039I1079837J1041130D01*
G01*
X118965000Y-50378000D02*
X118809000Y-50378000D01*
X116649000Y-50378000D02*
X116493000Y-50378000D01*
%TO.C,J1*%
X159054689Y-125883733D02*
X160154689Y-125883733D01*
X159054689Y-137283733D02*
X159054689Y-125883733D01*
X160254689Y-137283733D02*
X159054689Y-137283733D01*
X160254689Y-137283733D02*
X160254689Y-140083733D01*
X160254689Y-140083733D02*
X166054689Y-140083733D01*
X166054689Y-137283733D02*
X166054689Y-140083733D01*
X166354689Y-125883733D02*
X161754689Y-125883733D01*
X166354689Y-137283733D02*
X166054689Y-137283733D01*
X166354689Y-137283733D02*
X166354689Y-125883733D01*
X166654689Y-127983733D02*
X167154689Y-128483733D01*
X167154689Y-127483733D02*
X166654689Y-127983733D01*
X167154689Y-128483733D02*
X167154689Y-127483733D01*
%TO.C,Q5*%
X101396572Y-36648000D02*
X104996572Y-36648000D01*
X101358094Y-36636478D02*
G75*
G02*
X103196572Y-32197999I1838478J1838478D01*
G01*
X103196572Y-32198000D02*
G75*
G02*
X105035050Y-36636478I0J-2600000D01*
G01*
%TO.C,C5*%
X116840000Y-135425000D02*
X116840000Y-134735000D01*
X115420000Y-134735000D02*
X118260000Y-134735000D01*
X118260000Y-134735000D02*
X118260000Y-130695000D01*
X115420000Y-130695000D02*
X115420000Y-134735000D01*
X118260000Y-130695000D02*
X115420000Y-130695000D01*
X116840000Y-130005000D02*
X116840000Y-130695000D01*
%TO.C,R34*%
X131549000Y-45004000D02*
X131549000Y-41844000D01*
X132469000Y-45924000D02*
G75*
G02*
X130629000Y-45924000I-920000J0D01*
G01*
X130629000Y-45924000D02*
G75*
G02*
X132469000Y-45924000I920000J0D01*
G01*
%TO.C,R33*%
X128399000Y-45004000D02*
X128399000Y-41844000D01*
X129319000Y-45924000D02*
G75*
G02*
X127479000Y-45924000I-920000J0D01*
G01*
X127479000Y-45924000D02*
G75*
G02*
X129319000Y-45924000I920000J0D01*
G01*
%TO.C,Q7*%
X115330286Y-36648000D02*
X118930286Y-36648000D01*
X115291808Y-36636478D02*
G75*
G02*
X117130286Y-32197999I1838478J1838478D01*
G01*
X117130286Y-32198000D02*
G75*
G02*
X118968764Y-36636478I0J-2600000D01*
G01*
%TO.C,SW35*%
X142634000Y-86071000D02*
X144624000Y-86071000D01*
X142634000Y-98271000D02*
X142634000Y-86071000D01*
X149924000Y-86071000D02*
X147544000Y-86071000D01*
X152844000Y-86071000D02*
X154834000Y-86071000D01*
X154834000Y-86071000D02*
X154834000Y-98271000D01*
X154834000Y-98271000D02*
X142634000Y-98271000D01*
X151384000Y-92171000D02*
G75*
G02*
X146084000Y-92171000I-2650000J0D01*
G01*
X146084000Y-92171000D02*
G75*
G02*
X151384000Y-92171000I2650000J0D01*
G01*
%TO.C,D19*%
X147412516Y-50378000D02*
G75*
G02*
X147255608Y-53610335I-1235516J-1560000D01*
G01*
X147257000Y-50897039D02*
G75*
G02*
X147256837Y-52979130I-1080000J-1040961D01*
G01*
X145098392Y-53610335D02*
G75*
G02*
X144941484Y-50378000I1078608J1672335D01*
G01*
X145097163Y-52979130D02*
G75*
G02*
X145097000Y-50897039I1079837J1041130D01*
G01*
X147413000Y-50378000D02*
X147257000Y-50378000D01*
X145097000Y-50378000D02*
X144941000Y-50378000D01*
%TO.C,SW14*%
X92579000Y-100641000D02*
X94569000Y-100641000D01*
X92579000Y-112841000D02*
X92579000Y-100641000D01*
X99869000Y-100641000D02*
X97489000Y-100641000D01*
X102789000Y-100641000D02*
X104779000Y-100641000D01*
X104779000Y-100641000D02*
X104779000Y-112841000D01*
X104779000Y-112841000D02*
X92579000Y-112841000D01*
X101329000Y-106741000D02*
G75*
G02*
X96029000Y-106741000I-2650000J0D01*
G01*
X96029000Y-106741000D02*
G75*
G02*
X101329000Y-106741000I2650000J0D01*
G01*
%TO.C,D12*%
X97628516Y-50383000D02*
G75*
G02*
X97471608Y-53615335I-1235516J-1560000D01*
G01*
X97473000Y-50902039D02*
G75*
G02*
X97472837Y-52984130I-1080000J-1040961D01*
G01*
X95314392Y-53615335D02*
G75*
G02*
X95157484Y-50383000I1078608J1672335D01*
G01*
X95313163Y-52984130D02*
G75*
G02*
X95313000Y-50902039I1079837J1041130D01*
G01*
X97629000Y-50383000D02*
X97473000Y-50383000D01*
X95313000Y-50383000D02*
X95157000Y-50383000D01*
%TO.C,SW19*%
X105152000Y-100514000D02*
X107142000Y-100514000D01*
X105152000Y-112714000D02*
X105152000Y-100514000D01*
X112442000Y-100514000D02*
X110062000Y-100514000D01*
X115362000Y-100514000D02*
X117352000Y-100514000D01*
X117352000Y-100514000D02*
X117352000Y-112714000D01*
X117352000Y-112714000D02*
X105152000Y-112714000D01*
X113902000Y-106614000D02*
G75*
G02*
X108602000Y-106614000I-2650000J0D01*
G01*
X108602000Y-106614000D02*
G75*
G02*
X113902000Y-106614000I2650000J0D01*
G01*
%TO.C,SW23*%
X117581000Y-115119000D02*
X119571000Y-115119000D01*
X117581000Y-127319000D02*
X117581000Y-115119000D01*
X124871000Y-115119000D02*
X122491000Y-115119000D01*
X127791000Y-115119000D02*
X129781000Y-115119000D01*
X129781000Y-115119000D02*
X129781000Y-127319000D01*
X129781000Y-127319000D02*
X117581000Y-127319000D01*
X126331000Y-121219000D02*
G75*
G02*
X121031000Y-121219000I-2650000J0D01*
G01*
X121031000Y-121219000D02*
G75*
G02*
X126331000Y-121219000I2650000J0D01*
G01*
%TO.C,C17*%
X84198647Y-131461975D02*
X84888647Y-131461975D01*
X84888647Y-130041975D02*
X84888647Y-132881975D01*
X84888647Y-132881975D02*
X88928647Y-132881975D01*
X88928647Y-130041975D02*
X84888647Y-130041975D01*
X88928647Y-132881975D02*
X88928647Y-130041975D01*
X89618647Y-131461975D02*
X88928647Y-131461975D01*
%TO.C,SW29*%
X129917000Y-100641000D02*
X131907000Y-100641000D01*
X129917000Y-112841000D02*
X129917000Y-100641000D01*
X137207000Y-100641000D02*
X134827000Y-100641000D01*
X140127000Y-100641000D02*
X142117000Y-100641000D01*
X142117000Y-100641000D02*
X142117000Y-112841000D01*
X142117000Y-112841000D02*
X129917000Y-112841000D01*
X138667000Y-106741000D02*
G75*
G02*
X133367000Y-106741000I-2650000J0D01*
G01*
X133367000Y-106741000D02*
G75*
G02*
X138667000Y-106741000I2650000J0D01*
G01*
%TO.C,SW25*%
X117598000Y-85944000D02*
X119588000Y-85944000D01*
X117598000Y-98144000D02*
X117598000Y-85944000D01*
X124888000Y-85944000D02*
X122508000Y-85944000D01*
X127808000Y-85944000D02*
X129798000Y-85944000D01*
X129798000Y-85944000D02*
X129798000Y-98144000D01*
X129798000Y-98144000D02*
X117598000Y-98144000D01*
X126348000Y-92044000D02*
G75*
G02*
X121048000Y-92044000I-2650000J0D01*
G01*
X121048000Y-92044000D02*
G75*
G02*
X126348000Y-92044000I2650000J0D01*
G01*
%TO.C,R10*%
X95868080Y-128672784D02*
X92708080Y-128672784D01*
X97708080Y-128672784D02*
G75*
G02*
X95868080Y-128672784I-920000J0D01*
G01*
X95868080Y-128672784D02*
G75*
G02*
X97708080Y-128672784I920000J0D01*
G01*
%TO.C,SW34*%
X142473000Y-100549000D02*
X144463000Y-100549000D01*
X142473000Y-112749000D02*
X142473000Y-100549000D01*
X149763000Y-100549000D02*
X147383000Y-100549000D01*
X152683000Y-100549000D02*
X154673000Y-100549000D01*
X154673000Y-100549000D02*
X154673000Y-112749000D01*
X154673000Y-112749000D02*
X142473000Y-112749000D01*
X151223000Y-106649000D02*
G75*
G02*
X145923000Y-106649000I-2650000J0D01*
G01*
X145923000Y-106649000D02*
G75*
G02*
X151223000Y-106649000I2650000J0D01*
G01*
%TO.C,SW20*%
X105389000Y-86071000D02*
X107379000Y-86071000D01*
X105389000Y-98271000D02*
X105389000Y-86071000D01*
X112679000Y-86071000D02*
X110299000Y-86071000D01*
X115599000Y-86071000D02*
X117589000Y-86071000D01*
X117589000Y-86071000D02*
X117589000Y-98271000D01*
X117589000Y-98271000D02*
X105389000Y-98271000D01*
X114139000Y-92171000D02*
G75*
G02*
X108839000Y-92171000I-2650000J0D01*
G01*
X108839000Y-92171000D02*
G75*
G02*
X114139000Y-92171000I2650000J0D01*
G01*
%TO.C,R21*%
X150863890Y-134317829D02*
X147703890Y-134317829D01*
X152703890Y-134317829D02*
G75*
G02*
X150863890Y-134317829I-920000J0D01*
G01*
X150863890Y-134317829D02*
G75*
G02*
X152703890Y-134317829I920000J0D01*
G01*
%TO.C,D1*%
X72825000Y-132535000D02*
X73155000Y-132535000D01*
X72825000Y-136955000D02*
X75765000Y-136955000D01*
X72825000Y-137075000D02*
X75765000Y-137075000D01*
X72825000Y-137195000D02*
X75765000Y-137195000D01*
X72825000Y-137975000D02*
X72825000Y-132535000D01*
X73155000Y-137975000D02*
X72825000Y-137975000D01*
X75435000Y-137975000D02*
X75765000Y-137975000D01*
X75765000Y-132535000D02*
X75435000Y-132535000D01*
X75765000Y-137975000D02*
X75765000Y-132535000D01*
%TO.C,SW6*%
X67543000Y-71720000D02*
X69533000Y-71720000D01*
X67543000Y-83920000D02*
X67543000Y-71720000D01*
X74833000Y-71720000D02*
X72453000Y-71720000D01*
X77753000Y-71720000D02*
X79743000Y-71720000D01*
X79743000Y-71720000D02*
X79743000Y-83920000D01*
X79743000Y-83920000D02*
X67543000Y-83920000D01*
X76293000Y-77820000D02*
G75*
G02*
X70993000Y-77820000I-2650000J0D01*
G01*
X70993000Y-77820000D02*
G75*
G02*
X76293000Y-77820000I2650000J0D01*
G01*
%TO.C,R25*%
X150939432Y-136477671D02*
X147779432Y-136477671D01*
X152779432Y-136477671D02*
G75*
G02*
X150939432Y-136477671I-920000J0D01*
G01*
X150939432Y-136477671D02*
G75*
G02*
X152779432Y-136477671I920000J0D01*
G01*
%TO.C,D5*%
X118545000Y-137340000D02*
X118545000Y-131900000D01*
X118875000Y-137340000D02*
X118545000Y-137340000D01*
X121155000Y-137340000D02*
X121485000Y-137340000D01*
X121485000Y-137340000D02*
X121485000Y-131900000D01*
X118545000Y-136560000D02*
X121485000Y-136560000D01*
X118545000Y-136440000D02*
X121485000Y-136440000D01*
X118545000Y-136320000D02*
X121485000Y-136320000D01*
X118545000Y-131900000D02*
X118875000Y-131900000D01*
X121485000Y-131900000D02*
X121155000Y-131900000D01*
%TO.C,Q8*%
X124097143Y-32198000D02*
G75*
G02*
X125935621Y-36636478I0J-2600000D01*
G01*
X122258665Y-36636478D02*
G75*
G02*
X124097143Y-32197999I1838478J1838478D01*
G01*
X122297143Y-36648000D02*
X125897143Y-36648000D01*
%TO.C,SW4*%
X67526000Y-100676000D02*
X69516000Y-100676000D01*
X67526000Y-112876000D02*
X67526000Y-100676000D01*
X74816000Y-100676000D02*
X72436000Y-100676000D01*
X77736000Y-100676000D02*
X79726000Y-100676000D01*
X79726000Y-100676000D02*
X79726000Y-112876000D01*
X79726000Y-112876000D02*
X67526000Y-112876000D01*
X76276000Y-106776000D02*
G75*
G02*
X70976000Y-106776000I-2650000J0D01*
G01*
X70976000Y-106776000D02*
G75*
G02*
X76276000Y-106776000I2650000J0D01*
G01*
%TO.C,R29*%
X115799000Y-45004000D02*
X115799000Y-41844000D01*
X116719000Y-45924000D02*
G75*
G02*
X114879000Y-45924000I-920000J0D01*
G01*
X114879000Y-45924000D02*
G75*
G02*
X116719000Y-45924000I920000J0D01*
G01*
%TO.C,R14*%
X107015000Y-137795000D02*
X110175000Y-137795000D01*
X107015000Y-137795000D02*
G75*
G02*
X105175000Y-137795000I-920000J0D01*
G01*
X105175000Y-137795000D02*
G75*
G02*
X107015000Y-137795000I920000J0D01*
G01*
%TO.C,SW31*%
X130171000Y-71685000D02*
X132161000Y-71685000D01*
X130171000Y-83885000D02*
X130171000Y-71685000D01*
X137461000Y-71685000D02*
X135081000Y-71685000D01*
X140381000Y-71685000D02*
X142371000Y-71685000D01*
X142371000Y-71685000D02*
X142371000Y-83885000D01*
X142371000Y-83885000D02*
X130171000Y-83885000D01*
X138921000Y-77785000D02*
G75*
G02*
X133621000Y-77785000I-2650000J0D01*
G01*
X133621000Y-77785000D02*
G75*
G02*
X138921000Y-77785000I2650000J0D01*
G01*
%TO.C,SW3*%
X67509000Y-115062000D02*
X69499000Y-115062000D01*
X67509000Y-127262000D02*
X67509000Y-115062000D01*
X74799000Y-115062000D02*
X72419000Y-115062000D01*
X77719000Y-115062000D02*
X79709000Y-115062000D01*
X79709000Y-115062000D02*
X79709000Y-127262000D01*
X79709000Y-127262000D02*
X67509000Y-127262000D01*
X76259000Y-121162000D02*
G75*
G02*
X70959000Y-121162000I-2650000J0D01*
G01*
X70959000Y-121162000D02*
G75*
G02*
X76259000Y-121162000I2650000J0D01*
G01*
%TO.C,Q11*%
X144997715Y-32198000D02*
G75*
G02*
X146836193Y-36636478I0J-2600000D01*
G01*
X143159237Y-36636478D02*
G75*
G02*
X144997715Y-32197999I1838478J1838478D01*
G01*
X143197715Y-36648000D02*
X146797715Y-36648000D01*
%TO.C,R11*%
X143410519Y-128452271D02*
X140250519Y-128452271D01*
X145250519Y-128452271D02*
G75*
G02*
X143410519Y-128452271I-920000J0D01*
G01*
X143410519Y-128452271D02*
G75*
G02*
X145250519Y-128452271I920000J0D01*
G01*
%TO.C,D17*%
X133188516Y-50383000D02*
G75*
G02*
X133031608Y-53615335I-1235516J-1560000D01*
G01*
X133033000Y-50902039D02*
G75*
G02*
X133032837Y-52984130I-1080000J-1040961D01*
G01*
X130874392Y-53615335D02*
G75*
G02*
X130717484Y-50383000I1078608J1672335D01*
G01*
X130873163Y-52984130D02*
G75*
G02*
X130873000Y-50902039I1079837J1041130D01*
G01*
X133189000Y-50383000D02*
X133033000Y-50383000D01*
X130873000Y-50383000D02*
X130717000Y-50383000D01*
%TO.C,C14*%
X112071005Y-131873406D02*
X111381005Y-131873406D01*
X111381005Y-133293406D02*
X111381005Y-130453406D01*
X111381005Y-130453406D02*
X107341005Y-130453406D01*
X107341005Y-133293406D02*
X111381005Y-133293406D01*
X107341005Y-130453406D02*
X107341005Y-133293406D01*
X106651005Y-131873406D02*
X107341005Y-131873406D01*
%TO.C,R2*%
X81515000Y-128905000D02*
G75*
G02*
X79675000Y-128905000I-920000J0D01*
G01*
X79675000Y-128905000D02*
G75*
G02*
X81515000Y-128905000I920000J0D01*
G01*
X79675000Y-128905000D02*
X76515000Y-128905000D01*
%TO.C,R36*%
X137849000Y-45004000D02*
X137849000Y-41844000D01*
X138769000Y-45924000D02*
G75*
G02*
X136929000Y-45924000I-920000J0D01*
G01*
X136929000Y-45924000D02*
G75*
G02*
X138769000Y-45924000I920000J0D01*
G01*
%TD*%
M02*
