%TF.GenerationSoftware,KiCad,Pcbnew,8.0.3*%
%TF.CreationDate,2026-04-21T12:50:53-07:00*%
%TF.ProjectId,SDSQ1,53445351-312e-46b6-9963-61645f706362,rev?*%
%TF.SameCoordinates,Original*%
%TF.FileFunction,Copper,L1,Top*%
%TF.FilePolarity,Positive*%
%FSLAX46Y46*%
G04 Gerber Fmt 4.6, Leading zero omitted, Abs format (unit mm)*
G04 Created by KiCad (PCBNEW 8.0.3) date 2026-04-21 12:50:53*
%MOMM*%
%LPD*%
G01*
G04 APERTURE LIST*
G04 Aperture macros list*
%AMRoundRect*
0 Rectangle with rounded corners*
0 $1 Rounding radius*
0 $2 $3 $4 $5 $6 $7 $8 $9 X,Y pos of 4 corners*
0 Add a 4 corners polygon primitive as box body*
4,1,4,$2,$3,$4,$5,$6,$7,$8,$9,$2,$3,0*
0 Add four circle primitives for the rounded corners*
1,1,$1+$1,$2,$3*
1,1,$1+$1,$4,$5*
1,1,$1+$1,$6,$7*
1,1,$1+$1,$8,$9*
0 Add four rect primitives between the rounded corners*
20,1,$1+$1,$2,$3,$4,$5,0*
20,1,$1+$1,$4,$5,$6,$7,0*
20,1,$1+$1,$6,$7,$8,$9,0*
20,1,$1+$1,$8,$9,$2,$3,0*%
G04 Aperture macros list end*
%TA.AperFunction,WasherPad*%
%ADD10C,4.000000*%
%TD*%
%TA.AperFunction,ComponentPad*%
%ADD11C,1.800000*%
%TD*%
%TA.AperFunction,ComponentPad*%
%ADD12R,1.800000X1.800000*%
%TD*%
%TA.AperFunction,ComponentPad*%
%ADD13O,1.800000X1.800000*%
%TD*%
%TA.AperFunction,ComponentPad*%
%ADD14C,2.400000*%
%TD*%
%TA.AperFunction,ComponentPad*%
%ADD15C,1.400000*%
%TD*%
%TA.AperFunction,ComponentPad*%
%ADD16O,1.400000X1.400000*%
%TD*%
%TA.AperFunction,ComponentPad*%
%ADD17C,1.600000*%
%TD*%
%TA.AperFunction,ComponentPad*%
%ADD18O,1.600000X1.600000*%
%TD*%
%TA.AperFunction,ComponentPad*%
%ADD19R,1.300000X1.300000*%
%TD*%
%TA.AperFunction,ComponentPad*%
%ADD20C,1.300000*%
%TD*%
%TA.AperFunction,ComponentPad*%
%ADD21RoundRect,0.400000X0.400000X-0.400000X0.400000X0.400000X-0.400000X0.400000X-0.400000X-0.400000X0*%
%TD*%
%TA.AperFunction,SMDPad,CuDef*%
%ADD22RoundRect,0.375000X-0.375000X0.625000X-0.375000X-0.625000X0.375000X-0.625000X0.375000X0.625000X0*%
%TD*%
%TA.AperFunction,SMDPad,CuDef*%
%ADD23RoundRect,0.500000X-1.400000X0.500000X-1.400000X-0.500000X1.400000X-0.500000X1.400000X0.500000X0*%
%TD*%
%TA.AperFunction,ComponentPad*%
%ADD24O,1.300000X1.050000*%
%TD*%
%TA.AperFunction,ComponentPad*%
%ADD25R,1.300000X1.050000*%
%TD*%
%TA.AperFunction,ComponentPad*%
%ADD26R,1.050000X1.300000*%
%TD*%
%TA.AperFunction,ComponentPad*%
%ADD27O,1.050000X1.300000*%
%TD*%
%TA.AperFunction,ComponentPad*%
%ADD28R,1.600000X1.600000*%
%TD*%
%TA.AperFunction,ComponentPad*%
%ADD29R,1.400000X2.000000*%
%TD*%
%TA.AperFunction,ComponentPad*%
%ADD30O,1.400000X2.000000*%
%TD*%
%TA.AperFunction,ComponentPad*%
%ADD31RoundRect,0.875000X-0.875000X0.875000X-0.875000X-0.875000X0.875000X-0.875000X0.875000X0.875000X0*%
%TD*%
%TA.AperFunction,ComponentPad*%
%ADD32RoundRect,0.750000X-1.000000X0.750000X-1.000000X-0.750000X1.000000X-0.750000X1.000000X0.750000X0*%
%TD*%
%TA.AperFunction,ComponentPad*%
%ADD33R,3.500000X3.500000*%
%TD*%
%TA.AperFunction,ViaPad*%
%ADD34C,0.600000*%
%TD*%
%TA.AperFunction,Conductor*%
%ADD35C,0.200000*%
%TD*%
G04 APERTURE END LIST*
D10*
%TO.P,R28,*%
%TO.N,*%
X133308000Y-60564000D03*
X142108000Y-60564000D03*
D11*
%TO.P,R28,1*%
%TO.N,Net-(U7-DIS)*%
X140208000Y-67564000D03*
%TO.P,R28,2*%
%TO.N,+5V*%
X137708000Y-67564000D03*
%TO.P,R28,3*%
%TO.N,N/C*%
X135208000Y-67564000D03*
%TD*%
D12*
%TO.P,D11,1,K*%
%TO.N,Net-(D10-K)*%
X153416000Y-67564000D03*
D13*
%TO.P,D11,2,A*%
%TO.N,Net-(D11-A)*%
X145796000Y-67564000D03*
%TD*%
D12*
%TO.P,D10,1,K*%
%TO.N,Net-(D10-K)*%
X116840000Y-68072000D03*
D13*
%TO.P,D10,2,A*%
%TO.N,Net-(D10-A)*%
X116840000Y-60452000D03*
%TD*%
D14*
%TO.P,SW8,1,A*%
%TO.N,Net-(D13-A)*%
X88883000Y-114519000D03*
%TO.P,SW8,2,B*%
%TO.N,BD*%
X83583000Y-114519000D03*
%TD*%
D15*
%TO.P,R9,1*%
%TO.N,GND*%
X92125000Y-134620000D03*
D16*
%TO.P,R9,2*%
%TO.N,Net-(C8-Pad2)*%
X97205000Y-134620000D03*
%TD*%
D14*
%TO.P,SW5,1,A*%
%TO.N,Net-(D12-A)*%
X76259000Y-85633000D03*
%TO.P,SW5,2,B*%
%TO.N,TOM*%
X70959000Y-85633000D03*
%TD*%
%TO.P,SW38,1,A*%
%TO.N,Net-(D19-A)*%
X163813000Y-114519000D03*
%TO.P,SW38,2,B*%
%TO.N,BD*%
X158513000Y-114519000D03*
%TD*%
D12*
%TO.P,D2,1,K*%
%TO.N,Net-(D2-K)*%
X112357533Y-125034511D03*
D13*
%TO.P,D2,2,A*%
%TO.N,Net-(D2-A)*%
X112357533Y-117414511D03*
%TD*%
D14*
%TO.P,SW26,1,A*%
%TO.N,Net-(D16-A)*%
X126475000Y-71085000D03*
%TO.P,SW26,2,B*%
%TO.N,CH*%
X121175000Y-71085000D03*
%TD*%
%TO.P,SW21,1,A*%
%TO.N,Net-(D15-A)*%
X114156000Y-71085000D03*
%TO.P,SW21,2,B*%
%TO.N,CH*%
X108856000Y-71085000D03*
%TD*%
D11*
%TO.P,D13,2,A*%
%TO.N,Net-(D13-A)*%
X103505000Y-53213000D03*
D12*
%TO.P,D13,1,K*%
%TO.N,Net-(D13-K)*%
X103505000Y-50673000D03*
%TD*%
D17*
%TO.P,C18,1*%
%TO.N,Net-(U7-CV)*%
X141418000Y-64516000D03*
D18*
%TO.P,C18,2*%
%TO.N,GND*%
X133918000Y-64516000D03*
%TD*%
%TO.P,C2,2*%
%TO.N,Net-(D1-A)*%
X80473658Y-131129888D03*
D17*
%TO.P,C2,1*%
%TO.N,Net-(C1-Pad2)*%
X80473658Y-138629888D03*
%TD*%
D15*
%TO.P,R24,1*%
%TO.N,Net-(SW1-A)*%
X151892000Y-138684000D03*
D16*
%TO.P,R24,2*%
%TO.N,Net-(J1-PadT)*%
X146812000Y-138684000D03*
%TD*%
D17*
%TO.P,C10,1*%
%TO.N,Net-(D5-K)*%
X123190000Y-136525000D03*
D18*
%TO.P,C10,2*%
%TO.N,GND*%
X123190000Y-129025000D03*
%TD*%
D19*
%TO.P,Q4,1,C*%
%TO.N,+5V*%
X94959715Y-34798000D03*
D20*
%TO.P,Q4,2,B*%
%TO.N,Net-(Q4-B)*%
X96229715Y-33528000D03*
%TO.P,Q4,3,E*%
%TO.N,Net-(D12-A)*%
X97499715Y-34798000D03*
%TD*%
D17*
%TO.P,SW1,3,C*%
%TO.N,Net-(SW1-C)*%
X160020000Y-132588000D03*
%TO.P,SW1,2,B*%
%TO.N,Net-(SW1-B)*%
X157480000Y-132588000D03*
D21*
%TO.P,SW1,1,A*%
%TO.N,Net-(SW1-A)*%
X154940000Y-132588000D03*
D17*
%TO.P,SW1,*%
%TO.N,*%
X160020000Y-137668000D03*
X154940000Y-137668000D03*
%TD*%
D14*
%TO.P,SW24,1,A*%
%TO.N,Net-(D16-A)*%
X126221000Y-99914000D03*
%TO.P,SW24,2,B*%
%TO.N,SD*%
X120921000Y-99914000D03*
%TD*%
D19*
%TO.P,Q6,1,C*%
%TO.N,+5V*%
X108893429Y-34798000D03*
D20*
%TO.P,Q6,2,B*%
%TO.N,Net-(Q6-B)*%
X110163429Y-33528000D03*
%TO.P,Q6,3,E*%
%TO.N,Net-(D14-A)*%
X111433429Y-34798000D03*
%TD*%
D14*
%TO.P,SW13,1,A*%
%TO.N,Net-(D14-A)*%
X101456000Y-114519000D03*
%TO.P,SW13,2,B*%
%TO.N,BD*%
X96156000Y-114519000D03*
%TD*%
%TO.P,SW11,1,A*%
%TO.N,Net-(D13-A)*%
X89027000Y-71120000D03*
%TO.P,SW11,2,B*%
%TO.N,CH*%
X83727000Y-71120000D03*
%TD*%
D15*
%TO.P,R32,1*%
%TO.N,Net-(D15-K)*%
X125249000Y-45924000D03*
D16*
%TO.P,R32,2*%
%TO.N,GND*%
X125249000Y-40844000D03*
%TD*%
D14*
%TO.P,SW9,1,A*%
%TO.N,Net-(D13-A)*%
X88883000Y-100041000D03*
%TO.P,SW9,2,B*%
%TO.N,SD*%
X83583000Y-100041000D03*
%TD*%
D20*
%TO.P,Q10,3,E*%
%TO.N,Net-(D18-A)*%
X139300857Y-34798000D03*
%TO.P,Q10,2,B*%
%TO.N,Net-(Q10-B)*%
X138030857Y-33528000D03*
D19*
%TO.P,Q10,1,C*%
%TO.N,+5V*%
X136760857Y-34798000D03*
%TD*%
D17*
%TO.P,C13,1*%
%TO.N,Net-(U2B--)*%
X88265000Y-126365000D03*
D18*
%TO.P,C13,2*%
%TO.N,Net-(C13-Pad2)*%
X88265000Y-118865000D03*
%TD*%
D22*
%TO.P,U5,1,GND*%
%TO.N,GND*%
X79389000Y-59588000D03*
%TO.P,U5,2,VO*%
%TO.N,Net-(D8-A)*%
X77089000Y-59588000D03*
D23*
X77089000Y-65888000D03*
D22*
%TO.P,U5,3,VI*%
%TO.N,VIN*%
X74789000Y-59588000D03*
%TD*%
D15*
%TO.P,R27,1*%
%TO.N,Net-(U7-DIS)*%
X119888000Y-63092000D03*
D16*
%TO.P,R27,2*%
%TO.N,Net-(U7-THR)*%
X119888000Y-68172000D03*
%TD*%
D17*
%TO.P,C3,1*%
%TO.N,Net-(Q1-B)*%
X71120000Y-138370000D03*
D18*
%TO.P,C3,2*%
%TO.N,Net-(U1B-+)*%
X71120000Y-130870000D03*
%TD*%
D24*
%TO.P,Q1,3,E*%
%TO.N,Net-(Q1-E)*%
X72155000Y-135910000D03*
%TO.P,Q1,2,B*%
%TO.N,Net-(Q1-B)*%
X72155000Y-134640000D03*
D25*
%TO.P,Q1,1,C*%
%TO.N,unconnected-(Q1-C-Pad1)*%
X72155000Y-133370000D03*
%TD*%
D17*
%TO.P,C15,1*%
%TO.N,Net-(C15-Pad1)*%
X113665000Y-136465000D03*
D18*
%TO.P,C15,2*%
%TO.N,GND*%
X113665000Y-128965000D03*
%TD*%
D14*
%TO.P,SW41,1,A*%
%TO.N,Net-(D19-A)*%
X164084000Y-71120000D03*
%TO.P,SW41,2,B*%
%TO.N,CH*%
X158784000Y-71120000D03*
%TD*%
D20*
%TO.P,Q9,3,E*%
%TO.N,Net-(D17-A)*%
X132334000Y-34798000D03*
%TO.P,Q9,2,B*%
%TO.N,Net-(Q9-B)*%
X131064000Y-33528000D03*
D19*
%TO.P,Q9,1,C*%
%TO.N,+5V*%
X129794000Y-34798000D03*
%TD*%
D14*
%TO.P,SW36,1,A*%
%TO.N,Net-(D18-A)*%
X151367000Y-71085000D03*
%TO.P,SW36,2,B*%
%TO.N,CH*%
X146067000Y-71085000D03*
%TD*%
%TO.P,SW15,1,A*%
%TO.N,Net-(D14-A)*%
X101583000Y-85436000D03*
%TO.P,SW15,2,B*%
%TO.N,TOM*%
X96283000Y-85436000D03*
%TD*%
D11*
%TO.P,D14,2,A*%
%TO.N,Net-(D14-A)*%
X110617000Y-53213000D03*
D12*
%TO.P,D14,1,K*%
%TO.N,Net-(D14-K)*%
X110617000Y-50673000D03*
%TD*%
D11*
%TO.P,D16,2,A*%
%TO.N,Net-(D16-A)*%
X124841000Y-53213000D03*
D12*
%TO.P,D16,1,K*%
%TO.N,Net-(D16-K)*%
X124841000Y-50673000D03*
%TD*%
D15*
%TO.P,R31,1*%
%TO.N,Net-(D14-K)*%
X122099000Y-45924000D03*
D16*
%TO.P,R31,2*%
%TO.N,GND*%
X122099000Y-40844000D03*
%TD*%
D14*
%TO.P,SW2,2,B*%
%TO.N,Net-(Q11-B)*%
X154830000Y-55845000D03*
%TO.P,SW2,1,A*%
%TO.N,Net-(D11-A)*%
X160130000Y-55845000D03*
%TD*%
D15*
%TO.P,R8,1*%
%TO.N,Net-(C6-Pad2)*%
X119888000Y-124918000D03*
D16*
%TO.P,R8,2*%
%TO.N,GND*%
X119888000Y-119838000D03*
%TD*%
D14*
%TO.P,SW40,1,A*%
%TO.N,Net-(D19-A)*%
X164050000Y-85471000D03*
%TO.P,SW40,2,B*%
%TO.N,TOM*%
X158750000Y-85471000D03*
%TD*%
%TO.P,SW18,1,A*%
%TO.N,Net-(D15-A)*%
X113775000Y-114519000D03*
%TO.P,SW18,2,B*%
%TO.N,BD*%
X108475000Y-114519000D03*
%TD*%
D26*
%TO.P,Q3,1,C*%
%TO.N,Net-(D5-K)*%
X129520000Y-129140000D03*
D27*
%TO.P,Q3,2,B*%
%TO.N,Net-(Q3-B)*%
X128250000Y-129140000D03*
%TO.P,Q3,3,E*%
%TO.N,GND*%
X126980000Y-129140000D03*
%TD*%
D14*
%TO.P,SW33,1,A*%
%TO.N,Net-(D18-A)*%
X151240000Y-114519000D03*
%TO.P,SW33,2,B*%
%TO.N,BD*%
X145940000Y-114519000D03*
%TD*%
D17*
%TO.P,C11,1*%
%TO.N,GND*%
X131853231Y-135692223D03*
D18*
%TO.P,C11,2*%
%TO.N,Net-(D6-K)*%
X131853231Y-128192223D03*
%TD*%
D15*
%TO.P,R17,1*%
%TO.N,GND*%
X83235000Y-128905000D03*
D16*
%TO.P,R17,2*%
%TO.N,Net-(C13-Pad2)*%
X88315000Y-128905000D03*
%TD*%
D17*
%TO.P,C16,1*%
%TO.N,Net-(Q3-B)*%
X108585000Y-137795000D03*
D18*
%TO.P,C16,2*%
%TO.N,Net-(C15-Pad1)*%
X108585000Y-130295000D03*
%TD*%
%TO.P,C1,2*%
%TO.N,Net-(C1-Pad2)*%
X77249488Y-138519480D03*
D17*
%TO.P,C1,1*%
%TO.N,Net-(U1A--)*%
X77249488Y-131019480D03*
%TD*%
D16*
%TO.P,R3,2*%
%TO.N,Net-(Q1-E)*%
X68580000Y-137795000D03*
D15*
%TO.P,R3,1*%
%TO.N,+5V*%
X68580000Y-132715000D03*
%TD*%
D28*
%TO.P,U7,1,GND*%
%TO.N,GND*%
X129540000Y-59944000D03*
D18*
%TO.P,U7,2,TR*%
%TO.N,Net-(U7-THR)*%
X129540000Y-62484000D03*
%TO.P,U7,3,Q*%
%TO.N,BEAT*%
X129540000Y-65024000D03*
%TO.P,U7,4,R*%
%TO.N,+5V*%
X129540000Y-67564000D03*
%TO.P,U7,5,CV*%
%TO.N,Net-(U7-CV)*%
X121920000Y-67564000D03*
%TO.P,U7,6,THR*%
%TO.N,Net-(U7-THR)*%
X121920000Y-65024000D03*
%TO.P,U7,7,DIS*%
%TO.N,Net-(U7-DIS)*%
X121920000Y-62484000D03*
%TO.P,U7,8,VCC*%
%TO.N,+5V*%
X121920000Y-59944000D03*
%TD*%
D15*
%TO.P,R35,1*%
%TO.N,Net-(D18-K)*%
X134699000Y-45924000D03*
D16*
%TO.P,R35,2*%
%TO.N,GND*%
X134699000Y-40844000D03*
%TD*%
D17*
%TO.P,C4,1*%
%TO.N,Net-(D2-K)*%
X102870000Y-131505000D03*
D18*
%TO.P,C4,2*%
%TO.N,GND*%
X102870000Y-139005000D03*
%TD*%
D14*
%TO.P,SW39,1,A*%
%TO.N,Net-(D19-A)*%
X163940000Y-100041000D03*
%TO.P,SW39,2,B*%
%TO.N,SD*%
X158640000Y-100041000D03*
%TD*%
%TO.P,SW16,1,A*%
%TO.N,Net-(D14-A)*%
X101583000Y-71085000D03*
%TO.P,SW16,2,B*%
%TO.N,CH*%
X96283000Y-71085000D03*
%TD*%
%TO.P,SW28,1,A*%
%TO.N,Net-(D17-A)*%
X138667000Y-114519000D03*
%TO.P,SW28,2,B*%
%TO.N,BD*%
X133367000Y-114519000D03*
%TD*%
D11*
%TO.P,D18,2,A*%
%TO.N,Net-(D18-A)*%
X139065000Y-53213000D03*
D12*
%TO.P,D18,1,K*%
%TO.N,Net-(D18-K)*%
X139065000Y-50673000D03*
%TD*%
D14*
%TO.P,SW30,1,A*%
%TO.N,Net-(D17-A)*%
X138794000Y-85563000D03*
%TO.P,SW30,2,B*%
%TO.N,TOM*%
X133494000Y-85563000D03*
%TD*%
D12*
%TO.P,D9,1,K*%
%TO.N,+5V*%
X84836000Y-67183000D03*
D13*
%TO.P,D9,2,A*%
%TO.N,BAT_P*%
X84836000Y-59563000D03*
%TD*%
D15*
%TO.P,R7,1*%
%TO.N,Net-(D2-A)*%
X109645805Y-117437835D03*
D16*
%TO.P,R7,2*%
%TO.N,Net-(D3-K)*%
X109645805Y-122517835D03*
%TD*%
D18*
%TO.P,U6,16,VDD*%
%TO.N,+5V*%
X112776000Y-60960000D03*
%TO.P,U6,15,Reset*%
%TO.N,Net-(D10-K)*%
X110236000Y-60960000D03*
%TO.P,U6,14,CLK*%
%TO.N,BEAT*%
X107696000Y-60960000D03*
%TO.P,U6,13,CKEN*%
%TO.N,GND*%
X105156000Y-60960000D03*
%TO.P,U6,12,Cout*%
%TO.N,unconnected-(U6-Cout-Pad12)*%
X102616000Y-60960000D03*
%TO.P,U6,11,Q9*%
%TO.N,unconnected-(U6-Q9-Pad11)*%
X100076000Y-60960000D03*
%TO.P,U6,10,Q4*%
%TO.N,Net-(Q8-B)*%
X97536000Y-60960000D03*
%TO.P,U6,9,Q8*%
%TO.N,Net-(D10-A)*%
X94996000Y-60960000D03*
%TO.P,U6,8,VSS*%
%TO.N,GND*%
X94996000Y-68580000D03*
%TO.P,U6,7,Q3*%
%TO.N,Net-(Q7-B)*%
X97536000Y-68580000D03*
%TO.P,U6,6,Q7*%
%TO.N,Net-(Q10-B)*%
X100076000Y-68580000D03*
%TO.P,U6,5,Q6*%
%TO.N,Net-(Q11-B)*%
X102616000Y-68580000D03*
%TO.P,U6,4,Q2*%
%TO.N,Net-(Q6-B)*%
X105156000Y-68580000D03*
%TO.P,U6,3,Q0*%
%TO.N,Net-(Q4-B)*%
X107696000Y-68580000D03*
%TO.P,U6,2,Q1*%
%TO.N,Net-(Q5-B)*%
X110236000Y-68580000D03*
D28*
%TO.P,U6,1,Q5*%
%TO.N,Net-(Q9-B)*%
X112776000Y-68580000D03*
%TD*%
D12*
%TO.P,D3,1,K*%
%TO.N,Net-(D3-K)*%
X106968029Y-124887773D03*
D13*
%TO.P,D3,2,A*%
%TO.N,SD*%
X106968029Y-117267773D03*
%TD*%
D15*
%TO.P,R20,1*%
%TO.N,Net-(SW1-B)*%
X137668000Y-137618000D03*
D16*
%TO.P,R20,2*%
%TO.N,SD_WIRE_MIX*%
X137668000Y-132538000D03*
%TD*%
D26*
%TO.P,Q2,1,C*%
%TO.N,Net-(D2-K)*%
X105390000Y-128505000D03*
D27*
%TO.P,Q2,2,B*%
%TO.N,WN_OUT*%
X104120000Y-128505000D03*
%TO.P,Q2,3,E*%
%TO.N,GND*%
X102850000Y-128505000D03*
%TD*%
D15*
%TO.P,R15,1*%
%TO.N,+5V*%
X125095000Y-121970000D03*
D16*
%TO.P,R15,2*%
%TO.N,Net-(Q3-B)*%
X125095000Y-127050000D03*
%TD*%
D15*
%TO.P,R13,1*%
%TO.N,Net-(C14-Pad2)*%
X106095000Y-134645000D03*
D16*
%TO.P,R13,2*%
%TO.N,GND*%
X111175000Y-134645000D03*
%TD*%
D15*
%TO.P,R30,1*%
%TO.N,Net-(D13-K)*%
X118949000Y-45924000D03*
D16*
%TO.P,R30,2*%
%TO.N,GND*%
X118949000Y-40844000D03*
%TD*%
D15*
%TO.P,R19,1*%
%TO.N,Net-(SW1-B)*%
X151815239Y-132109663D03*
D16*
%TO.P,R19,2*%
%TO.N,TOM_MIX*%
X146735239Y-132109663D03*
%TD*%
%TO.P,R1,2*%
%TO.N,Net-(C1-Pad2)*%
X75515000Y-135255000D03*
D15*
%TO.P,R1,1*%
%TO.N,GND*%
X80595000Y-135255000D03*
%TD*%
%TO.P,R16,1*%
%TO.N,GND*%
X158750000Y-78690000D03*
D16*
%TO.P,R16,2*%
%TO.N,CH*%
X158750000Y-73610000D03*
%TD*%
D14*
%TO.P,SW10,1,A*%
%TO.N,Net-(D13-A)*%
X88883000Y-85563000D03*
%TO.P,SW10,2,B*%
%TO.N,TOM*%
X83583000Y-85563000D03*
%TD*%
D15*
%TO.P,R22,1*%
%TO.N,Net-(SW1-B)*%
X151842000Y-130048000D03*
D16*
%TO.P,R22,2*%
%TO.N,KD_MIX*%
X146762000Y-130048000D03*
%TD*%
D17*
%TO.P,C8,1*%
%TO.N,Net-(U2A--)*%
X92770000Y-131445000D03*
D18*
%TO.P,C8,2*%
%TO.N,Net-(C8-Pad2)*%
X100270000Y-131445000D03*
%TD*%
D12*
%TO.P,D4,1,K*%
%TO.N,SD_MIX*%
X90805000Y-137795000D03*
D13*
%TO.P,D4,2,A*%
%TO.N,Net-(D4-A)*%
X83185000Y-137795000D03*
%TD*%
D11*
%TO.P,D15,2,A*%
%TO.N,Net-(D15-A)*%
X117729000Y-53208000D03*
D12*
%TO.P,D15,1,K*%
%TO.N,Net-(D15-K)*%
X117729000Y-50668000D03*
%TD*%
D29*
%TO.P,J1,T*%
%TO.N,Net-(J1-PadT)*%
X165454689Y-127983733D03*
D30*
%TO.P,J1,S*%
%TO.N,GND*%
X160954689Y-126483733D03*
%TO.P,J1,R2*%
%TO.N,N/C*%
X165454689Y-134983733D03*
%TO.P,J1,R1*%
X165454689Y-131983733D03*
%TO.P,J1,*%
%TO.N,*%
X159954689Y-134983733D03*
%TD*%
D19*
%TO.P,Q5,1,C*%
%TO.N,+5V*%
X101926572Y-34798000D03*
D20*
%TO.P,Q5,2,B*%
%TO.N,Net-(Q5-B)*%
X103196572Y-33528000D03*
%TO.P,Q5,3,E*%
%TO.N,Net-(D13-A)*%
X104466572Y-34798000D03*
%TD*%
D17*
%TO.P,C5,1*%
%TO.N,GND*%
X116840000Y-136465000D03*
D18*
%TO.P,C5,2*%
%TO.N,Net-(D3-K)*%
X116840000Y-128965000D03*
%TD*%
D17*
%TO.P,C19,1*%
%TO.N,GND*%
X160020000Y-64008000D03*
D18*
%TO.P,C19,2*%
%TO.N,Net-(U7-THR)*%
X152520000Y-64008000D03*
%TD*%
D12*
%TO.P,D7,1,K*%
%TO.N,TOM_MIX*%
X88265000Y-138430000D03*
D13*
%TO.P,D7,2,A*%
%TO.N,Net-(D7-A)*%
X88265000Y-130810000D03*
%TD*%
D15*
%TO.P,R34,1*%
%TO.N,Net-(D17-K)*%
X131549000Y-45924000D03*
D16*
%TO.P,R34,2*%
%TO.N,GND*%
X131549000Y-40844000D03*
%TD*%
D15*
%TO.P,R33,1*%
%TO.N,Net-(D16-K)*%
X128399000Y-45924000D03*
D16*
%TO.P,R33,2*%
%TO.N,GND*%
X128399000Y-40844000D03*
%TD*%
D19*
%TO.P,Q7,1,C*%
%TO.N,+5V*%
X115860286Y-34798000D03*
D20*
%TO.P,Q7,2,B*%
%TO.N,Net-(Q7-B)*%
X117130286Y-33528000D03*
%TO.P,Q7,3,E*%
%TO.N,Net-(D15-A)*%
X118400286Y-34798000D03*
%TD*%
D15*
%TO.P,R5,1*%
%TO.N,Net-(R5-Pad1)*%
X68580000Y-128905000D03*
D16*
%TO.P,R5,2*%
%TO.N,WN_OUT*%
X73660000Y-128905000D03*
%TD*%
D14*
%TO.P,SW35,1,A*%
%TO.N,Net-(D18-A)*%
X151384000Y-85471000D03*
%TO.P,SW35,2,B*%
%TO.N,TOM*%
X146084000Y-85471000D03*
%TD*%
D11*
%TO.P,D19,2,A*%
%TO.N,Net-(D19-A)*%
X146177000Y-53208000D03*
D12*
%TO.P,D19,1,K*%
%TO.N,Net-(D19-K)*%
X146177000Y-50668000D03*
%TD*%
D15*
%TO.P,R12,1*%
%TO.N,Net-(U3A-+)*%
X144145000Y-120065000D03*
D16*
%TO.P,R12,2*%
%TO.N,GND*%
X144145000Y-125145000D03*
%TD*%
D14*
%TO.P,SW14,1,A*%
%TO.N,Net-(D14-A)*%
X101329000Y-100041000D03*
%TO.P,SW14,2,B*%
%TO.N,SD*%
X96029000Y-100041000D03*
%TD*%
D17*
%TO.P,C7,1*%
%TO.N,SD_WIRE_MIX*%
X134814000Y-136144000D03*
D18*
%TO.P,C7,2*%
%TO.N,Net-(C6-Pad2)*%
X127314000Y-136144000D03*
%TD*%
D15*
%TO.P,R4,1*%
%TO.N,Net-(U1B-+)*%
X83185000Y-121335000D03*
D16*
%TO.P,R4,2*%
%TO.N,GND*%
X83185000Y-126415000D03*
%TD*%
D11*
%TO.P,D12,2,A*%
%TO.N,Net-(D12-A)*%
X96393000Y-53213000D03*
D12*
%TO.P,D12,1,K*%
%TO.N,Net-(D12-K)*%
X96393000Y-50673000D03*
%TD*%
D14*
%TO.P,SW19,1,A*%
%TO.N,Net-(D15-A)*%
X113902000Y-99914000D03*
%TO.P,SW19,2,B*%
%TO.N,SD*%
X108602000Y-99914000D03*
%TD*%
%TO.P,SW23,1,A*%
%TO.N,Net-(D16-A)*%
X126331000Y-114519000D03*
%TO.P,SW23,2,B*%
%TO.N,BD*%
X121031000Y-114519000D03*
%TD*%
D12*
%TO.P,D6,1,K*%
%TO.N,Net-(D6-K)*%
X149860000Y-125095000D03*
D13*
%TO.P,D6,2,A*%
%TO.N,CH*%
X149860000Y-117475000D03*
%TD*%
D17*
%TO.P,C17,1*%
%TO.N,Net-(C13-Pad2)*%
X83158647Y-131461975D03*
D18*
%TO.P,C17,2*%
%TO.N,Net-(D7-A)*%
X90658647Y-131461975D03*
%TD*%
D14*
%TO.P,SW29,1,A*%
%TO.N,Net-(D17-A)*%
X138667000Y-100041000D03*
%TO.P,SW29,2,B*%
%TO.N,SD*%
X133367000Y-100041000D03*
%TD*%
%TO.P,SW25,1,A*%
%TO.N,Net-(D16-A)*%
X126348000Y-85344000D03*
%TO.P,SW25,2,B*%
%TO.N,TOM*%
X121048000Y-85344000D03*
%TD*%
D15*
%TO.P,R10,1*%
%TO.N,Net-(D4-A)*%
X96788080Y-128672784D03*
D16*
%TO.P,R10,2*%
%TO.N,Net-(U2A--)*%
X91708080Y-128672784D03*
%TD*%
D17*
%TO.P,C6,1*%
%TO.N,Net-(D2-A)*%
X115465402Y-117314101D03*
D18*
%TO.P,C6,2*%
%TO.N,Net-(C6-Pad2)*%
X115465402Y-124814101D03*
%TD*%
D14*
%TO.P,SW34,1,A*%
%TO.N,Net-(D18-A)*%
X151223000Y-99949000D03*
%TO.P,SW34,2,B*%
%TO.N,SD*%
X145923000Y-99949000D03*
%TD*%
%TO.P,SW20,1,A*%
%TO.N,Net-(D15-A)*%
X114139000Y-85471000D03*
%TO.P,SW20,2,B*%
%TO.N,TOM*%
X108839000Y-85471000D03*
%TD*%
D15*
%TO.P,R21,1*%
%TO.N,Net-(SW1-B)*%
X151783890Y-134317829D03*
D16*
%TO.P,R21,2*%
%TO.N,SD_MIX*%
X146703890Y-134317829D03*
%TD*%
D12*
%TO.P,D1,1,K*%
%TO.N,KD_MIX*%
X74295000Y-139065000D03*
D13*
%TO.P,D1,2,A*%
%TO.N,Net-(D1-A)*%
X74295000Y-131445000D03*
%TD*%
D14*
%TO.P,SW6,1,A*%
%TO.N,Net-(D12-A)*%
X76293000Y-71120000D03*
%TO.P,SW6,2,B*%
%TO.N,CH*%
X70993000Y-71120000D03*
%TD*%
D15*
%TO.P,R25,1*%
%TO.N,Net-(SW1-C)*%
X151859432Y-136477671D03*
D16*
%TO.P,R25,2*%
%TO.N,Net-(J1-PadT)*%
X146779432Y-136477671D03*
%TD*%
D12*
%TO.P,D5,1,K*%
%TO.N,Net-(D5-K)*%
X120015000Y-138430000D03*
D13*
%TO.P,D5,2,A*%
%TO.N,Net-(D5-A)*%
X120015000Y-130810000D03*
%TD*%
D18*
%TO.P,U3,8,V+*%
%TO.N,+5V*%
X132438674Y-117750938D03*
%TO.P,U3,7*%
%TO.N,Net-(J1-PadT)*%
X132438674Y-120290938D03*
%TO.P,U3,6,-*%
%TO.N,Net-(SW1-B)*%
X132438674Y-122830938D03*
%TO.P,U3,5,+*%
%TO.N,GND*%
X132438674Y-125370938D03*
%TO.P,U3,4,V-*%
X140058674Y-125370938D03*
%TO.P,U3,3,+*%
%TO.N,Net-(U3A-+)*%
X140058674Y-122830938D03*
%TO.P,U3,2,-*%
%TO.N,CH_MIX*%
X140058674Y-120290938D03*
D28*
%TO.P,U3,1*%
X140058674Y-117750938D03*
%TD*%
D20*
%TO.P,Q8,3,E*%
%TO.N,Net-(D16-A)*%
X125367143Y-34798000D03*
%TO.P,Q8,2,B*%
%TO.N,Net-(Q8-B)*%
X124097143Y-33528000D03*
D19*
%TO.P,Q8,1,C*%
%TO.N,+5V*%
X122827143Y-34798000D03*
%TD*%
D15*
%TO.P,R18,1*%
%TO.N,Net-(D7-A)*%
X85725000Y-121285000D03*
D16*
%TO.P,R18,2*%
%TO.N,Net-(U2B--)*%
X85725000Y-126365000D03*
%TD*%
D14*
%TO.P,SW4,1,A*%
%TO.N,Net-(D12-A)*%
X76276000Y-100076000D03*
%TO.P,SW4,2,B*%
%TO.N,SD*%
X70976000Y-100076000D03*
%TD*%
D15*
%TO.P,R29,1*%
%TO.N,Net-(D12-K)*%
X115799000Y-45924000D03*
D16*
%TO.P,R29,2*%
%TO.N,GND*%
X115799000Y-40844000D03*
%TD*%
D17*
%TO.P,C9,1*%
%TO.N,Net-(C8-Pad2)*%
X99695000Y-134560000D03*
D18*
%TO.P,C9,2*%
%TO.N,Net-(D4-A)*%
X99695000Y-127060000D03*
%TD*%
D28*
%TO.P,U2,1*%
%TO.N,Net-(D4-A)*%
X102860000Y-117485000D03*
D18*
%TO.P,U2,2,-*%
%TO.N,Net-(U2A--)*%
X102860000Y-120025000D03*
%TO.P,U2,3,+*%
%TO.N,SD*%
X102860000Y-122565000D03*
%TO.P,U2,4,V-*%
%TO.N,GND*%
X102860000Y-125105000D03*
%TO.P,U2,5,+*%
%TO.N,TOM*%
X95240000Y-125105000D03*
%TO.P,U2,6,-*%
%TO.N,Net-(U2B--)*%
X95240000Y-122565000D03*
%TO.P,U2,7*%
%TO.N,Net-(D7-A)*%
X95240000Y-120025000D03*
%TO.P,U2,8,V+*%
%TO.N,+5V*%
X95240000Y-117485000D03*
%TD*%
D15*
%TO.P,R14,1*%
%TO.N,Net-(C14-Pad2)*%
X106095000Y-137795000D03*
D16*
%TO.P,R14,2*%
%TO.N,Net-(C15-Pad1)*%
X111175000Y-137795000D03*
%TD*%
D14*
%TO.P,SW31,1,A*%
%TO.N,Net-(D17-A)*%
X138921000Y-71085000D03*
%TO.P,SW31,2,B*%
%TO.N,CH*%
X133621000Y-71085000D03*
%TD*%
%TO.P,SW3,1,A*%
%TO.N,Net-(D12-A)*%
X76259000Y-114462000D03*
%TO.P,SW3,2,B*%
%TO.N,BD*%
X70959000Y-114462000D03*
%TD*%
D20*
%TO.P,Q11,3,E*%
%TO.N,Net-(D19-A)*%
X146267715Y-34798000D03*
%TO.P,Q11,2,B*%
%TO.N,Net-(Q11-B)*%
X144997715Y-33528000D03*
D19*
%TO.P,Q11,1,C*%
%TO.N,+5V*%
X143727715Y-34798000D03*
%TD*%
D15*
%TO.P,R11,1*%
%TO.N,Net-(D5-A)*%
X144330519Y-128452271D03*
D16*
%TO.P,R11,2*%
%TO.N,Net-(D6-K)*%
X139250519Y-128452271D03*
%TD*%
D11*
%TO.P,D17,2,A*%
%TO.N,Net-(D17-A)*%
X131953000Y-53213000D03*
D12*
%TO.P,D17,1,K*%
%TO.N,Net-(D17-K)*%
X131953000Y-50673000D03*
%TD*%
D15*
%TO.P,R23,1*%
%TO.N,Net-(SW1-B)*%
X156972000Y-129540000D03*
D16*
%TO.P,R23,2*%
%TO.N,CH_MIX*%
X156972000Y-124460000D03*
%TD*%
D17*
%TO.P,C12,1*%
%TO.N,Net-(D5-A)*%
X146685000Y-127000000D03*
D18*
%TO.P,C12,2*%
%TO.N,Net-(U3A-+)*%
X146685000Y-119500000D03*
%TD*%
D17*
%TO.P,C14,1*%
%TO.N,WN_OUT*%
X113111005Y-131873406D03*
D18*
%TO.P,C14,2*%
%TO.N,Net-(C14-Pad2)*%
X105611005Y-131873406D03*
%TD*%
D16*
%TO.P,R2,2*%
%TO.N,Net-(U1A--)*%
X75515000Y-128905000D03*
D15*
%TO.P,R2,1*%
%TO.N,Net-(D1-A)*%
X80595000Y-128905000D03*
%TD*%
D12*
%TO.P,D8,1,K*%
%TO.N,+5V*%
X69723000Y-67056000D03*
D13*
%TO.P,D8,2,A*%
%TO.N,Net-(D8-A)*%
X69723000Y-59436000D03*
%TD*%
D31*
%TO.P,J3,3*%
%TO.N,N/C*%
X76073000Y-51181000D03*
D32*
%TO.P,J3,2*%
%TO.N,GND*%
X71373000Y-48181000D03*
D33*
%TO.P,J3,1*%
%TO.N,VIN*%
X71373000Y-54181000D03*
%TD*%
D15*
%TO.P,R26,1*%
%TO.N,Net-(U4-PROG)*%
X81915000Y-58293000D03*
D16*
%TO.P,R26,2*%
%TO.N,GND*%
X81915000Y-63373000D03*
%TD*%
D15*
%TO.P,R36,1*%
%TO.N,Net-(D19-K)*%
X137849000Y-45924000D03*
D16*
%TO.P,R36,2*%
%TO.N,GND*%
X137849000Y-40844000D03*
%TD*%
D18*
%TO.P,U1,8,V+*%
%TO.N,+5V*%
X69850000Y-118110000D03*
%TO.P,U1,7*%
%TO.N,Net-(R5-Pad1)*%
X69850000Y-120650000D03*
%TO.P,U1,6,-*%
%TO.N,WN_OUT*%
X69850000Y-123190000D03*
%TO.P,U1,5,+*%
%TO.N,Net-(U1B-+)*%
X69850000Y-125730000D03*
%TO.P,U1,4,V-*%
%TO.N,GND*%
X77470000Y-125730000D03*
%TO.P,U1,3,+*%
%TO.N,BD*%
X77470000Y-123190000D03*
%TO.P,U1,2,-*%
%TO.N,Net-(U1A--)*%
X77470000Y-120650000D03*
D28*
%TO.P,U1,1*%
%TO.N,Net-(D1-A)*%
X77470000Y-118110000D03*
%TD*%
D15*
%TO.P,R6,1*%
%TO.N,GND*%
X81280000Y-126315000D03*
D16*
%TO.P,R6,2*%
%TO.N,WN_OUT*%
X81280000Y-121235000D03*
%TD*%
D34*
%TO.N,+5V*%
X120396000Y-61468000D03*
%TO.N,GND*%
X137160000Y-123444000D03*
X135036000Y-123444000D03*
X97028000Y-64516000D03*
X85852000Y-52324000D03*
X89408000Y-53340000D03*
X90424000Y-61468000D03*
X91948000Y-66040000D03*
X131572000Y-57404000D03*
X131064000Y-43688000D03*
%TO.N,Net-(C6-Pad2)*%
X127000000Y-134112000D03*
%TO.N,Net-(U7-CV)*%
X138321000Y-65024000D03*
X133096000Y-69364000D03*
%TO.N,BEAT*%
X120396000Y-56896000D03*
X124460000Y-56896000D03*
X127508000Y-56388000D03*
X127508000Y-64008000D03*
X115316000Y-57912000D03*
%TO.N,Net-(U7-THR)*%
X140208000Y-55880000D03*
X149860000Y-64516000D03*
X125476000Y-62484000D03*
X123952000Y-65532000D03*
%TO.N,Net-(Q11-B)*%
X141732000Y-71985000D03*
%TO.N,+5V*%
X109474000Y-56642000D03*
X118964000Y-56388000D03*
%TO.N,Net-(Q10-B)*%
X130048000Y-41656000D03*
X117764000Y-62484000D03*
X116240000Y-62992000D03*
X103116000Y-62167108D03*
X102616000Y-64008000D03*
X132080000Y-39116000D03*
%TO.N,Net-(Q6-B)*%
X106172000Y-41656000D03*
X107696000Y-58420000D03*
X106318758Y-60378621D03*
X105156000Y-67056000D03*
%TO.N,Net-(Q8-B)*%
X95504000Y-59436000D03*
X101184000Y-54685473D03*
X96012000Y-55788000D03*
X112960000Y-55880000D03*
X115488765Y-50119235D03*
X117856000Y-48260000D03*
X120396000Y-40132000D03*
%TO.N,Net-(Q9-B)*%
X127508000Y-38608000D03*
X127092000Y-41656000D03*
X117764000Y-56896000D03*
X115824000Y-64516000D03*
%TO.N,Net-(Q4-B)*%
X103116000Y-65532000D03*
%TO.N,Net-(Q5-B)*%
X101600000Y-59436000D03*
X101924527Y-56912000D03*
X100584000Y-49368000D03*
X100584000Y-47752000D03*
%TO.N,Net-(Q4-B)*%
X97028000Y-57912000D03*
X99568000Y-47752000D03*
X99568000Y-49368000D03*
%TO.N,Net-(Q11-B)*%
X149352000Y-34544000D03*
%TO.N,Net-(D17-A)*%
X132588000Y-38278000D03*
X133096000Y-42164000D03*
%TO.N,Net-(D16-A)*%
X126492000Y-52832000D03*
X126492000Y-39624000D03*
%TO.N,Net-(D13-A)*%
X105664000Y-47244000D03*
%TO.N,Net-(D12-A)*%
X98044000Y-43018000D03*
%TO.N,Net-(D12-K)*%
X107696000Y-48657990D03*
%TO.N,Net-(D13-K)*%
X108204000Y-49276000D03*
%TO.N,Net-(D15-A)*%
X114139000Y-74168000D03*
X118364000Y-74676000D03*
%TO.N,Net-(D13-A)*%
X94488000Y-56388000D03*
%TO.N,Net-(D15-A)*%
X113284000Y-112360000D03*
%TO.N,+5V*%
X73660000Y-111760000D03*
X93472000Y-116332000D03*
X93472000Y-118364000D03*
X73660000Y-71628000D03*
X102616000Y-55372000D03*
X108204000Y-55372000D03*
X88392000Y-68072000D03*
%TO.N,Net-(D10-K)*%
X114808000Y-77216000D03*
X127075000Y-79248000D03*
X140208000Y-78232000D03*
X151967000Y-76200000D03*
X154432000Y-71628000D03*
%TO.N,Net-(Q11-B)*%
X100584000Y-76200000D03*
X136144000Y-73660000D03*
X98552000Y-71985000D03*
%TO.N,+5V*%
X107696000Y-41656000D03*
X111760000Y-58928000D03*
X142240000Y-35560000D03*
%TO.N,Net-(D19-A)*%
X147828000Y-38608000D03*
X147320000Y-44196000D03*
%TO.N,Net-(D17-A)*%
X138684000Y-73660000D03*
X138176000Y-88900000D03*
X139700000Y-102141000D03*
X138684000Y-107188000D03*
X138684000Y-112268000D03*
%TO.N,Net-(SW1-A)*%
X153416000Y-137160000D03*
%TO.N,Net-(SW1-B)*%
X143570186Y-134426186D03*
X139700000Y-130845000D03*
X137160000Y-127592223D03*
%TO.N,Net-(J1-PadT)*%
X137160000Y-119888000D03*
X136236000Y-115316000D03*
X139700000Y-111252000D03*
X148336000Y-126492000D03*
%TO.N,SD_MIX*%
X93472000Y-137795000D03*
%TO.N,KD_MIX*%
X127508000Y-110744000D03*
X135636000Y-129032000D03*
%TO.N,Net-(D5-A)*%
X124460000Y-131445000D03*
%TO.N,+5V*%
X99695000Y-114935000D03*
X116840000Y-111760000D03*
X124460000Y-116840000D03*
%TO.N,Net-(Q3-B)*%
X111125000Y-135890000D03*
%TO.N,CH*%
X146685000Y-73660000D03*
X147955000Y-116840000D03*
%TO.N,Net-(D3-K)*%
X112395000Y-127000000D03*
%TO.N,Net-(C15-Pad1)*%
X109220000Y-133350000D03*
%TO.N,WN_OUT*%
X106680000Y-130175000D03*
X86360000Y-116205000D03*
X92075000Y-116205000D03*
X99060000Y-117475000D03*
%TO.N,Net-(D4-A)*%
X92075000Y-132715000D03*
X99060000Y-125095000D03*
%TO.N,Net-(U2A--)*%
X95885000Y-127000000D03*
%TO.N,SD*%
X104775000Y-116840000D03*
%TO.N,Net-(D7-A)*%
X88900000Y-124460000D03*
%TO.N,Net-(C13-Pad2)*%
X87630000Y-121285000D03*
%TO.N,Net-(U2B--)*%
X90194263Y-121474266D03*
%TO.N,Net-(D7-A)*%
X90170000Y-120650000D03*
%TO.N,Net-(U1B-+)*%
X77470000Y-129540000D03*
%TO.N,WN_OUT*%
X76200000Y-124460000D03*
%TO.N,+5V*%
X68580000Y-130810000D03*
%TO.N,Net-(D1-A)*%
X79375000Y-127635000D03*
%TO.N,GND*%
X91694000Y-42418000D03*
X86360000Y-43815000D03*
%TO.N,VIN*%
X78613000Y-56642000D03*
%TO.N,TOM*%
X91059000Y-119380000D03*
%TD*%
D35*
%TO.N,KD_MIX*%
X68580000Y-139700000D02*
X68580000Y-139960784D01*
X67056000Y-138176000D02*
X68580000Y-139700000D01*
X73399216Y-139960784D02*
X68580000Y-139960784D01*
%TO.N,Net-(Q7-B)*%
X93752000Y-32578000D02*
X92294000Y-34036000D01*
X116180286Y-32578000D02*
X93752000Y-32578000D01*
X92294000Y-34036000D02*
X92294000Y-46390000D01*
X117130286Y-33528000D02*
X116180286Y-32578000D01*
%TO.N,+5V*%
X121920000Y-59944000D02*
X120396000Y-61468000D01*
%TO.N,GND*%
X137160000Y-123444000D02*
X135036000Y-123444000D01*
X98636000Y-62908000D02*
X97028000Y-64516000D01*
X98636000Y-60368000D02*
X98636000Y-62908000D01*
X100168000Y-58836000D02*
X98636000Y-60368000D01*
X103032000Y-58836000D02*
X100168000Y-58836000D01*
X105156000Y-60960000D02*
X103032000Y-58836000D01*
X89408000Y-53340000D02*
X86868000Y-53340000D01*
X86868000Y-53340000D02*
X85852000Y-52324000D01*
X90424000Y-64008000D02*
X90424000Y-61468000D01*
X91948000Y-65532000D02*
X90424000Y-64008000D01*
X91948000Y-66040000D02*
X91948000Y-65532000D01*
X131572000Y-57912000D02*
X131572000Y-57404000D01*
X129540000Y-59944000D02*
X131572000Y-57912000D01*
X131549000Y-43203000D02*
X131064000Y-43688000D01*
X131549000Y-40844000D02*
X131549000Y-43203000D01*
X79389000Y-59588000D02*
X79389000Y-60847000D01*
X79389000Y-60847000D02*
X81915000Y-63373000D01*
%TO.N,VIN*%
X77735000Y-56642000D02*
X74789000Y-59588000D01*
X78613000Y-56642000D02*
X77735000Y-56642000D01*
%TO.N,Net-(C6-Pad2)*%
X115569301Y-124918000D02*
X115465402Y-124814101D01*
X119888000Y-124918000D02*
X115569301Y-124918000D01*
%TO.N,CH_MIX*%
X153416000Y-123952000D02*
X147214938Y-117750938D01*
X156464000Y-123952000D02*
X153416000Y-123952000D01*
X156972000Y-124460000D02*
X156464000Y-123952000D01*
X147214938Y-117750938D02*
X140058674Y-117750938D01*
%TO.N,Net-(SW1-B)*%
X156972000Y-132080000D02*
X157480000Y-132588000D01*
X156972000Y-129540000D02*
X156972000Y-132080000D01*
X140378372Y-137618000D02*
X143570186Y-134426186D01*
X137668000Y-137618000D02*
X140378372Y-137618000D01*
%TO.N,SD_WIRE_MIX*%
X134814000Y-136144000D02*
X137668000Y-133290000D01*
X137668000Y-133290000D02*
X137668000Y-132538000D01*
X135830000Y-137160000D02*
X134814000Y-136144000D01*
%TO.N,Net-(C6-Pad2)*%
X127314000Y-134426000D02*
X127000000Y-134112000D01*
X127314000Y-136144000D02*
X127314000Y-134426000D01*
%TO.N,Net-(U7-CV)*%
X138321000Y-65024000D02*
X138829000Y-64516000D01*
X138829000Y-64516000D02*
X141418000Y-64516000D01*
X132896000Y-69164000D02*
X133096000Y-69364000D01*
X123520000Y-69164000D02*
X132896000Y-69164000D01*
X121920000Y-67564000D02*
X123520000Y-69164000D01*
%TO.N,Net-(U7-THR)*%
X119888000Y-67056000D02*
X121920000Y-65024000D01*
X119888000Y-68172000D02*
X119888000Y-67056000D01*
%TO.N,Net-(U7-DIS)*%
X120496000Y-62484000D02*
X119888000Y-63092000D01*
X121920000Y-62484000D02*
X120496000Y-62484000D01*
%TO.N,BEAT*%
X115716000Y-58312000D02*
X115316000Y-57912000D01*
X118980000Y-58312000D02*
X115716000Y-58312000D01*
X120396000Y-56896000D02*
X118980000Y-58312000D01*
X124968000Y-56388000D02*
X124460000Y-56896000D01*
X127508000Y-56388000D02*
X124968000Y-56388000D01*
X128524000Y-64008000D02*
X127508000Y-64008000D01*
X129540000Y-65024000D02*
X128524000Y-64008000D01*
%TO.N,Net-(U7-THR)*%
X126492000Y-61468000D02*
X127508000Y-62484000D01*
X126492000Y-60792000D02*
X126492000Y-61468000D01*
X131404000Y-55880000D02*
X126492000Y-60792000D01*
X140208000Y-55880000D02*
X131404000Y-55880000D01*
X127508000Y-62484000D02*
X129540000Y-62484000D01*
X150368000Y-64008000D02*
X149860000Y-64516000D01*
X152520000Y-64008000D02*
X150368000Y-64008000D01*
X125476000Y-62484000D02*
X129540000Y-62484000D01*
X123444000Y-65024000D02*
X123952000Y-65532000D01*
X121920000Y-65024000D02*
X123444000Y-65024000D01*
%TO.N,+5V*%
X130740000Y-66364000D02*
X129540000Y-67564000D01*
X136508000Y-66364000D02*
X130740000Y-66364000D01*
X137708000Y-67564000D02*
X136508000Y-66364000D01*
%TO.N,Net-(Q11-B)*%
X141732000Y-68943000D02*
X141732000Y-71985000D01*
X143183500Y-67491500D02*
X141732000Y-68943000D01*
X143183500Y-67491500D02*
X154830000Y-55845000D01*
%TO.N,Net-(U7-DIS)*%
X139821493Y-67950507D02*
X140208000Y-67950507D01*
X135895471Y-70704000D02*
X137068000Y-70704000D01*
X133955471Y-68764000D02*
X135895471Y-70704000D01*
X128200000Y-68764000D02*
X133955471Y-68764000D01*
X121920000Y-62484000D02*
X128200000Y-68764000D01*
X137068000Y-70704000D02*
X139821493Y-67950507D01*
%TO.N,+5V*%
X129540000Y-67564000D02*
X121920000Y-59944000D01*
X116326529Y-56642000D02*
X109474000Y-56642000D01*
X117596529Y-57912000D02*
X116326529Y-56642000D01*
X118964000Y-56544529D02*
X117596529Y-57912000D01*
X118964000Y-56388000D02*
X118964000Y-56544529D01*
X122428000Y-60452000D02*
X121536265Y-59560265D01*
%TO.N,Net-(Q10-B)*%
X135636000Y-33528000D02*
X138030857Y-33528000D01*
X134620000Y-34544000D02*
X135636000Y-33528000D01*
X134620000Y-37094529D02*
X134620000Y-34544000D01*
X132598529Y-39116000D02*
X134620000Y-37094529D01*
X132080000Y-39116000D02*
X132598529Y-39116000D01*
X127508000Y-49276000D02*
X130048000Y-46736000D01*
X127508000Y-55372000D02*
X127508000Y-49276000D01*
X124876000Y-55372000D02*
X127508000Y-55372000D01*
X117764000Y-62484000D02*
X124876000Y-55372000D01*
X103116000Y-62167108D02*
X103940892Y-62992000D01*
X103940892Y-62992000D02*
X116240000Y-62992000D01*
X100076000Y-66548000D02*
X102616000Y-64008000D01*
X130048000Y-46736000D02*
X130048000Y-41656000D01*
X100076000Y-68580000D02*
X100076000Y-66548000D01*
%TO.N,Net-(Q7-B)*%
X93472000Y-64516000D02*
X97536000Y-68580000D01*
X93472000Y-60619471D02*
X93472000Y-64516000D01*
X95088000Y-59003471D02*
X93472000Y-60619471D01*
X95088000Y-49876000D02*
X95088000Y-59003471D01*
X91948000Y-46736000D02*
X95088000Y-49876000D01*
X92294000Y-46390000D02*
X91948000Y-46736000D01*
%TO.N,Net-(Q6-B)*%
X107696000Y-33020000D02*
X108204000Y-33528000D01*
X107188000Y-40640000D02*
X107188000Y-33020000D01*
X106172000Y-41656000D02*
X107188000Y-40640000D01*
X106318758Y-59797242D02*
X107696000Y-58420000D01*
X106318758Y-60378621D02*
X106318758Y-59797242D01*
X107188000Y-33020000D02*
X107696000Y-33020000D01*
X108204000Y-33528000D02*
X110163429Y-33528000D01*
X105156000Y-68580000D02*
X105156000Y-67056000D01*
%TO.N,Net-(Q8-B)*%
X95504000Y-56296000D02*
X95504000Y-59436000D01*
X101184000Y-55464000D02*
X101184000Y-54685473D01*
X112868000Y-55972000D02*
X101692000Y-55972000D01*
X112960000Y-55880000D02*
X112868000Y-55972000D01*
X116840000Y-48768000D02*
X115488765Y-50119235D01*
X117348000Y-48768000D02*
X116840000Y-48768000D01*
X117856000Y-48260000D02*
X117348000Y-48768000D01*
X120396000Y-35329143D02*
X120396000Y-40132000D01*
X122197143Y-33528000D02*
X120396000Y-35329143D01*
X101692000Y-55972000D02*
X101184000Y-55464000D01*
X96012000Y-55788000D02*
X95504000Y-56296000D01*
X124097143Y-33528000D02*
X122197143Y-33528000D01*
%TO.N,Net-(Q9-B)*%
X129032000Y-33528000D02*
X131064000Y-33528000D01*
X127508000Y-35052000D02*
X129032000Y-33528000D01*
X127508000Y-38608000D02*
X127508000Y-35052000D01*
X127092000Y-45628000D02*
X127092000Y-41656000D01*
X117764000Y-56896000D02*
X117764000Y-54956000D01*
X117764000Y-54956000D02*
X127092000Y-45628000D01*
X112776000Y-67564000D02*
X115824000Y-64516000D01*
X112776000Y-68580000D02*
X112776000Y-67564000D01*
%TO.N,Net-(Q4-B)*%
X104648000Y-65532000D02*
X107696000Y-68580000D01*
X103116000Y-65532000D02*
X104648000Y-65532000D01*
%TO.N,Net-(Q5-B)*%
X107188000Y-65532000D02*
X110236000Y-68580000D01*
X105632365Y-65532000D02*
X107188000Y-65532000D01*
X101176000Y-61075635D02*
X105632365Y-65532000D01*
X101176000Y-59860000D02*
X101176000Y-61075635D01*
X101600000Y-59436000D02*
X101176000Y-59860000D01*
X100584000Y-55571473D02*
X101924527Y-56912000D01*
X103196572Y-45139428D02*
X100584000Y-47752000D01*
X100584000Y-49368000D02*
X100584000Y-55571473D01*
X103196572Y-33528000D02*
X103196572Y-45139428D01*
%TO.N,Net-(Q4-B)*%
X99568000Y-55372000D02*
X97028000Y-57912000D01*
X99568000Y-49368000D02*
X99568000Y-55372000D01*
X99568000Y-35522782D02*
X99568000Y-47752000D01*
X97573218Y-33528000D02*
X99568000Y-35522782D01*
X96229715Y-33528000D02*
X97573218Y-33528000D01*
%TO.N,Net-(Q11-B)*%
X154830000Y-40022000D02*
X149352000Y-34544000D01*
X154830000Y-55845000D02*
X154830000Y-40022000D01*
%TO.N,Net-(D18-A)*%
X140265000Y-35762143D02*
X140265000Y-52013000D01*
X139300857Y-34798000D02*
X140265000Y-35762143D01*
X140265000Y-52013000D02*
X139065000Y-53213000D01*
%TO.N,Net-(D17-A)*%
X132334000Y-38024000D02*
X132334000Y-34798000D01*
X132588000Y-38278000D02*
X132334000Y-38024000D01*
X133153000Y-42221000D02*
X133096000Y-42164000D01*
X133153000Y-52013000D02*
X133153000Y-42221000D01*
X131953000Y-53213000D02*
X133153000Y-52013000D01*
%TO.N,Net-(D16-A)*%
X125222000Y-52832000D02*
X124841000Y-53213000D01*
X126492000Y-52832000D02*
X125222000Y-52832000D01*
X125367143Y-38499143D02*
X126492000Y-39624000D01*
X125367143Y-34798000D02*
X125367143Y-38499143D01*
%TO.N,Net-(D15-A)*%
X114799000Y-38617000D02*
X115316000Y-38100000D01*
X114799000Y-50278000D02*
X114799000Y-38617000D01*
X117729000Y-53208000D02*
X114799000Y-50278000D01*
X115316000Y-38100000D02*
X115316000Y-37882286D01*
X115316000Y-37882286D02*
X118400286Y-34798000D01*
%TO.N,Net-(D14-A)*%
X112083428Y-51746572D02*
X110617000Y-53213000D01*
X112083428Y-35447999D02*
X112083428Y-51746572D01*
X111433429Y-34798000D02*
X112083428Y-35447999D01*
%TO.N,Net-(D13-A)*%
X105664000Y-45777461D02*
X105664000Y-47244000D01*
X104466572Y-44580033D02*
X105664000Y-45777461D01*
X104466572Y-34798000D02*
X104466572Y-44580033D01*
%TO.N,Net-(D12-A)*%
X97499715Y-38063715D02*
X97499715Y-34798000D01*
X98044000Y-38608000D02*
X97499715Y-38063715D01*
X98044000Y-43018000D02*
X98044000Y-38608000D01*
%TO.N,Net-(D12-K)*%
X98298000Y-48768000D02*
X96393000Y-50673000D01*
X107585990Y-48768000D02*
X98298000Y-48768000D01*
X107696000Y-48657990D02*
X107585990Y-48768000D01*
%TO.N,Net-(D13-K)*%
X106807000Y-50673000D02*
X103505000Y-50673000D01*
X108204000Y-49276000D02*
X106807000Y-50673000D01*
%TO.N,Net-(D15-A)*%
X118364000Y-74676000D02*
X117856000Y-74168000D01*
X117856000Y-74168000D02*
X114139000Y-74168000D01*
%TO.N,Net-(D13-A)*%
X89027000Y-61849000D02*
X89027000Y-71120000D01*
X94488000Y-56388000D02*
X89027000Y-61849000D01*
%TO.N,Net-(D8-A)*%
X71175000Y-60888000D02*
X69723000Y-59436000D01*
X75789000Y-60888000D02*
X71175000Y-60888000D01*
X77089000Y-59588000D02*
X75789000Y-60888000D01*
X77089000Y-65888000D02*
X77089000Y-59588000D01*
%TO.N,Net-(D15-A)*%
X113775000Y-112851000D02*
X113284000Y-112360000D01*
X113775000Y-114519000D02*
X113775000Y-112851000D01*
%TO.N,+5V*%
X93472000Y-116332000D02*
X88900000Y-111760000D01*
X88900000Y-111760000D02*
X73660000Y-111760000D01*
X94361000Y-118364000D02*
X93472000Y-118364000D01*
X95240000Y-117485000D02*
X94361000Y-118364000D01*
X73660000Y-70993000D02*
X73660000Y-71628000D01*
X69723000Y-67056000D02*
X73660000Y-70993000D01*
X102616000Y-55372000D02*
X108204000Y-55372000D01*
X87503000Y-67183000D02*
X88392000Y-68072000D01*
X84836000Y-67183000D02*
X87503000Y-67183000D01*
%TO.N,Net-(D10-K)*%
X116332000Y-78740000D02*
X114808000Y-77216000D01*
X127075000Y-79248000D02*
X126567000Y-78740000D01*
X126567000Y-78740000D02*
X116332000Y-78740000D01*
X151967000Y-76200000D02*
X142240000Y-76200000D01*
X142240000Y-76200000D02*
X140208000Y-78232000D01*
X153416000Y-70612000D02*
X154432000Y-71628000D01*
X153416000Y-67564000D02*
X153416000Y-70612000D01*
%TO.N,Net-(D11-A)*%
X145796000Y-67564000D02*
X157515000Y-55845000D01*
X157515000Y-55845000D02*
X160130000Y-55845000D01*
%TO.N,Net-(Q11-B)*%
X133604000Y-76200000D02*
X136144000Y-73660000D01*
X100584000Y-76200000D02*
X133604000Y-76200000D01*
X101957000Y-68580000D02*
X98552000Y-71985000D01*
X102616000Y-68580000D02*
X101957000Y-68580000D01*
%TO.N,Net-(D10-A)*%
X98444000Y-57512000D02*
X94996000Y-60960000D01*
X113900000Y-57512000D02*
X98444000Y-57512000D01*
X116840000Y-60452000D02*
X113900000Y-57512000D01*
%TO.N,+5V*%
X107696000Y-41656000D02*
X108893429Y-40458571D01*
X108893429Y-40458571D02*
X108893429Y-34798000D01*
X111252000Y-58928000D02*
X111760000Y-58928000D01*
%TO.N,Net-(D10-K)*%
X112608529Y-57912000D02*
X111702315Y-57912000D01*
X113792000Y-59378314D02*
X113792000Y-59095471D01*
X113792000Y-59095471D02*
X112608529Y-57912000D01*
X116840000Y-62426314D02*
X113792000Y-59378314D01*
X116840000Y-68072000D02*
X116840000Y-62426314D01*
X111702315Y-57912000D02*
X110236000Y-59378315D01*
X110236000Y-59378315D02*
X110236000Y-60960000D01*
%TO.N,+5V*%
X111252000Y-59436000D02*
X111252000Y-58928000D01*
X112776000Y-60960000D02*
X111252000Y-59436000D01*
X143002000Y-34798000D02*
X142240000Y-35560000D01*
X143727715Y-34798000D02*
X143002000Y-34798000D01*
%TO.N,Net-(D19-A)*%
X146267715Y-37047715D02*
X146267715Y-34798000D01*
X147828000Y-38608000D02*
X146267715Y-37047715D01*
X147377000Y-44253000D02*
X147320000Y-44196000D01*
X146177000Y-53208000D02*
X147377000Y-52008000D01*
X147377000Y-52008000D02*
X147377000Y-44253000D01*
%TO.N,Net-(D17-A)*%
X138794000Y-73770000D02*
X138684000Y-73660000D01*
X138794000Y-85563000D02*
X138794000Y-73770000D01*
X138667000Y-89391000D02*
X138176000Y-88900000D01*
X138667000Y-100041000D02*
X138667000Y-89391000D01*
X139051000Y-102141000D02*
X139700000Y-102141000D01*
X138851000Y-101941000D02*
X139051000Y-102141000D01*
X138684000Y-102108000D02*
X138851000Y-101941000D01*
X138684000Y-107188000D02*
X138684000Y-102108000D01*
X138667000Y-112285000D02*
X138684000Y-112268000D01*
X138667000Y-114519000D02*
X138667000Y-112285000D01*
%TO.N,Net-(J1-PadT)*%
X146812000Y-136510239D02*
X146779432Y-136477671D01*
X146812000Y-138684000D02*
X146812000Y-136510239D01*
%TO.N,Net-(SW1-A)*%
X151892000Y-138684000D02*
X153416000Y-137160000D01*
%TO.N,Net-(J1-PadT)*%
X146779432Y-136477671D02*
X149827733Y-133429370D01*
X149827733Y-133429370D02*
X149827733Y-127983733D01*
%TO.N,Net-(SW1-C)*%
X156130329Y-136477671D02*
X160020000Y-132588000D01*
X151859432Y-136477671D02*
X156130329Y-136477671D01*
%TO.N,Net-(SW1-B)*%
X154940000Y-130048000D02*
X151842000Y-130048000D01*
X157480000Y-132588000D02*
X154940000Y-130048000D01*
X139989000Y-130845000D02*
X143570186Y-134426186D01*
X139700000Y-130845000D02*
X139989000Y-130845000D01*
X137160000Y-127552264D02*
X137160000Y-127592223D01*
X132438674Y-122830938D02*
X137160000Y-127552264D01*
%TO.N,Net-(J1-PadT)*%
X136757062Y-120290938D02*
X132438674Y-120290938D01*
X137160000Y-119888000D02*
X136757062Y-120290938D01*
X136236000Y-113700000D02*
X136236000Y-115316000D01*
X138684000Y-111252000D02*
X136236000Y-113700000D01*
X139700000Y-111252000D02*
X138684000Y-111252000D01*
X149827733Y-127983733D02*
X148336000Y-126492000D01*
X165454689Y-127983733D02*
X149827733Y-127983733D01*
%TO.N,Net-(SW1-B)*%
X151783890Y-132141012D02*
X151815239Y-132109663D01*
X151783890Y-134317829D02*
X151783890Y-132141012D01*
X151842000Y-132082902D02*
X151815239Y-132109663D01*
X151842000Y-130048000D02*
X151842000Y-132082902D01*
%TO.N,SD_MIX*%
X90805000Y-137795000D02*
X93472000Y-137795000D01*
%TO.N,TOM_MIX*%
X102616000Y-136144000D02*
X99765000Y-138995000D01*
X106102000Y-139630000D02*
X102616000Y-136144000D01*
X99765000Y-138995000D02*
X88830000Y-138995000D01*
X88830000Y-138995000D02*
X88265000Y-138430000D01*
X139214902Y-139630000D02*
X106102000Y-139630000D01*
X146735239Y-132109663D02*
X139214902Y-139630000D01*
%TO.N,KD_MIX*%
X68580000Y-110744000D02*
X127508000Y-110744000D01*
X67056000Y-112268000D02*
X68580000Y-110744000D01*
X74295000Y-139065000D02*
X73399216Y-139960784D01*
X67056000Y-138176000D02*
X67056000Y-112268000D01*
X136652000Y-130048000D02*
X135636000Y-129032000D01*
X146762000Y-130048000D02*
X136652000Y-130048000D01*
%TO.N,Net-(D5-A)*%
X123825000Y-130810000D02*
X124460000Y-131445000D01*
X120015000Y-130810000D02*
X123825000Y-130810000D01*
%TO.N,Net-(D6-K)*%
X138990471Y-128192223D02*
X139250519Y-128452271D01*
X131853231Y-128192223D02*
X138990471Y-128192223D01*
X145609214Y-125095000D02*
X149860000Y-125095000D01*
X142251943Y-128452271D02*
X145609214Y-125095000D01*
X139250519Y-128452271D02*
X142251943Y-128452271D01*
%TO.N,+5V*%
X99695000Y-114158679D02*
X99695000Y-114935000D01*
X102093679Y-111760000D02*
X99695000Y-114158679D01*
X116840000Y-111760000D02*
X102093679Y-111760000D01*
X125095000Y-117475000D02*
X124460000Y-116840000D01*
X125095000Y-121970000D02*
X125095000Y-117475000D01*
X128219612Y-121970000D02*
X132438674Y-117750938D01*
X125095000Y-121970000D02*
X128219612Y-121970000D01*
%TO.N,Net-(Q3-B)*%
X126375000Y-127050000D02*
X125095000Y-127050000D01*
X128250000Y-128925000D02*
X126375000Y-127050000D01*
X128250000Y-129140000D02*
X128250000Y-128925000D01*
X122735000Y-135255000D02*
X111979214Y-135255000D01*
X111979214Y-135255000D02*
X111344214Y-135890000D01*
X128250000Y-129740000D02*
X122735000Y-135255000D01*
X111344214Y-135890000D02*
X111125000Y-135890000D01*
X128250000Y-129140000D02*
X128250000Y-129740000D01*
%TO.N,Net-(D5-K)*%
X121115000Y-138430000D02*
X129520000Y-130025000D01*
X129520000Y-130025000D02*
X129520000Y-129140000D01*
X120015000Y-138430000D02*
X121115000Y-138430000D01*
%TO.N,CH*%
X146685000Y-71703000D02*
X146067000Y-71085000D01*
X146685000Y-73660000D02*
X146685000Y-71703000D01*
X148590000Y-117475000D02*
X147955000Y-116840000D01*
X149860000Y-117475000D02*
X148590000Y-117475000D01*
%TO.N,Net-(D5-A)*%
X146685000Y-127515000D02*
X145267790Y-127515000D01*
X145267790Y-127515000D02*
X144330519Y-128452271D01*
%TO.N,Net-(U3A-+)*%
X146000000Y-120065000D02*
X144145000Y-120065000D01*
X146685000Y-120015000D02*
X146050000Y-120015000D01*
X146050000Y-120015000D02*
X146000000Y-120065000D01*
X142824612Y-120065000D02*
X140058674Y-122830938D01*
X144145000Y-120065000D02*
X142824612Y-120065000D01*
%TO.N,CH_MIX*%
X140058674Y-120290938D02*
X140058674Y-117750938D01*
%TO.N,Net-(D3-K)*%
X114875000Y-127000000D02*
X112395000Y-127000000D01*
X116840000Y-128965000D02*
X114875000Y-127000000D01*
%TO.N,CH*%
X158750000Y-71154000D02*
X158784000Y-71120000D01*
X158750000Y-73610000D02*
X158750000Y-71154000D01*
%TO.N,Net-(C15-Pad1)*%
X109220000Y-135840000D02*
X109220000Y-133350000D01*
X111175000Y-137795000D02*
X109220000Y-135840000D01*
X112505000Y-136465000D02*
X111175000Y-137795000D01*
X113665000Y-136465000D02*
X112505000Y-136465000D01*
%TO.N,Net-(C14-Pad2)*%
X106095000Y-134645000D02*
X106095000Y-137795000D01*
X105611005Y-134161005D02*
X106095000Y-134645000D01*
X105611005Y-131873406D02*
X105611005Y-134161005D01*
%TO.N,WN_OUT*%
X108378406Y-131873406D02*
X106680000Y-130175000D01*
X113111005Y-131873406D02*
X108378406Y-131873406D01*
%TO.N,Net-(D2-K)*%
X105390000Y-128985000D02*
X105390000Y-128505000D01*
X102870000Y-131505000D02*
X105390000Y-128985000D01*
%TO.N,WN_OUT*%
X86995000Y-116840000D02*
X86360000Y-116205000D01*
X91440000Y-116840000D02*
X86995000Y-116840000D01*
X92075000Y-116205000D02*
X91440000Y-116840000D01*
X98425000Y-118110000D02*
X99060000Y-117475000D01*
X98425000Y-122555000D02*
X98425000Y-118110000D01*
X104120000Y-128250000D02*
X98425000Y-122555000D01*
X104120000Y-128505000D02*
X104120000Y-128250000D01*
%TO.N,Net-(D2-K)*%
X108887044Y-128505000D02*
X112357533Y-125034511D01*
X105390000Y-128505000D02*
X108887044Y-128505000D01*
%TO.N,Net-(D2-A)*%
X111797165Y-117437835D02*
X109645805Y-117437835D01*
X111820489Y-117414511D02*
X111797165Y-117437835D01*
X112357533Y-117414511D02*
X111820489Y-117414511D01*
X112457943Y-117314101D02*
X112357533Y-117414511D01*
X115465402Y-117314101D02*
X112457943Y-117314101D01*
%TO.N,Net-(D3-K)*%
X107275867Y-124887773D02*
X109645805Y-122517835D01*
X106968029Y-124887773D02*
X107275867Y-124887773D01*
%TO.N,SD*%
X106968029Y-118456971D02*
X106968029Y-117267773D01*
X102860000Y-122565000D02*
X106968029Y-118456971D01*
%TO.N,Net-(D4-A)*%
X88265000Y-132715000D02*
X92075000Y-132715000D01*
X83185000Y-137795000D02*
X88265000Y-132715000D01*
%TO.N,Net-(C8-Pad2)*%
X97205000Y-134620000D02*
X99635000Y-134620000D01*
X99635000Y-134620000D02*
X99695000Y-134560000D01*
%TO.N,Net-(D4-A)*%
X98400864Y-127060000D02*
X96788080Y-128672784D01*
X99695000Y-127060000D02*
X98400864Y-127060000D01*
%TO.N,Net-(C8-Pad2)*%
X100270000Y-133985000D02*
X99695000Y-134560000D01*
X100270000Y-131445000D02*
X100270000Y-133985000D01*
%TO.N,Net-(U2A--)*%
X92770000Y-129734704D02*
X92770000Y-131445000D01*
X91708080Y-128672784D02*
X92770000Y-129734704D01*
%TO.N,Net-(D4-A)*%
X96788080Y-127366920D02*
X99060000Y-125095000D01*
X96788080Y-128672784D02*
X96788080Y-127366920D01*
%TO.N,Net-(U2A--)*%
X93380864Y-127000000D02*
X95885000Y-127000000D01*
X91708080Y-128672784D02*
X93380864Y-127000000D01*
%TO.N,SD*%
X104775000Y-120650000D02*
X104775000Y-116840000D01*
X102860000Y-122565000D02*
X104775000Y-120650000D01*
%TO.N,Net-(D7-A)*%
X90006672Y-130810000D02*
X90658647Y-131461975D01*
X88265000Y-130810000D02*
X90006672Y-130810000D01*
%TO.N,Net-(C13-Pad2)*%
X83158647Y-131461975D02*
X85758025Y-131461975D01*
X85758025Y-131461975D02*
X88315000Y-128905000D01*
%TO.N,Net-(D7-A)*%
X90658647Y-126218647D02*
X88900000Y-124460000D01*
X90658647Y-131461975D02*
X90658647Y-126218647D01*
%TO.N,Net-(C13-Pad2)*%
X88265000Y-120650000D02*
X87630000Y-121285000D01*
X88265000Y-118865000D02*
X88265000Y-120650000D01*
%TO.N,Net-(U2B--)*%
X87630000Y-126365000D02*
X86677500Y-125412500D01*
X88265000Y-126365000D02*
X87630000Y-126365000D01*
X90194263Y-121895737D02*
X90194263Y-121474266D01*
X85725000Y-126365000D02*
X90194263Y-121895737D01*
%TO.N,Net-(D7-A)*%
X88900000Y-121920000D02*
X90170000Y-120650000D01*
X86360000Y-121920000D02*
X88900000Y-121920000D01*
X85725000Y-121285000D02*
X86360000Y-121920000D01*
%TO.N,TOM*%
X95240000Y-125105000D02*
X91059000Y-120924000D01*
X91059000Y-120924000D02*
X91059000Y-119380000D01*
%TO.N,Net-(U1B-+)*%
X78775000Y-128235000D02*
X77470000Y-129540000D01*
X78775000Y-125745000D02*
X78775000Y-128235000D01*
X83185000Y-121335000D02*
X78775000Y-125745000D01*
%TO.N,WN_OUT*%
X78055000Y-124460000D02*
X76200000Y-124460000D01*
X81280000Y-121235000D02*
X78055000Y-124460000D01*
%TO.N,+5V*%
X68580000Y-132715000D02*
X68580000Y-130810000D01*
%TO.N,Net-(Q1-E)*%
X70465000Y-135910000D02*
X68580000Y-137795000D01*
X72155000Y-135910000D02*
X70465000Y-135910000D01*
%TO.N,Net-(Q1-B)*%
X72755000Y-134640000D02*
X72155000Y-134640000D01*
X73660000Y-135545000D02*
X72755000Y-134640000D01*
X73660000Y-136525000D02*
X73660000Y-135545000D01*
X72965000Y-136525000D02*
X73660000Y-136525000D01*
X71120000Y-138370000D02*
X72965000Y-136525000D01*
%TO.N,Net-(U1B-+)*%
X71755000Y-130175000D02*
X71755000Y-130235000D01*
X69850000Y-128270000D02*
X71755000Y-130175000D01*
X71755000Y-130235000D02*
X71120000Y-130870000D01*
%TO.N,Net-(C1-Pad2)*%
X77249488Y-136989488D02*
X75515000Y-135255000D01*
X77249488Y-138519480D02*
X77249488Y-136989488D01*
%TO.N,Net-(D1-A)*%
X75195000Y-132345000D02*
X74295000Y-131445000D01*
X80473658Y-131129888D02*
X79258546Y-132345000D01*
X79258546Y-132345000D02*
X75195000Y-132345000D01*
%TO.N,Net-(U1A--)*%
X77249488Y-131019480D02*
X75515000Y-129284992D01*
X75515000Y-129284992D02*
X75515000Y-128905000D01*
%TO.N,Net-(C1-Pad2)*%
X77359896Y-138629888D02*
X77249488Y-138519480D01*
X80473658Y-138629888D02*
X77359896Y-138629888D01*
%TO.N,Net-(D1-A)*%
X80473658Y-129026342D02*
X80595000Y-128905000D01*
X80473658Y-131129888D02*
X80473658Y-129026342D01*
X80595000Y-128855000D02*
X79375000Y-127635000D01*
X80595000Y-128905000D02*
X80595000Y-128855000D01*
%TO.N,Net-(U1A--)*%
X74930000Y-128320000D02*
X75515000Y-128905000D01*
X74930000Y-123190000D02*
X74930000Y-128320000D01*
X77470000Y-120650000D02*
X74930000Y-123190000D01*
%TO.N,BD*%
X79375000Y-121285000D02*
X79375000Y-115962000D01*
X77470000Y-123190000D02*
X79375000Y-121285000D01*
X79375000Y-115962000D02*
X72459000Y-115962000D01*
X82140000Y-115962000D02*
X79375000Y-115962000D01*
%TO.N,Net-(U1B-+)*%
X69850000Y-125730000D02*
X69850000Y-128270000D01*
%TO.N,Net-(R5-Pad1)*%
X68580000Y-121920000D02*
X69850000Y-120650000D01*
X68580000Y-128905000D02*
X68580000Y-121920000D01*
%TO.N,WN_OUT*%
X73025000Y-128270000D02*
X73025000Y-126365000D01*
X73660000Y-128905000D02*
X73025000Y-128270000D01*
X73025000Y-126365000D02*
X69850000Y-123190000D01*
%TO.N,GND*%
X91694000Y-42418000D02*
X87757000Y-42418000D01*
X115799000Y-40844000D02*
X137849000Y-40844000D01*
X87757000Y-42418000D02*
X86360000Y-43815000D01*
%TO.N,SD*%
X131994000Y-101414000D02*
X122421000Y-101414000D01*
X145923000Y-99949000D02*
X144331000Y-101541000D01*
X85083000Y-101541000D02*
X83583000Y-100041000D01*
X119421000Y-101414000D02*
X120921000Y-99914000D01*
X110102000Y-101414000D02*
X119421000Y-101414000D01*
X157232000Y-101449000D02*
X147423000Y-101449000D01*
X94529000Y-101541000D02*
X85083000Y-101541000D01*
X83583000Y-100041000D02*
X82048000Y-101576000D01*
X97529000Y-101541000D02*
X106975000Y-101541000D01*
X134867000Y-101541000D02*
X133367000Y-100041000D01*
X144331000Y-101541000D02*
X134867000Y-101541000D01*
X133367000Y-100041000D02*
X131994000Y-101414000D01*
X82048000Y-101576000D02*
X72476000Y-101576000D01*
X96029000Y-100041000D02*
X94529000Y-101541000D01*
X122421000Y-101414000D02*
X120921000Y-99914000D01*
X158640000Y-100041000D02*
X157232000Y-101449000D01*
X106975000Y-101541000D02*
X108602000Y-99914000D01*
X108602000Y-99914000D02*
X110102000Y-101414000D01*
X72476000Y-101576000D02*
X70976000Y-100076000D01*
X96029000Y-100041000D02*
X97529000Y-101541000D01*
X147423000Y-101449000D02*
X145923000Y-99949000D01*
%TO.N,CH*%
X122675000Y-72585000D02*
X121175000Y-71085000D01*
X132121000Y-72585000D02*
X122675000Y-72585000D01*
X70993000Y-71120000D02*
X72493000Y-72620000D01*
X135121000Y-72585000D02*
X133621000Y-71085000D01*
X146067000Y-71085000D02*
X144567000Y-72585000D01*
X110356000Y-72585000D02*
X108856000Y-71085000D01*
X144567000Y-72585000D02*
X135121000Y-72585000D01*
X158784000Y-71120000D02*
X157319000Y-72585000D01*
X157319000Y-72585000D02*
X147567000Y-72585000D01*
X94748000Y-72620000D02*
X96283000Y-71085000D01*
X107356000Y-72585000D02*
X97783000Y-72585000D01*
X108856000Y-71085000D02*
X107356000Y-72585000D01*
X133621000Y-71085000D02*
X132121000Y-72585000D01*
X85227000Y-72620000D02*
X94748000Y-72620000D01*
X147567000Y-72585000D02*
X146067000Y-71085000D01*
X121175000Y-71085000D02*
X119675000Y-72585000D01*
X97783000Y-72585000D02*
X96283000Y-71085000D01*
X82227000Y-72620000D02*
X83727000Y-71120000D01*
X72493000Y-72620000D02*
X82227000Y-72620000D01*
X119675000Y-72585000D02*
X110356000Y-72585000D01*
X83727000Y-71120000D02*
X85227000Y-72620000D01*
%TO.N,VIN*%
X78613000Y-56642000D02*
X77978000Y-56642000D01*
X75517000Y-54181000D02*
X71373000Y-54181000D01*
X77978000Y-56642000D02*
X75517000Y-54181000D01*
%TO.N,BD*%
X144440000Y-116019000D02*
X134867000Y-116019000D01*
X119531000Y-116019000D02*
X109975000Y-116019000D01*
X93053321Y-117621679D02*
X96156000Y-114519000D01*
X97656000Y-116019000D02*
X96156000Y-114519000D01*
X72459000Y-115962000D02*
X70959000Y-114462000D01*
X109975000Y-116019000D02*
X108475000Y-114519000D01*
X106975000Y-116019000D02*
X97656000Y-116019000D01*
X145940000Y-114519000D02*
X144440000Y-116019000D01*
X83583000Y-114519000D02*
X82140000Y-115962000D01*
X134867000Y-116019000D02*
X133367000Y-114519000D01*
X86685679Y-117621679D02*
X93053321Y-117621679D01*
X121031000Y-114519000D02*
X119531000Y-116019000D01*
X131867000Y-116019000D02*
X122531000Y-116019000D01*
X157013000Y-116019000D02*
X147440000Y-116019000D01*
X147440000Y-116019000D02*
X145940000Y-114519000D01*
X122531000Y-116019000D02*
X121031000Y-114519000D01*
X133367000Y-114519000D02*
X131867000Y-116019000D01*
X158513000Y-114519000D02*
X157013000Y-116019000D01*
X83583000Y-114519000D02*
X86685679Y-117621679D01*
X108475000Y-114519000D02*
X106975000Y-116019000D01*
%TO.N,TOM*%
X96283000Y-85436000D02*
X94656000Y-87063000D01*
X144492000Y-87063000D02*
X134994000Y-87063000D01*
X94656000Y-87063000D02*
X85083000Y-87063000D01*
X119421000Y-86971000D02*
X110339000Y-86971000D01*
X132213000Y-86844000D02*
X122548000Y-86844000D01*
X110339000Y-86971000D02*
X108839000Y-85471000D01*
X133494000Y-85563000D02*
X132213000Y-86844000D01*
X146084000Y-85471000D02*
X144492000Y-87063000D01*
X158750000Y-85471000D02*
X157250000Y-86971000D01*
X85083000Y-87063000D02*
X83583000Y-85563000D01*
X122548000Y-86844000D02*
X121048000Y-85344000D01*
X107374000Y-86936000D02*
X97783000Y-86936000D01*
X108839000Y-85471000D02*
X107374000Y-86936000D01*
X97783000Y-86936000D02*
X96283000Y-85436000D01*
X134994000Y-87063000D02*
X133494000Y-85563000D01*
X72459000Y-84133000D02*
X82153000Y-84133000D01*
X147584000Y-86971000D02*
X146084000Y-85471000D01*
X82153000Y-84133000D02*
X83583000Y-85563000D01*
X121048000Y-85344000D02*
X119421000Y-86971000D01*
X157250000Y-86971000D02*
X147584000Y-86971000D01*
X70959000Y-85633000D02*
X72459000Y-84133000D01*
%TD*%
M02*
