M48
; DRILL file {KiCad 8.0.3} date 2026-04-22T09:35:08-0700
; FORMAT={-:-/ absolute / inch / decimal}
; #@! TF.CreationDate,2026-04-22T09:35:08-07:00
; #@! TF.GenerationSoftware,Kicad,Pcbnew,8.0.3
; #@! TF.FileFunction,Plated,1,2,PTH
FMAT,2
INCH
; #@! TA.AperFunction,Plated,PTH,ViaDrill
T1C0.0118
; #@! TA.AperFunction,Plated,PTH,ComponentDrill
T2C0.0236
; #@! TA.AperFunction,Plated,PTH,ComponentDrill
T3C0.0276
; #@! TA.AperFunction,Plated,PTH,ComponentDrill
T4C0.0295
; #@! TA.AperFunction,Plated,PTH,ComponentDrill
T5C0.0315
; #@! TA.AperFunction,Plated,PTH,ComponentDrill
T6C0.0350
; #@! TA.AperFunction,Plated,PTH,ComponentDrill
T7C0.0354
; #@! TA.AperFunction,Plated,PTH,ComponentDrill
T8C0.0394
; #@! TA.AperFunction,Plated,PTH,ComponentDrill
T9C0.0472
%
G90
G05
T1
X2.7Y-5.15
X2.9Y-2.82
X2.9Y-4.4
X3.0Y-4.9
X3.05Y-5.1
X3.095Y-2.23
X3.125Y-5.025
X3.38Y-2.06
X3.4Y-1.725
X3.4Y-4.575
X3.45Y-4.775
X3.48Y-2.68
X3.5Y-4.9
X3.52Y-2.1
X3.55Y-4.75
X3.551Y-4.7825
X3.56Y-2.42
X3.585Y-4.7
X3.61Y-1.67
X3.62Y-2.6
X3.625Y-4.575
X3.625Y-5.225
X3.68Y-4.58
X3.68Y-4.66
X3.68Y-5.425
X3.72Y-2.22
X3.76Y-2.34
X3.775Y-5.0
X3.78Y-2.1964
X3.82Y-2.28
X3.82Y-2.54
X3.86Y-1.6936
X3.88Y-2.8341
X3.9Y-4.625
X3.9Y-4.925
X3.92Y-1.88
X3.92Y-1.9436
X3.925Y-4.525
X3.96Y-1.88
X3.96Y-1.9436
X3.96Y-3.0
X3.9836Y-2.153
X4.0Y-2.34
X4.0128Y-2.2406
X4.04Y-2.18
X4.04Y-2.52
X4.0597Y-2.4475
X4.0597Y-2.58
X4.125Y-4.6
X4.14Y-2.64
X4.16Y-1.86
X4.18Y-1.64
X4.1858Y-2.3771
X4.2Y-5.125
X4.24Y-1.64
X4.24Y-1.9157
X4.24Y-2.3
X4.26Y-1.94
X4.26Y-2.18
X4.3Y-5.25
X4.31Y-2.23
X4.375Y-5.35
X4.4Y-2.32
X4.425Y-5.0
X4.4472Y-2.2
X4.46Y-4.4236
X4.4937Y-2.92
X4.52Y-3.04
X4.54Y-2.28
X4.5468Y-1.9732
X4.56Y-2.54
X4.5764Y-2.48
X4.6Y-4.4
X4.6364Y-2.24
X4.6364Y-2.46
X4.64Y-1.9
X4.66Y-2.94
X4.6836Y-2.22
X4.74Y-1.58
X4.74Y-2.24
X4.74Y-2.42
X4.88Y-2.58
X4.9Y-2.24
X4.9Y-4.6
X4.9Y-5.175
X4.94Y-2.46
X4.98Y-1.56
X4.98Y-2.08
X5.0Y-5.28
X5.003Y-3.12
X5.0036Y-1.64
X5.02Y-1.52
X5.02Y-2.22
X5.02Y-2.52
X5.02Y-4.36
X5.12Y-1.64
X5.16Y-1.72
X5.18Y-2.26
X5.2Y-1.54
X5.22Y-1.507
X5.24Y-1.66
X5.24Y-2.7309
X5.3164Y-4.86
X5.34Y-5.08
X5.36Y-2.9
X5.3636Y-4.54
X5.4Y-4.72
X5.4Y-4.86
X5.4Y-5.0233
X5.44Y-3.5
X5.4457Y-2.56
X5.46Y-2.9
X5.46Y-4.22
X5.46Y-4.42
X5.5Y-4.0213
X5.5Y-4.38
X5.5Y-5.1514
X5.52Y-2.2
X5.52Y-3.08
X5.58Y-2.8341
X5.6Y-1.4
X5.6524Y-5.2924
X5.775Y-2.9
X5.8Y-1.74
X5.82Y-1.52
X5.825Y-4.6
X5.84Y-4.98
X5.88Y-1.36
X5.9Y-2.54
X5.983Y-3.0
X6.04Y-5.4
X6.08Y-2.82
T3
X2.7Y-5.075
X2.7Y-5.225
X2.7Y-5.425
X2.9Y-5.075
X2.973Y-5.075
X2.973Y-5.325
X3.173Y-5.075
X3.173Y-5.325
X3.2Y-4.773
X3.2Y-4.973
X3.225Y-2.295
X3.225Y-2.495
X3.275Y-4.777
X3.275Y-4.977
X3.277Y-5.075
X3.375Y-4.775
X3.375Y-4.975
X3.477Y-5.075
X3.6106Y-5.0659
X3.627Y-5.3
X3.8106Y-5.0659
X3.827Y-5.3
X4.177Y-5.301
X4.177Y-5.425
X4.3168Y-4.6235
X4.3168Y-4.8235
X4.377Y-5.301
X4.377Y-5.425
X4.559Y-1.608
X4.559Y-1.808
X4.683Y-1.608
X4.683Y-1.808
X4.72Y-2.4839
X4.72Y-2.6839
X4.72Y-4.718
X4.72Y-4.918
X4.807Y-1.608
X4.807Y-1.808
X4.925Y-4.802
X4.925Y-5.002
X4.9311Y-1.608
X4.9311Y-1.808
X5.0551Y-1.608
X5.0551Y-1.808
X5.1791Y-1.608
X5.1791Y-1.808
X5.3031Y-1.608
X5.3031Y-1.808
X5.42Y-5.218
X5.42Y-5.418
X5.4271Y-1.608
X5.4271Y-1.808
X5.4823Y-5.0572
X5.675Y-4.727
X5.675Y-4.927
X5.6823Y-5.0572
X5.7757Y-5.2881
X5.777Y-5.2012
X5.778Y-5.12
X5.7787Y-5.3731
X5.78Y-5.46
X5.9757Y-5.2881
X5.977Y-5.2012
X5.978Y-5.12
X5.9787Y-5.3731
X5.98Y-5.46
X6.18Y-4.9
X6.18Y-5.1
X6.25Y-2.898
X6.25Y-3.098
T4
X2.8407Y-5.2508
X2.8407Y-5.3008
X2.8407Y-5.3508
X3.7386Y-1.37
X3.7886Y-1.32
X3.8386Y-1.37
X4.0129Y-1.37
X4.0492Y-5.0593
X4.0629Y-1.32
X4.0992Y-5.0593
X4.1129Y-1.37
X4.1492Y-5.0593
X4.2871Y-1.37
X4.3371Y-1.32
X4.3871Y-1.37
X4.5614Y-1.37
X4.6114Y-1.32
X4.6614Y-1.37
X4.8357Y-1.37
X4.8857Y-1.32
X4.9357Y-1.37
X4.9992Y-5.0843
X5.0492Y-5.0843
X5.0992Y-5.0843
X5.11Y-1.37
X5.16Y-1.32
X5.21Y-1.37
X5.3843Y-1.37
X5.4343Y-1.32
X5.4843Y-1.37
X5.6586Y-1.37
X5.7086Y-1.32
X5.7586Y-1.37
T5
X2.75Y-4.65
X2.75Y-4.75
X2.75Y-4.85
X2.75Y-4.95
X2.8Y-5.1524
X2.8Y-5.4476
X3.0413Y-5.1582
X3.0413Y-5.4535
X3.05Y-4.65
X3.05Y-4.75
X3.05Y-4.85
X3.05Y-4.95
X3.1683Y-5.1626
X3.1683Y-5.4579
X3.274Y-5.1757
X3.475Y-4.6797
X3.475Y-4.975
X3.5692Y-5.1757
X3.6524Y-5.175
X3.74Y-2.4
X3.74Y-2.7
X3.7496Y-4.6254
X3.7496Y-4.7254
X3.7496Y-4.8254
X3.7496Y-4.9254
X3.84Y-2.4
X3.84Y-2.7
X3.925Y-5.0024
X3.925Y-5.2976
X3.94Y-2.4
X3.94Y-2.7
X3.9476Y-5.175
X4.04Y-2.4
X4.04Y-2.7
X4.0496Y-4.6254
X4.0496Y-4.7254
X4.0496Y-4.8254
X4.0496Y-4.9254
X4.05Y-5.1774
X4.05Y-5.4726
X4.14Y-2.4
X4.14Y-2.7
X4.1579Y-5.1919
X4.24Y-2.4
X4.24Y-2.7
X4.275Y-5.1297
X4.275Y-5.425
X4.34Y-2.4
X4.34Y-2.7
X4.44Y-2.4
X4.44Y-2.7
X4.4532Y-5.1919
X4.475Y-5.0774
X4.475Y-5.3726
X4.5459Y-4.6187
X4.5459Y-4.9139
X4.6Y-5.0774
X4.6Y-5.3726
X4.8Y-2.36
X4.8Y-2.46
X4.8Y-2.56
X4.8Y-2.66
X4.85Y-5.0797
X4.85Y-5.375
X5.0124Y-5.36
X5.1Y-2.36
X5.1Y-2.46
X5.1Y-2.56
X5.1Y-2.66
X5.1911Y-5.0469
X5.1911Y-5.3422
X5.2141Y-4.6359
X5.2141Y-4.7359
X5.2141Y-4.8359
X5.2141Y-4.9359
X5.2724Y-2.54
X5.3076Y-5.36
X5.5141Y-4.6359
X5.5141Y-4.7359
X5.5141Y-4.8359
X5.5141Y-4.9359
X5.5676Y-2.54
X5.775Y-4.7047
X5.775Y-5.0
X6.0047Y-2.52
X6.3Y-2.52
T6
X6.1Y-5.22
X6.1Y-5.42
X6.2Y-5.22
X6.3Y-5.22
X6.3Y-5.42
T7
X2.745Y-2.34
X2.745Y-2.64
X2.925Y-5.175
X2.925Y-5.475
X3.275Y-5.425
X3.34Y-2.345
X3.34Y-2.645
X3.475Y-5.15
X3.475Y-5.45
X3.575Y-5.425
X3.795Y-1.995
X3.795Y-2.095
X4.075Y-1.995
X4.075Y-2.095
X4.2113Y-4.6168
X4.2113Y-4.9168
X4.355Y-1.995
X4.355Y-2.095
X4.4235Y-4.6226
X4.4235Y-4.9226
X4.6Y-2.38
X4.6Y-2.68
X4.635Y-1.9948
X4.635Y-2.0948
X4.725Y-5.15
X4.725Y-5.45
X4.915Y-1.995
X4.915Y-2.095
X5.195Y-1.995
X5.195Y-2.095
X5.475Y-1.995
X5.475Y-2.095
X5.74Y-2.66
X5.755Y-1.9948
X5.755Y-2.0948
X5.9Y-4.625
X5.9Y-4.925
X6.04Y-2.66
T8
X5.3231Y-2.66
X5.4216Y-2.66
X5.52Y-2.66
T9
X2.7937Y-3.3714
X2.7937Y-4.5064
X2.7943Y-3.94
X2.795Y-2.8
X3.0023Y-3.3714
X3.0023Y-4.5064
X3.003Y-3.94
X3.0037Y-2.8
X3.2907Y-3.3686
X3.2907Y-3.9386
X3.2907Y-4.5086
X3.2963Y-2.8
X3.4993Y-3.3686
X3.4993Y-3.9386
X3.4993Y-4.5086
X3.505Y-2.8
X3.7807Y-3.9386
X3.7857Y-4.5086
X3.7907Y-2.7986
X3.7907Y-3.3636
X3.9893Y-3.9386
X3.9943Y-4.5086
X3.9993Y-2.7986
X3.9993Y-3.3636
X4.2707Y-4.5086
X4.2757Y-3.9336
X4.285Y-3.365
X4.2857Y-2.7986
X4.4793Y-4.5086
X4.4843Y-3.9336
X4.4937Y-3.365
X4.4943Y-2.7986
X4.7607Y-3.9336
X4.765Y-4.5086
X4.7657Y-3.36
X4.7707Y-2.7986
X4.9693Y-3.9336
X4.9737Y-4.5086
X4.9743Y-3.36
X4.9793Y-2.7986
X5.2507Y-3.9386
X5.2507Y-4.5086
X5.2557Y-3.3686
X5.2607Y-2.7986
X5.4593Y-3.9386
X5.4593Y-4.5086
X5.4643Y-3.3686
X5.4693Y-2.7986
X5.745Y-3.935
X5.7457Y-4.5086
X5.7507Y-2.7986
X5.7513Y-3.365
X5.9537Y-3.935
X5.9543Y-4.5086
X5.9593Y-2.7986
X5.96Y-3.365
X6.0957Y-2.1986
X6.2407Y-4.5086
X6.2457Y-3.9386
X6.25Y-3.365
X6.2513Y-2.8
X6.3043Y-2.1986
X6.4493Y-4.5086
X6.4543Y-3.9386
X6.4587Y-3.365
X6.46Y-2.8
T2
G00X6.2974Y-5.3261
M15
G01X6.2974Y-5.3025
M16
G05
G00X6.3368Y-4.9915
M15
G01X6.3368Y-4.9679
M16
G05
G00X6.514Y-5.0505
M15
G01X6.514Y-5.0269
M16
G05
G00X6.514Y-5.208
M15
G01X6.514Y-5.1844
M16
G05
G00X6.514Y-5.3261
M15
G01X6.514Y-5.3025
M16
G05
T8
G00X2.8493Y-1.8969
M15
G01X2.7706Y-1.8969
M16
G05
G00X2.8493Y-2.1331
M15
G01X2.7706Y-2.1331
M16
G05
G00X2.995Y-1.9756
M15
G01X2.995Y-2.0544
M16
G05
M30
